<svg width="437" height="267" viewBox="0 0 437 267" fill="none" xmlns="http://www.w3.org/2000/svg">
<path d="M123.319 65.4654H41.6479V9.59033H123.319V65.4654ZM42.2929 64.8205H122.675V10.2352H42.2929V64.8205Z" fill="#EBEBEB"/>
<path d="M48.0389 13.1691C48.0389 13.4906 47.9436 13.8048 47.765 14.072C47.5865 14.3393 47.3326 14.5476 47.0357 14.6706C46.7387 14.7936 46.412 14.8258 46.0967 14.7631C45.7814 14.7004 45.4919 14.5456 45.2646 14.3183C45.0373 14.091 44.8825 13.8014 44.8198 13.4862C44.7571 13.1709 44.7893 12.8442 44.9123 12.5472C45.0353 12.2502 45.2436 11.9964 45.5109 11.8178C45.7781 11.6393 46.0923 11.5439 46.4138 11.5439C46.8448 11.5439 47.2581 11.7152 47.5629 12.0199C47.8677 12.3247 48.0389 12.7381 48.0389 13.1691Z" fill="#A6A6A6"/>
<path d="M54.6752 13.1691C54.6752 13.4906 54.5798 13.8048 54.4013 14.072C54.2227 14.3393 53.9689 14.5476 53.6719 14.6706C53.3749 14.7936 53.0482 14.8258 52.7329 14.7631C52.4177 14.7004 52.1281 14.5456 51.9008 14.3183C51.6735 14.091 51.5187 13.8014 51.456 13.4862C51.3933 13.1709 51.4255 12.8442 51.5485 12.5472C51.6715 12.2502 51.8798 11.9964 52.1471 11.8178C52.4143 11.6393 52.7286 11.5439 53.05 11.5439C53.481 11.5439 53.8944 11.7152 54.1992 12.0199C54.5039 12.3247 54.6752 12.7381 54.6752 13.1691Z" fill="#EBEBEB"/>
<path d="M61.3114 13.1691C61.3114 13.4906 61.2161 13.8048 61.0375 14.072C60.8589 14.3393 60.6051 14.5476 60.3081 14.6706C60.0112 14.7936 59.6844 14.8258 59.3692 14.7631C59.0539 14.7004 58.7643 14.5456 58.537 14.3183C58.3098 14.091 58.155 13.8014 58.0923 13.4862C58.0296 13.1709 58.0617 12.8442 58.1847 12.5472C58.3078 12.2502 58.5161 11.9964 58.7833 11.8178C59.0506 11.6393 59.3648 11.5439 59.6862 11.5439C60.1172 11.5439 60.5306 11.7152 60.8354 12.0199C61.1402 12.3247 61.3114 12.7381 61.3114 13.1691Z" fill="#4B4E6D"/>
<path d="M122.998 16.0525H41.9712V16.6974H122.998V16.0525Z" fill="#EBEBEB"/>
<path d="M417.78 164.22L409.319 164.401L405.024 164.471C403.586 164.504 402.141 164.472 400.703 164.51H400.419V164.22L400.38 156.984V156.662H400.703L409.241 156.7C412.092 156.7 414.936 156.771 417.78 156.804H417.961V156.984C417.961 158.209 417.909 159.428 417.877 160.634L417.78 164.22ZM417.78 164.22L417.69 160.576C417.658 159.377 417.619 158.19 417.606 157.003L417.78 157.184C414.936 157.216 412.092 157.287 409.241 157.287L400.703 157.326L401.025 157.003V164.22L400.735 163.936C402.141 163.936 403.547 163.936 404.959 163.968L409.158 164.078L417.78 164.22Z" fill="#EBEBEB"/>
<path d="M408.254 173.32L399.793 173.5L395.491 173.571C394.06 173.571 392.615 173.571 391.177 173.61H390.893V173.32V166.103V165.781H391.216L399.754 165.826C402.598 165.826 405.449 165.897 408.293 165.929H408.473V166.103C408.473 167.329 408.422 168.547 408.39 169.753L408.254 173.32ZM408.254 173.32L408.164 169.676C408.132 168.476 408.093 167.29 408.08 166.103L408.254 166.284C405.41 166.316 402.56 166.387 399.715 166.387L391.177 166.426L391.499 166.103V173.32L391.209 173.036C392.615 173.036 394.021 173.036 395.433 173.068L399.67 173.146L408.254 173.32Z" fill="#EBEBEB"/>
<path d="M427.305 173.32L418.844 173.5L414.549 173.571C413.11 173.571 411.666 173.571 410.228 173.61H409.944V173.32L409.905 166.103V165.781H410.228L418.766 165.826C421.617 165.826 424.461 165.897 427.305 165.929H427.486V166.103C427.486 167.329 427.428 168.547 427.402 169.753L427.305 173.32ZM427.305 173.32L427.215 169.676C427.215 168.476 427.144 167.29 427.131 166.103L427.305 166.284C424.461 166.316 421.617 166.387 418.766 166.387L410.228 166.426L410.55 166.103V173.32L410.26 173.036C411.672 173.036 413.072 173.036 414.484 173.068L418.728 173.146L427.305 173.32Z" fill="#EBEBEB"/>
<path d="M187.173 78.3504L178.711 78.531L174.416 78.6019C172.978 78.6019 171.534 78.6019 170.095 78.6019H169.812V78.3117L169.773 71.0952V70.7727H170.095L178.634 70.8114C181.485 70.8114 184.329 70.8823 187.173 70.9146H187.353V71.0887C187.353 72.314 187.295 73.5265 187.263 74.7325L187.173 78.3504ZM187.173 78.3504L187.082 74.7002C187.082 73.5007 187.011 72.314 186.999 71.1339L187.173 71.308C184.329 71.308 181.485 71.4112 178.634 71.4112L170.095 71.4563L170.418 71.1339L170.386 78.3504L170.095 78.0602C171.501 78.0602 172.907 78.0602 174.32 78.0989L178.563 78.1698L187.173 78.3504Z" fill="#EBEBEB"/>
<path d="M177.634 87.45L169.173 87.6306L164.871 87.7016C163.44 87.7016 161.995 87.7016 160.557 87.7338H160.273V87.4436L160.222 80.2399V79.9175H160.544L169.083 79.9562C171.927 79.9562 174.777 80.0271 177.621 80.0594H177.802V80.2399C177.802 81.4653 177.75 82.6777 177.718 83.8837L177.634 87.45ZM177.634 87.45L177.544 83.7998C177.512 82.6003 177.473 81.4137 177.46 80.2335L177.634 80.4076C174.79 80.4399 171.94 80.5108 169.096 80.5108L160.557 80.5559L160.879 80.2335L160.867 87.45L160.576 87.1598C161.982 87.1598 163.388 87.1598 164.801 87.1985L169.038 87.2695L177.634 87.45Z" fill="#EBEBEB"/>
<path d="M196.698 87.45L188.236 87.6306L183.941 87.7016C182.503 87.7016 181.065 87.7016 179.62 87.7338H179.337V87.4436L179.298 80.2399V79.9175H179.62L188.159 79.9562C191.009 79.9562 193.853 80.0271 196.698 80.0594H196.878V80.2399C196.878 81.4653 196.82 82.6777 196.794 83.8837L196.698 87.45ZM196.698 87.45L196.607 83.7998C196.607 82.6003 196.536 81.4137 196.523 80.2335L196.698 80.4076C193.853 80.4399 191.009 80.5108 188.159 80.5108L179.62 80.5559L179.943 80.2335L179.911 87.45L179.62 87.1598C181.033 87.1598 182.432 87.1598 183.844 87.1985L188.088 87.2695L196.698 87.45Z" fill="#EBEBEB"/>
<path d="M30.8532 187.869L22.392 188.043L18.0904 188.121C16.6587 188.121 15.2141 188.121 13.7759 188.153H13.4922V187.869V180.653V180.324H13.8146L22.3533 180.362C25.1973 180.362 28.0478 180.433 30.8919 180.466H31.0725V180.64C31.0725 181.859 31.0209 183.077 30.9886 184.283L30.8532 187.869ZM30.8532 187.869L30.7629 184.219C30.7307 183.019 30.692 181.833 30.6791 180.653L30.8532 180.827C28.0091 180.827 25.1586 180.93 22.3146 180.93L13.7759 180.975L14.0984 180.653L14.0597 187.869L13.7759 187.579C15.1819 187.579 16.5878 187.579 17.9937 187.611L22.2372 187.689L30.8532 187.869Z" fill="#EBEBEB"/>
<path d="M331.032 78.344L322.571 78.5246L318.276 78.5956C316.838 78.6278 315.393 78.5956 313.955 78.6278H313.671V78.3376L313.632 71.121V70.7986H313.955L322.493 70.8373C325.344 70.8373 328.188 70.9147 331.032 70.9469H331.213V71.121C331.213 72.3464 331.161 73.5652 331.129 74.7648L331.032 78.344ZM331.032 78.344L330.942 74.7003C330.909 73.4943 330.871 72.3077 330.858 71.1275L331.032 71.3016C328.188 71.3339 325.344 71.4048 322.493 71.4112L313.955 71.4499L314.277 71.1275V78.344L313.987 78.0538C315.393 78.0538 316.799 78.0538 318.211 78.0925L322.455 78.1635L331.032 78.344Z" fill="#EBEBEB"/>
<path d="M416.793 8.25508L408.331 8.43565L404.03 8.50659C402.598 8.50659 401.154 8.50659 399.715 8.54529H399.432V8.25508V1.03852V0.716064H399.754L408.293 0.75476C411.137 0.75476 413.987 0.832148 416.831 0.864394H417.012V1.03852C417.012 2.26385 416.96 3.48273 416.928 4.68227L416.793 8.25508ZM416.793 8.25508L416.702 4.61133C416.67 3.40534 416.631 2.21871 416.619 1.03852L416.793 1.21265C413.949 1.21265 411.098 1.31583 408.254 1.32228L399.715 1.36098L400.038 1.03852L400.006 8.25508L399.715 7.96487C401.121 7.96487 402.527 7.96487 403.94 8.00356L408.177 8.0745L416.793 8.25508Z" fill="#EBEBEB"/>
<path d="M426.318 17.3548L417.857 17.5354L413.562 17.6063C412.124 17.6385 410.679 17.6063 409.241 17.6385H408.957V17.3483L408.918 10.1318V9.80933H409.241L417.78 9.84802C420.63 9.84802 423.474 9.92541 426.318 9.95766H426.499V10.1318C426.499 11.3571 426.441 12.576 426.408 13.7755L426.318 17.3548ZM426.318 17.3548L426.228 13.711C426.228 12.5051 426.157 11.3184 426.144 10.1382L426.318 10.3124C423.474 10.3124 420.63 10.4155 417.78 10.422L409.241 10.4607L409.563 10.1382V17.3548L409.273 17.0646C410.679 17.0646 412.085 17.0646 413.497 17.1033L417.741 17.1742L426.318 17.3548Z" fill="#EBEBEB"/>
<path d="M28.8792 8.26142L20.4115 8.442L16.1164 8.51294C14.6847 8.51294 13.2401 8.51294 11.8019 8.55163H11.5117V8.26142V1.04487V0.722412H11.8406L20.3792 0.767556C23.2233 0.767556 26.0674 0.838496 28.9179 0.870741H29.092V1.04487C29.092 2.2702 29.0339 3.48908 29.0082 4.69506L28.8792 8.26142ZM28.8792 8.26142L28.7824 4.61768C28.7824 3.41169 28.7115 2.22505 28.6986 1.04487L28.8792 1.21899C26.0287 1.25769 23.1846 1.32218 20.3405 1.32863L11.8019 1.36732L12.1244 1.04487L12.0857 8.26142L11.8019 8.00991C13.2078 8.00991 14.6073 8.00991 16.0196 8.00991L20.2632 8.08085L28.8792 8.26142Z" fill="#EBEBEB"/>
<path d="M77.5697 159.126L32.6323 170.882L17.5479 113.195L50.9091 104.469L62.4788 101.445L65.3551 112.434L77.5697 159.126Z" fill="#EBEBEB"/>
<path d="M24.8624 123.195L61.4692 113.625L61.0827 112.146L24.4759 121.716L24.8624 123.195Z" fill="#DBDBDB"/>
<path d="M25.838 126.931L62.4448 117.361L62.0583 115.883L25.4515 125.452L25.838 126.931Z" fill="#DBDBDB"/>
<path d="M26.8146 130.68L63.4214 121.11L63.0348 119.631L26.428 129.201L26.8146 130.68Z" fill="#DBDBDB"/>
<path d="M27.7897 134.414L64.3965 124.844L64.0099 123.366L27.4031 132.935L27.7897 134.414Z" fill="#DBDBDB"/>
<path d="M28.7653 138.15L65.3721 128.58L64.9855 127.102L28.3787 136.671L28.7653 138.15Z" fill="#DBDBDB"/>
<path d="M29.9935 141.227L66.6953 131.768L66.3132 130.285L29.6114 139.744L29.9935 141.227Z" fill="#DBDBDB"/>
<path d="M30.7233 145.633L67.3301 136.063L66.9435 134.584L30.3367 144.154L30.7233 145.633Z" fill="#DBDBDB"/>
<path d="M31.9627 148.68L68.6646 139.221L68.2824 137.738L31.5806 147.197L31.9627 148.68Z" fill="#DBDBDB"/>
<path d="M32.953 152.402L69.6548 142.943L69.2727 141.461L32.5708 150.92L32.953 152.402Z" fill="#DBDBDB"/>
<path d="M33.6588 156.851L70.2656 147.282L69.8791 145.803L33.2723 155.373L33.6588 156.851Z" fill="#DBDBDB"/>
<path d="M34.9285 159.861L71.6304 150.402L71.2483 148.919L34.5464 158.378L34.9285 159.861Z" fill="#DBDBDB"/>
<path d="M35.9124 163.585L72.6143 154.125L72.2321 152.643L35.5303 162.102L35.9124 163.585Z" fill="#DBDBDB"/>
<path d="M89.5007 175.771L43.1251 178.363L39.7974 118.832L74.2292 116.91L86.8049 127.583L89.5007 175.771Z" fill="#EBEBEB"/>
<path d="M74.2295 116.91L86.8053 127.583L74.8615 128.254L74.2295 116.91Z" fill="#DBDBDB"/>
<path d="M44.9754 130.093L70.7573 128.651L70.672 127.125L44.89 128.567L44.9754 130.093Z" fill="#DBDBDB"/>
<path d="M45.1863 133.954L70.9683 132.513L70.8829 130.987L45.101 132.428L45.1863 133.954Z" fill="#DBDBDB"/>
<path d="M45.4031 137.81L71.1851 136.368L71.0997 134.842L45.3178 136.284L45.4031 137.81Z" fill="#DBDBDB"/>
<path d="M45.619 141.67L83.397 139.558L83.3117 138.032L45.5337 140.144L45.619 141.67Z" fill="#DBDBDB"/>
<path d="M45.8363 145.525L83.6143 143.413L83.5289 141.887L45.751 143.999L45.8363 145.525Z" fill="#DBDBDB"/>
<path d="M46.0536 149.387L83.8315 147.275L83.7462 145.749L45.9683 147.861L46.0536 149.387Z" fill="#DBDBDB"/>
<path d="M46.2636 153.243L84.0415 151.131L83.9562 149.605L46.1782 151.717L46.2636 153.243Z" fill="#DBDBDB"/>
<path d="M46.4804 157.105L84.2583 154.993L84.173 153.467L46.3951 155.579L46.4804 157.105Z" fill="#DBDBDB"/>
<path d="M46.6972 160.96L84.4751 158.848L84.3898 157.322L46.6118 159.434L46.6972 160.96Z" fill="#DBDBDB"/>
<path d="M46.9144 164.815L84.6924 162.703L84.6071 161.177L46.8291 163.289L46.9144 164.815Z" fill="#DBDBDB"/>
<path d="M47.1249 168.677L84.9028 166.564L84.8175 165.038L47.0396 167.151L47.1249 168.677Z" fill="#DBDBDB"/>
<path d="M47.35 172.538L85.1279 170.426L85.0426 168.9L47.2647 171.012L47.35 172.538Z" fill="#DBDBDB"/>
<path d="M351.393 54.8368L395.879 87.579L417.747 57.8034L373.262 25.0613L351.393 54.8368Z" fill="#EBEBEB"/>
<path d="M354.598 54.3403L395.395 84.3673L414.536 58.2936L373.739 28.2729L354.598 54.3403Z" fill="white"/>
<path d="M371.475 39.1205C370.83 39.998 370.459 41.0472 370.41 42.1354C370.361 43.2235 370.636 44.3018 371.199 45.2338C371.763 46.1659 372.591 46.9098 373.577 47.3716C374.564 47.8334 375.665 47.9922 376.742 47.8281C377.819 47.6639 378.823 47.1842 379.627 46.4494C380.431 45.7147 380.999 44.758 381.26 43.7004C381.52 42.6427 381.461 41.5315 381.09 40.5074C380.719 39.4833 380.053 38.5922 379.175 37.9468C377.998 37.0829 376.526 36.7214 375.082 36.9414C373.639 37.1614 372.341 37.9451 371.475 39.1205Z" fill="#DBDBDB"/>
<path d="M367.238 63.7045L395.337 84.3932L395.305 55.0046L367.238 63.7045Z" fill="#DBDBDB"/>
<path d="M356.216 55.6109L379.414 72.6817L376.944 51.7415L356.216 55.6109Z" fill="#EBEBEB"/>
<path d="M335.263 40.752L390.493 41.4937L390.951 4.55317L335.714 3.81152L335.263 40.752Z" fill="#EBEBEB"/>
<path d="M337.585 38.4823L388.236 39.1659L388.63 6.82364L337.978 6.14648L337.585 38.4823Z" fill="white"/>
<path d="M342.447 16.2907C342.433 17.3811 342.743 18.4512 343.337 19.3656C343.931 20.28 344.783 20.9977 345.785 21.4279C346.787 21.8582 347.894 21.9816 348.966 21.7826C350.039 21.5836 351.028 21.0711 351.809 20.31C352.59 19.5488 353.128 18.5732 353.354 17.5065C353.581 16.4397 353.486 15.3298 353.081 14.317C352.677 13.3041 351.982 12.434 351.083 11.8164C350.184 11.1989 349.122 10.8617 348.032 10.8476C347.308 10.8383 346.589 10.9716 345.916 11.2401C345.244 11.5086 344.63 11.9069 344.112 12.4123C343.593 12.9178 343.179 13.5204 342.894 14.1859C342.608 14.8513 342.456 15.5666 342.447 16.2907Z" fill="#DBDBDB"/>
<path d="M353.308 38.7465L388.198 39.2172L371.075 15.3362L353.308 38.7465Z" fill="#DBDBDB"/>
<path d="M339.636 38.5724L368.437 38.9593L354.243 23.3718L339.636 38.5724Z" fill="#EBEBEB"/>
<path d="M419.076 149.774C410.827 160.951 402.224 173.92 400.128 187.94C400.128 188.153 400.444 188.224 400.49 188.011C401.442 184.192 402.662 180.444 404.14 176.796C409.563 175.3 414.89 174.075 417.734 168.69C420.643 163.156 420.275 155.94 419.721 149.91C419.682 149.575 419.244 149.562 419.076 149.774Z" fill="#4B4E6D"/>
<path d="M404.224 176.674C407.926 168.361 412.685 160.009 418.735 153.167C418.773 153.122 418.838 153.167 418.799 153.231C414.839 158.107 411.834 163.408 408.893 168.806C411.628 166.033 414.62 163.55 417.206 160.609C417.258 160.551 417.342 160.609 417.29 160.693C414.71 163.775 411.918 167.142 408.571 169.406C407.668 171.063 406.765 172.727 405.849 174.384C406.069 174.262 406.301 174.152 406.533 174.036C406.578 174.036 406.61 174.075 406.572 174.094C406.314 174.223 406.062 174.358 405.798 174.475C405.366 175.261 404.934 176.048 404.508 176.828C404.385 176.977 404.147 176.854 404.224 176.674Z" fill="#444763"/>
<path d="M406.977 173.752C409.197 172.515 411.314 171.102 413.31 169.528C413.368 169.483 413.445 169.528 413.387 169.606C411.451 171.276 409.33 172.722 407.067 173.914C407.046 173.926 407.021 173.929 406.997 173.922C406.973 173.915 406.953 173.9 406.941 173.878C406.929 173.857 406.927 173.832 406.933 173.808C406.94 173.784 406.956 173.764 406.977 173.752Z" fill="#444763"/>
<path d="M399.174 185.844C399.181 185.879 399.2 185.911 399.228 185.933C399.256 185.955 399.29 185.968 399.326 185.968C399.361 185.968 399.396 185.955 399.423 185.933C399.451 185.911 399.47 185.879 399.477 185.844C399.516 181.233 399.477 176.596 399.548 171.959C400.728 169.573 403.269 168.251 405.03 166.342C406.301 164.946 407.407 163.407 408.326 161.757C410.449 157.816 411.747 153.485 412.143 149.026C412.627 144.093 410.757 127.802 408.674 128.389C407.597 128.679 404.101 136.773 403.179 139.417C401.676 143.822 400.577 148.356 399.897 152.96C398.194 163.769 398.349 174.92 399.174 185.844Z" fill="#4B4E6D"/>
<path d="M399.142 165.943C399.394 160.1 400.709 154.205 401.941 148.53C403.269 142.429 404.817 136.683 407.958 131.24C407.971 131.222 407.991 131.21 408.012 131.206C408.034 131.202 408.056 131.206 408.075 131.217C408.094 131.228 408.109 131.245 408.115 131.266C408.122 131.287 408.121 131.31 408.113 131.33C406.019 135.563 404.399 140.014 403.282 144.602C403.489 144.273 403.747 143.957 403.966 143.648C404.05 143.525 404.256 143.648 404.166 143.77C403.887 144.265 403.559 144.73 403.186 145.157C403.186 145.157 403.186 145.157 403.147 145.157C402.063 149.517 401.29 153.973 400.625 158.423C400.677 158.371 400.722 158.307 400.774 158.255C400.825 158.204 400.864 158.255 400.845 158.307C400.761 158.455 400.664 158.597 400.58 158.745C400.245 161.002 399.935 163.26 399.619 165.491C403.644 162.054 407.074 158.004 409.016 153.012C409.016 153.012 409.061 153.012 409.048 153.012C407.152 158.171 404.159 162.789 399.555 165.91L399.303 167.716C399.303 167.839 399.084 167.806 399.09 167.716C399.09 167.181 399.09 166.645 399.136 166.117C399.125 166.105 399.116 166.091 399.11 166.076C399.105 166.061 399.102 166.044 399.102 166.028C399.103 166.012 399.107 165.996 399.114 165.981C399.12 165.967 399.13 165.953 399.142 165.943Z" fill="#444763"/>
<path d="M401.032 157.481C404.108 152.896 406.978 148.452 409.228 143.371C409.228 143.312 409.351 143.371 409.325 143.409C407.429 148.446 404.811 153.554 401.186 157.597C401.116 157.681 400.974 157.571 401.032 157.481Z" fill="#444763"/>
<path d="M405.121 142.236C406.41 139.985 407.7 137.792 408.932 135.496C408.964 135.432 409.054 135.496 409.029 135.548C408.038 137.948 406.784 140.23 405.288 142.352C405.23 142.468 405.043 142.365 405.121 142.236Z" fill="#444763"/>
<path d="M396.053 172.501C395.986 175.56 395.624 178.605 394.969 181.594C395.021 181.923 395.066 182.239 395.118 182.587C396.056 179.288 396.601 175.889 396.743 172.462C396.77 172.414 396.784 172.36 396.784 172.304C396.784 172.249 396.77 172.194 396.743 172.146C396.874 167.545 396.533 162.942 395.724 158.41C394.325 149.89 391.184 141.777 385.296 135.425C385.247 135.384 385.19 135.355 385.128 135.34C385.067 135.324 385.003 135.323 384.94 135.336C384.878 135.349 384.82 135.376 384.77 135.415C384.72 135.454 384.679 135.504 384.651 135.56C382.265 141.629 383.097 148.865 385.128 154.908C386.227 158.191 387.805 161.295 389.81 164.117C391.816 166.974 394.402 169.386 396.053 172.501Z" fill="#4B4E6D"/>
<path d="M385.941 138.282C391.552 147.382 395.447 158.165 395.924 168.915C395.924 169.102 395.615 169.154 395.589 168.961C395.454 167.993 395.305 167.026 395.151 166.084C392.829 163.866 390.449 161.525 388.792 158.745C388.789 158.735 388.789 158.724 388.792 158.714C388.796 158.704 388.802 158.696 388.81 158.689C388.819 158.683 388.829 158.679 388.839 158.679C388.85 158.679 388.86 158.681 388.869 158.687C390.803 161.033 392.873 163.264 395.067 165.368C394.667 162.995 394.187 160.656 393.629 158.352C393.474 158.178 393.332 158.003 393.184 157.829C393.035 157.655 393.248 157.552 393.351 157.662L393.487 157.81C392.693 154.655 391.713 151.55 390.552 148.51C389.127 146.808 387.534 145.337 386.489 143.287C386.485 143.277 386.485 143.265 386.488 143.255C386.491 143.244 386.499 143.235 386.508 143.23C386.518 143.224 386.529 143.222 386.54 143.225C386.55 143.227 386.56 143.233 386.567 143.241C387.367 144.431 388.228 145.578 389.146 146.679C389.52 147.117 389.94 147.517 390.327 147.969C389.039 144.671 387.506 141.474 385.741 138.405C385.735 138.379 385.736 138.352 385.746 138.328C385.756 138.304 385.773 138.283 385.796 138.269C385.818 138.256 385.844 138.249 385.871 138.252C385.897 138.254 385.922 138.265 385.941 138.282Z" fill="#444763"/>
<path d="M387.101 149.484C388.914 151.922 390.971 154.25 392.661 156.772C392.712 156.843 392.609 156.92 392.545 156.862C390.384 154.831 388.553 152.057 386.979 149.555C386.934 149.478 387.05 149.413 387.101 149.484Z" fill="#444763"/>
<path d="M392.918 157.333L392.996 157.41C393.047 157.468 392.964 157.552 392.912 157.494L392.835 157.417C392.824 157.406 392.817 157.391 392.817 157.375C392.817 157.359 392.824 157.344 392.835 157.333C392.846 157.322 392.861 157.316 392.877 157.316C392.892 157.316 392.907 157.322 392.918 157.333Z" fill="#444763"/>
<path d="M377.189 155.753C377.634 160.435 380.098 166.026 383.103 169.631C384.424 171.199 386.058 172.473 387.901 173.372C389.978 174.404 392.151 175.584 394.299 176.429C395.32 179.03 396.08 181.726 396.569 184.477C396.64 184.245 396.704 184 396.775 183.768C395.395 171.914 387.746 161.789 377.918 155.288C377.842 155.237 377.752 155.209 377.66 155.208C377.569 155.206 377.478 155.232 377.401 155.281C377.323 155.331 377.262 155.402 377.224 155.485C377.187 155.569 377.175 155.662 377.189 155.753Z" fill="#4B4E6D"/>
<path d="M380.575 159.255C380.505 159.191 380.576 159.068 380.679 159.126C386.068 163.133 390.365 168.428 393.177 174.527C393.248 174.688 393.022 174.83 392.932 174.668C392.474 173.869 392.01 173.095 391.539 172.334C389.301 171.908 387.179 170.335 385.516 168.838C385.47 168.8 385.516 168.735 385.58 168.774C386.438 169.553 387.392 170.22 388.418 170.76C389.327 171.225 390.307 171.515 391.262 171.889C390.43 170.599 389.566 169.309 388.682 168.084C386.265 167.164 383.999 165.89 381.956 164.305C381.891 164.253 381.956 164.15 382.02 164.195C384.043 165.417 386.129 166.532 388.269 167.536C386.906 165.727 385.433 164.004 383.858 162.376C383.097 161.977 382.323 161.57 381.588 161.138C381.573 161.132 381.562 161.121 381.556 161.106C381.55 161.092 381.55 161.075 381.556 161.061C381.562 161.046 381.573 161.035 381.588 161.029C381.602 161.023 381.619 161.023 381.633 161.029C382.245 161.242 382.83 161.528 383.374 161.88C382.465 160.996 381.556 160.113 380.575 159.255Z" fill="#444763"/>
<path d="M380.781 163.343C380.913 163.426 381.04 163.516 381.161 163.614C381.2 163.646 381.161 163.691 381.116 163.678C380.979 163.615 380.847 163.539 380.723 163.453C380.652 163.434 380.717 163.305 380.781 163.343Z" fill="#444763"/>
<path d="M412.085 210.145H385.205L387.372 185.664L387.849 180.266H409.434L409.912 185.664L412.085 210.145Z" fill="#455A64"/>
<path d="M409.912 185.664H387.372L387.849 180.266H409.434L409.912 185.664Z" fill="#444763"/>
<path d="M410.724 176.493H386.566V181.833H410.724V176.493Z" fill="#455A64"/>
<path d="M2.41846 210.144L56.7071 209.983L110.989 209.932L219.554 209.822L328.118 209.932L382.4 209.983L436.682 210.144L382.4 210.299L328.118 210.357L219.554 210.467L110.989 210.357L56.7071 210.299L2.41846 210.144Z" fill="#444763"/>
<path d="M219.554 266.232C335.054 266.232 428.685 258.809 428.685 249.651C428.685 240.494 335.054 233.071 219.554 233.071C104.053 233.071 10.4219 240.494 10.4219 249.651C10.4219 258.809 104.053 266.232 219.554 266.232Z" fill="#EBEBEB"/>
<path d="M369.521 20.2053H69.5918V220.837H369.521V20.2053Z" fill="#EBEBEB"/>
<path d="M367.341 22.656H71.7715V218.393H367.341V22.656Z" fill="#444763"/>
<path d="M408.577 235.883H30.5234V249.652H408.577V235.883Z" fill="#DBDBDB"/>
<path d="M30.5234 235.883L69.5921 220.837H369.514L408.583 235.883H30.5234Z" fill="#EBEBEB"/>
<path d="M73.0806 230.543L98.2837 220.837H340.822L366.031 230.543H73.0806Z" fill="#444763"/>
<path d="M350.637 37.5276H88.4746V203.521H350.637V37.5276Z" fill="white"/>
<path d="M345.982 43.9121H88.2495V85.7991H345.982V43.9121Z" fill="#4B4E6D"/>
<path d="M350.632 37.5276H88.2495V43.9122H350.632V37.5276Z" fill="#455A64"/>
<path d="M93.3243 40.7193C93.3243 41.0334 93.2311 41.3403 93.0565 41.6014C92.8819 41.8624 92.6337 42.0657 92.3435 42.1856C92.0532 42.3055 91.7339 42.3366 91.426 42.2748C91.118 42.2131 90.8354 42.0613 90.6137 41.8388C90.3921 41.6163 90.2416 41.333 90.1811 41.0248C90.1206 40.7167 90.1529 40.3975 90.274 40.1077C90.3951 39.8179 90.5994 39.5706 90.8611 39.3971C91.1229 39.2235 91.4303 39.1315 91.7443 39.1328C91.9523 39.1328 92.1583 39.1739 92.3504 39.2537C92.5426 39.3335 92.717 39.4505 92.8638 39.5979C93.0106 39.7453 93.1269 39.9202 93.2059 40.1127C93.2849 40.3051 93.3252 40.5113 93.3243 40.7193Z" fill="#C7C7C7"/>
<path d="M99.7931 40.7193C99.7931 41.0334 99.6999 41.3403 99.5253 41.6014C99.3506 41.8624 99.1025 42.0657 98.8122 42.1856C98.522 42.3055 98.2026 42.3366 97.8947 42.2748C97.5868 42.2131 97.3041 42.0613 97.0825 41.8388C96.8609 41.6163 96.7103 41.333 96.6498 41.0248C96.5893 40.7167 96.6217 40.3975 96.7427 40.1077C96.8638 39.8179 97.0682 39.5706 97.3299 39.3971C97.5916 39.2235 97.899 39.1315 98.2131 39.1328C98.4211 39.1328 98.6271 39.1739 98.8192 39.2537C99.0113 39.3335 99.1858 39.4505 99.3326 39.5979C99.4794 39.7453 99.5956 39.9202 99.6747 40.1127C99.7537 40.3051 99.7939 40.5113 99.7931 40.7193Z" fill="white"/>
<path d="M106.261 40.7193C106.261 41.0334 106.168 41.3403 105.993 41.6014C105.818 41.8624 105.57 42.0657 105.28 42.1856C104.99 42.3055 104.67 42.3366 104.362 42.2748C104.055 42.2131 103.772 42.0613 103.55 41.8388C103.329 41.6163 103.178 41.333 103.118 41.0248C103.057 40.7167 103.089 40.3975 103.211 40.1077C103.332 39.8179 103.536 39.5706 103.798 39.3971C104.059 39.2235 104.367 39.1315 104.681 39.1328C104.889 39.1328 105.095 39.1739 105.287 39.2537C105.479 39.3335 105.654 39.4505 105.8 39.5979C105.947 39.7453 106.063 39.9202 106.142 40.1127C106.221 40.3051 106.262 40.5113 106.261 40.7193Z" fill="#4B4E6D"/>
<path d="M350.637 43.9121H345.981V203.515H350.637V43.9121Z" fill="#DBDBDB"/>
<path d="M348.302 99.2452C347.984 99.2452 347.679 99.1188 347.454 98.8939C347.229 98.6689 347.103 98.3638 347.103 98.0457V46.0594C347.103 45.7413 347.229 45.4362 347.454 45.2112C347.679 44.9862 347.984 44.8599 348.302 44.8599C348.621 44.8599 348.927 44.986 349.153 45.2108C349.379 45.4356 349.506 45.7407 349.508 46.0594V98.0586C349.503 98.3751 349.374 98.6769 349.148 98.8989C348.922 99.1209 348.619 99.2453 348.302 99.2452Z" fill="#A6A6A6"/>
<path d="M332.548 51.7029H269.889V60.0674H332.548V51.7029Z" fill="white"/>
<path d="M332.632 60.1512H269.805V51.6125H332.632V60.1512ZM269.973 59.977H332.465V51.7867H269.973V59.977Z" fill="#C7C7C7"/>
<path d="M332.638 51.6125H324.099V60.1512H332.638V51.6125Z" fill="#455A64"/>
<path d="M331.02 58.2228L330.246 58.8096L328.814 56.92L328.292 56.23C328.398 56.1894 328.498 56.1329 328.588 56.0623C328.762 55.9261 328.899 55.7488 328.988 55.5464L329.543 56.2816L331.02 58.2228Z" fill="white"/>
<path d="M329.497 53.7989C329.253 53.479 328.922 53.2357 328.544 53.0977C328.166 52.9597 327.756 52.9329 327.363 53.0203C326.97 53.1077 326.611 53.3058 326.327 53.5911C326.043 53.8764 325.846 54.237 325.761 54.6303C325.675 55.0236 325.704 55.4333 325.844 55.8108C325.983 56.1883 326.228 56.5179 326.549 56.7607C326.87 57.0036 327.254 57.1495 327.655 57.1811C328.057 57.2128 328.458 57.129 328.814 56.9396C328.916 56.8872 329.014 56.8245 329.104 56.7526C329.272 56.6253 329.42 56.4731 329.542 56.3011C329.803 55.9339 329.939 55.4928 329.931 55.0426C329.923 54.5923 329.771 54.1565 329.497 53.7989ZM328.588 56.0819C328.498 56.1524 328.398 56.209 328.291 56.2495C328.035 56.3477 327.755 56.3618 327.491 56.29C327.226 56.2181 326.992 56.0639 326.821 55.8497C326.676 55.7244 326.561 55.5683 326.483 55.3929C326.406 55.2174 326.369 55.027 326.375 54.8354C326.381 54.6438 326.429 54.4559 326.516 54.2854C326.604 54.1148 326.728 53.9658 326.88 53.8494C327.032 53.7329 327.209 53.6518 327.396 53.612C327.584 53.5722 327.778 53.5746 327.964 53.6192C328.151 53.6638 328.325 53.7493 328.474 53.8697C328.623 53.99 328.744 54.1421 328.827 54.3148C328.958 54.4921 329.042 54.7002 329.071 54.9193C329.099 55.1384 329.07 55.361 328.988 55.5659C328.897 55.7613 328.759 55.9317 328.588 56.0625V56.0819Z" fill="white"/>
<path d="M272.087 53.3408H271.636V58.4163H272.087V53.3408Z" fill="#C7C7C7"/>
<path d="M266.747 51.7029H122.435V60.0674H266.747V51.7029Z" fill="white"/>
<path d="M266.831 60.1512H122.371V51.6125H266.831V60.1512ZM122.519 59.977H266.631V51.7867H122.519V59.977Z" fill="#C7C7C7"/>
<path d="M124.635 53.3408H124.184V58.4163H124.635V53.3408Z" fill="#C7C7C7"/>
<path d="M106.647 58.7455L103.604 55.9401L106.641 53.0251L107.118 53.5153L104.597 55.9272L107.112 58.2425L106.647 58.7455Z" fill="white"/>
<path d="M113.999 53.0186L117.043 55.8239L114.006 58.7389L113.535 58.2488L116.05 55.8304L113.535 53.5216L113.999 53.0186Z" fill="white"/>
<path d="M186.385 146.008H252.836V95.0214H186.385V146.008Z" fill="#4B4E6D"/>
<path opacity="0.6" d="M193.002 106.179C192.749 107.449 192.912 108.767 193.465 109.938C194.019 111.109 194.935 112.071 196.078 112.682C197.221 113.292 198.529 113.518 199.811 113.328C201.092 113.137 202.278 112.539 203.193 111.623C204.109 110.706 204.705 109.519 204.894 108.238C205.083 106.956 204.855 105.648 204.243 104.506C203.631 103.364 202.668 102.449 201.496 101.897C200.324 101.345 199.006 101.184 197.736 101.439C196.567 101.673 195.493 102.248 194.651 103.092C193.808 103.935 193.235 105.009 193.002 106.179Z" fill="white"/>
<path d="M208.306 135.025H252.837L230.574 107.584L208.306 135.025Z" fill="#4B4E6D"/>
<path opacity="0.2" d="M208.306 135.025H252.837L230.574 107.584L208.306 135.025Z" fill="black"/>
<path d="M186.385 135.051H225.873L206.132 117.181L186.385 135.051Z" fill="#4B4E6D"/>
<path opacity="0.1" d="M186.385 135.051H225.873L206.132 117.181L186.385 135.051Z" fill="black"/>
<path d="M252.836 135.025H186.385V146.008H252.836V135.025Z" fill="#4B4E6D"/>
<path opacity="0.1" d="M252.836 135.025H186.385V146.008H252.836V135.025Z" fill="black"/>
<path d="M137.604 153.063H102.463V156.017H137.604V153.063Z" fill="#A6A6A6"/>
<path d="M251.811 159.926H102.463V162.879H251.811V159.926Z" fill="#EBEBEB"/>
<path d="M251.811 166.426H102.463V169.379H251.811V166.426Z" fill="#EBEBEB"/>
<path d="M251.811 172.933H102.463V175.887H251.811V172.933Z" fill="#EBEBEB"/>
<path d="M251.811 179.44H102.463V182.394H251.811V179.44Z" fill="#EBEBEB"/>
<path d="M251.811 185.941H102.463V188.895H251.811V185.941Z" fill="#EBEBEB"/>
<path d="M297.11 95.4729H261.969V98.4266H297.11V95.4729Z" fill="#A6A6A6"/>
<path d="M336.643 102.328H261.969V105.282H336.643V102.328Z" fill="#EBEBEB"/>
<path d="M336.643 108.835H261.969V111.789H336.643V108.835Z" fill="#EBEBEB"/>
<path d="M336.643 115.336H261.969V118.29H336.643V115.336Z" fill="#EBEBEB"/>
<path d="M336.643 121.843H261.969V124.797H336.643V121.843Z" fill="#EBEBEB"/>
<path d="M336.643 133.903H261.969V136.857H336.643V133.903Z" fill="#EBEBEB"/>
<path d="M336.643 140.41H261.969V143.364H336.643V140.41Z" fill="#EBEBEB"/>
<path d="M336.643 146.917H261.969V149.871H336.643V146.917Z" fill="#EBEBEB"/>
<path d="M336.643 153.418H261.969V156.372H336.643V153.418Z" fill="#EBEBEB"/>
<path d="M336.643 159.926H261.969V162.879H336.643V159.926Z" fill="#EBEBEB"/>
<path d="M336.643 172.933H261.969V175.887H336.643V172.933Z" fill="#EBEBEB"/>
<path d="M312.298 179.44H261.969V182.394H312.298V179.44Z" fill="#EBEBEB"/>
<path d="M314.122 177.577H313.8V184.258H314.122V177.577Z" fill="#444763"/>
<path d="M137.604 95.0276H102.463V102.934H137.604V95.0276Z" fill="#A6A6A6"/>
<path d="M177.021 108.391H102.463V111.344H177.021V108.391Z" fill="#EBEBEB"/>
<path d="M177.021 114.898H102.463V117.851H177.021V114.898Z" fill="#EBEBEB"/>
<path d="M177.021 121.398H102.463V124.352H177.021V121.398Z" fill="#EBEBEB"/>
<path d="M177.021 127.905H102.463V130.859H177.021V127.905Z" fill="#EBEBEB"/>
<path d="M177.021 136.554H102.463V139.507H177.021V136.554Z" fill="#EBEBEB"/>
<path d="M177.021 143.061H102.463V146.014H177.021V143.061Z" fill="#EBEBEB"/>
<path d="M238.004 258.538C238.004 258.538 223.171 259.577 223.262 249.394C223.352 239.21 238.204 240.578 238.204 240.578L238.004 258.538Z" fill="#4B4E6D"/>
<path d="M355.152 248.658L355.1 253.115L342.086 259.719L283.399 259.074L245.62 258.648L241.461 258.603H241.022H237.939H237.411L237.617 240.636H238.21L241.222 240.668H241.661L245.82 240.713L342.305 241.809L355.133 248.71L355.152 248.658Z" fill="#4B4E6D"/>
<path d="M358.029 250.915L355.114 252.418H355.107L355.146 249.387L356.894 250.309L358.029 250.915Z" fill="#455A64"/>
<path d="M237.091 239.082L236.853 260.053L241.012 260.1L241.25 239.129L237.091 239.082Z" fill="#444763"/>
<path d="M241.349 238.762L241.139 259.734L245.299 259.776L245.509 238.803L241.349 238.762Z" fill="#444763"/>
<path d="M245.595 260.132L245.672 253.366L283.503 257.526L283.328 260.015L245.595 260.132Z" fill="#444763"/>
<path d="M146.447 133.284C150.104 137.721 153.006 162.879 148.382 172.701C143.758 182.523 123.875 184.599 119.586 171.959C117.336 165.381 123.004 158.029 125.642 140.61C127.596 127.628 141.333 127.093 146.447 133.284Z" fill="#444763"/>
<path d="M144.228 176.332C145.816 175.452 147.213 174.267 148.34 172.845C149.466 171.423 150.3 169.791 150.793 168.045C151.845 164.266 151.696 160.074 151.509 156.191C151.085 148.383 149.398 140.694 146.511 133.426C146.511 133.426 146.544 133.374 146.556 133.426C149.806 141.054 151.613 149.22 151.883 157.507C152.019 161.434 152.122 165.801 150.594 169.496C149.349 172.469 147.107 174.916 144.254 176.416C144.228 176.416 144.19 176.332 144.228 176.332Z" fill="#444763"/>
<path d="M119.863 157.384C120.985 154.998 122.32 152.722 123.087 150.187C123.855 147.653 124.184 145.189 124.706 142.68C125.499 138.811 126.866 134.941 130.11 132.471C126.802 135.116 125.654 139.256 124.88 143.241C124.454 145.421 124.126 147.627 123.513 149.761C122.911 151.678 122.134 153.534 121.191 155.308C119.044 159.577 117.367 163.975 118.347 168.851C118.733 170.842 119.587 172.712 120.838 174.308C122.09 175.904 123.703 177.179 125.544 178.028C125.66 178.08 125.577 178.286 125.461 178.241C123.792 177.507 122.302 176.422 121.091 175.06C119.88 173.697 118.977 172.09 118.444 170.347C117.083 166.013 117.96 161.428 119.863 157.384Z" fill="#444763"/>
<path d="M121.288 157.584C122.287 155.341 123.035 152.994 123.52 150.587C123.952 148.284 124.164 145.956 124.564 143.648C125.209 139.701 126.447 135.644 129.575 132.884C129.614 132.884 129.672 132.884 129.633 132.942C126.686 135.851 125.48 139.765 124.835 143.719C124.139 147.981 123.79 152.186 122.172 156.243C120.598 160.183 118.405 164.143 118.625 168.496C118.844 172.849 121.74 176.08 125.287 178.286C125.299 178.298 125.307 178.314 125.309 178.331C125.311 178.348 125.308 178.366 125.299 178.381C125.29 178.396 125.276 178.407 125.26 178.413C125.244 178.419 125.226 178.42 125.209 178.415C122.075 176.615 119.347 173.758 118.554 170.199C117.58 165.82 119.592 161.537 121.288 157.584Z" fill="#444763"/>
<path d="M276.699 230.085C275.171 230.672 230.775 231.485 229.034 230.492C228.847 230.376 228.898 228.415 228.247 223.346C228.215 223.107 227.202 222.166 225.616 220.837C219.682 215.865 205.727 205.359 205.727 205.359L227.886 186.109L249.355 207.217L254.94 212.699C254.94 212.699 273.081 222.495 274.88 223.791C276.68 225.087 278.24 229.499 276.699 230.085Z" fill="#D3766A"/>
<path d="M276.7 230.085C275.178 230.678 230.769 231.478 229.034 230.491C228.841 230.375 228.899 228.415 228.248 223.352C233.697 224.803 267.045 225.693 269.593 223.501C271.295 222.037 264.73 218.09 262.041 216.574C267.342 219.463 273.843 223.056 274.881 223.804C276.661 225.1 278.241 229.498 276.7 230.085Z" fill="#4B4E6D"/>
<path d="M249.665 206.049L222.275 220.237C222.275 220.237 193.744 194.441 191.126 194.215C188.508 193.989 150.129 220.076 130.801 220.185C110.809 220.269 109.771 199.297 109.771 199.297L138.972 192.59C160.016 182.219 181.943 163.569 196.279 165.323C211.853 167.187 249.665 206.049 249.665 206.049Z" fill="#455A64"/>
<path d="M242.97 202.431C238.353 204.721 239.649 204.005 235.044 206.339C232.793 207.481 221.501 213.195 219.566 214.607C219.557 214.614 219.551 214.625 219.548 214.636C219.546 214.648 219.547 214.66 219.552 214.67C219.558 214.681 219.566 214.69 219.577 214.694C219.588 214.699 219.6 214.7 219.611 214.697C221.875 213.936 233.077 207.984 235.309 206.797C239.862 204.379 238.533 205.024 243.048 202.56C243.065 202.55 243.077 202.533 243.082 202.514C243.087 202.495 243.084 202.474 243.073 202.457C243.063 202.44 243.046 202.427 243.027 202.423C243.008 202.418 242.987 202.421 242.97 202.431Z" fill="#444763"/>
<path d="M217.425 213.698C212.066 208.977 194.525 193.609 193.815 193.061C193.261 192.534 192.646 192.075 191.984 191.693C191.71 191.586 191.416 191.543 191.123 191.566C190.83 191.59 190.547 191.68 190.294 191.829C189.488 192.203 188.688 192.622 187.889 193.015L183.142 195.331C177.002 198.323 170.889 201.399 164.717 204.295C158.771 207.081 154.527 209.699 148.317 211.847C142.142 214.014 135.757 215.527 129.266 216.361C128.466 216.458 127.66 216.542 126.861 216.619C126.849 216.619 126.837 216.624 126.829 216.632C126.82 216.641 126.815 216.652 126.815 216.664C126.815 216.676 126.82 216.688 126.829 216.696C126.837 216.705 126.849 216.71 126.861 216.71C133.233 216.334 139.533 215.162 145.615 213.221C151.767 211.331 155.933 208.874 161.783 206.185C167.838 203.399 173.81 200.419 179.776 197.452C182.929 195.885 186.076 194.305 189.236 192.758C189.952 192.403 190.971 191.642 191.816 192.022C192.161 192.209 192.478 192.443 192.758 192.719L193.809 193.589C195.17 194.718 216.671 213.24 217.374 213.775C217.406 213.814 217.477 213.736 217.425 213.698Z" fill="#444763"/>
<path d="M109.719 199.271C109.719 199.271 106.443 218.206 115.911 225.648C125.378 233.09 194.745 232.187 205.269 228.789C215.794 225.39 216.13 208.403 204.625 204.463C193.661 200.722 147.124 198.904 145.976 198.446C145.686 198.33 150.104 195.679 150.084 195.518L139.489 192.293L109.719 199.271Z" fill="#455A64"/>
<path d="M124.106 198.794C124.106 198.71 123.971 198.736 123.971 198.794C123.969 200.995 123.193 203.125 121.778 204.811C120.166 206.675 117.793 207.713 115.639 208.803C115.432 208.906 115.587 209.235 115.8 209.171C117.124 208.762 118.4 208.211 119.605 207.526C120.711 206.941 121.684 206.133 122.462 205.153C123.161 204.264 123.668 203.241 123.951 202.146C124.234 201.052 124.287 199.91 124.106 198.794Z" fill="#444763"/>
<path d="M145.209 196.446C144.725 195.834 144.203 195.247 143.7 194.654C142.513 193.241 141.327 191.822 140.082 190.462C139.966 190.333 139.734 190.513 139.843 190.655C140.675 191.751 141.565 192.809 142.423 193.88C142.868 194.428 143.319 194.97 143.771 195.511C144.24 196.003 144.661 196.539 145.028 197.111C145.351 197.717 144.925 198.233 144.293 198.297C143.737 198.315 143.196 198.116 142.784 197.743C141.84 196.91 140.976 195.99 140.204 194.995C139.708 194.434 139.205 193.873 138.702 193.319C138.199 192.764 137.586 192.171 137.051 191.577C137.012 191.545 136.948 191.577 136.98 191.635C137.451 192.28 137.883 192.925 138.354 193.57C138.824 194.215 139.302 194.86 139.785 195.505C140.269 196.15 140.72 196.692 141.211 197.265C141.619 197.771 142.107 198.206 142.655 198.555C143.558 199.084 145.119 199.2 145.602 198.039C145.681 197.763 145.687 197.47 145.618 197.191C145.549 196.911 145.408 196.655 145.209 196.446Z" fill="#444763"/>
<path d="M203.831 228.847C200.206 228.918 196.588 229.13 192.964 229.208C189.34 229.285 185.773 229.304 182.175 229.266C174.956 229.201 167.742 228.922 160.531 228.427C153.25 227.924 145.402 227.196 138.166 226.196C134.709 225.719 131.201 225.319 127.776 224.584C124.703 223.998 121.861 222.545 119.586 220.398C114.904 215.852 113.079 209.177 112.331 202.792C112.232 201.932 112.148 201.072 112.079 200.213C112.082 200.206 112.083 200.198 112.082 200.191C112.081 200.184 112.079 200.177 112.075 200.17C112.071 200.164 112.065 200.159 112.058 200.156C112.052 200.152 112.045 200.151 112.037 200.151C112.03 200.151 112.023 200.152 112.016 200.156C112.01 200.159 112.004 200.164 112 200.17C111.996 200.177 111.993 200.184 111.992 200.191C111.992 200.198 111.993 200.206 111.995 200.213C112.415 206.752 113.434 213.575 117.548 218.838C119.282 221.137 121.594 222.937 124.249 224.055C127.473 225.345 131.085 225.654 134.503 226.119C141.764 227.105 149.645 227.866 156.952 228.434C164.259 229.001 171.669 229.356 179.034 229.466C186.399 229.575 193.783 229.466 201.141 229.105C202.036 229.066 202.932 229.008 203.831 228.93C203.839 228.927 203.846 228.921 203.851 228.914C203.856 228.906 203.859 228.898 203.859 228.888C203.859 228.879 203.856 228.871 203.851 228.863C203.846 228.856 203.839 228.85 203.831 228.847Z" fill="#444763"/>
<path d="M180.982 201.013C178.705 200.677 176.429 200.368 174.133 200.116C171.837 199.865 169.496 199.665 167.174 199.471C162.589 199.078 157.984 198.73 153.386 198.517C150.768 198.394 148.156 198.382 145.544 198.414C145.46 198.414 145.466 198.536 145.544 198.543C150.142 198.956 154.747 199.246 159.358 199.555C163.969 199.865 168.548 200.265 173.133 200.703C175.713 200.948 178.344 201.142 180.95 201.348C181.137 201.367 181.175 201.045 180.982 201.013Z" fill="#444763"/>
<path d="M150.619 195.286C148.783 196.081 147.016 197.028 145.338 198.117C143.629 199.139 141.996 200.281 140.449 201.535C140.41 201.574 140.449 201.625 140.507 201.606C142.3 200.774 144.022 199.742 145.731 198.749C147.46 197.775 149.129 196.699 150.729 195.525C150.839 195.447 150.774 195.228 150.619 195.286Z" fill="#444763"/>
<path d="M131.027 161.441C134.542 173.378 141.185 187.547 143.784 189.759C147.073 192.545 167.974 196.762 169.006 196.807C171.586 196.911 175.545 178.318 172.811 178.105C168.658 177.763 153.638 177.86 152.683 176.989C151.729 176.119 144.893 168.502 137.85 159.893C132.981 153.921 128.847 154.031 131.027 161.441Z" fill="#D3766A"/>
<path d="M166.91 195.95C169.326 197.005 171.813 197.888 174.352 198.594C176.371 199.045 182.214 200.2 182.936 198.026C183.426 196.543 180.073 195.447 177.719 194.647C176.474 194.215 174.907 193.041 175.217 192.242C175.758 190.842 178.957 192.016 181.079 193.086C185.181 195.144 190.714 198.968 193.01 196.814C193.88 195.995 192.732 194.679 191.075 193.415C193.693 194.841 196.466 195.995 197.466 195.111C197.724 194.888 197.886 194.574 197.919 194.235C197.953 193.895 197.855 193.556 197.647 193.286C197.974 193.418 198.333 193.448 198.678 193.373C199.023 193.298 199.338 193.122 199.581 192.867C200.349 191.958 199.878 190.713 198.898 189.469C199.052 189.444 199.197 189.382 199.322 189.289C199.446 189.196 199.547 189.074 199.614 188.933C201.187 186.186 192.036 179.111 188.992 178.582C182.951 177.647 176.818 177.443 170.728 177.976C167.433 180.962 166.904 195.943 166.91 195.95Z" fill="#D3766A"/>
<path d="M179.414 187.018C181.541 187.227 183.599 187.886 185.451 188.953C187.785 190.3 189.378 191.938 191.364 193.57C191.375 193.579 191.383 193.591 191.385 193.605C191.386 193.619 191.383 193.633 191.374 193.644C191.365 193.655 191.353 193.663 191.339 193.664C191.325 193.666 191.311 193.662 191.3 193.654C190.352 192.88 186.45 189.984 185.444 189.34C183.631 188.136 181.566 187.364 179.408 187.082L179.414 187.018Z" fill="#444763"/>
<path d="M180.859 183.168C183.256 183.572 185.605 184.22 187.87 185.103C190.301 186.16 192.268 188.011 194.196 189.785C195.357 190.855 196.499 191.945 197.608 193.061C197.653 193.106 197.608 193.19 197.543 193.145C195.578 191.305 193.562 189.527 191.494 187.811C189.583 186.207 187.374 184.997 184.993 184.251C183.633 183.826 182.246 183.503 180.853 183.181C180.801 183.2 180.808 183.162 180.859 183.168Z" fill="#444763"/>
<path d="M183.117 179.737C185.406 180.059 187.399 180.337 189.469 181.427C191.816 182.778 193.983 184.421 195.919 186.315C196.97 187.308 197.989 188.34 198.995 189.385C199.033 189.43 198.963 189.501 198.924 189.462C196.629 187.172 194.189 185.033 191.617 183.058C190.409 182.096 189.058 181.33 187.612 180.788C186.155 180.313 184.66 179.966 183.143 179.75C183.143 179.75 183.111 179.73 183.117 179.737Z" fill="#444763"/>
<path d="M169.251 177.312L164.143 197.736C164.143 197.736 146.731 193.867 143.384 190.707C140.036 187.547 133.213 170.444 131.001 162.098C128.789 153.753 133.071 153.715 137.321 158.79C141.571 163.866 152.154 176.203 152.696 176.441C153.238 176.68 169.251 177.312 169.251 177.312Z" fill="#4B4E6D"/>
<path d="M161.976 188.933C162.621 186.528 163.266 184.122 163.775 181.691C164.078 180.304 164.388 178.924 164.678 177.538C164.678 177.486 164.601 177.46 164.588 177.538C163.866 179.93 163.15 182.336 162.537 184.761C161.924 187.185 161.299 189.585 160.725 192.003C160.396 193.383 160.112 194.763 159.867 196.163C159.867 196.163 159.906 196.201 159.919 196.163C160.718 193.776 161.35 191.358 161.976 188.933Z" fill="#444763"/>
<path d="M162.04 177.17C162.048 177.63 162.02 178.089 161.956 178.544C161.886 178.998 161.776 179.444 161.627 179.879C161.324 180.749 160.877 181.562 160.305 182.284C159.741 183.018 159.015 183.612 158.184 184.019C157.353 184.413 156.465 184.669 155.552 184.78C154.783 184.884 154.007 184.927 153.231 184.909H152.811C151.902 184.909 150.993 184.812 150.084 184.735C148.274 184.521 146.455 184.401 144.634 184.374C143.728 184.374 142.825 184.495 141.951 184.735C141.296 184.918 140.686 185.235 140.158 185.664L140.12 185.586C140.652 185.155 141.266 184.837 141.925 184.651C142.807 184.405 143.718 184.279 144.634 184.277C146.458 184.296 148.279 184.412 150.09 184.625C150.999 184.703 151.909 184.774 152.818 184.793H153.379C154.099 184.8 154.819 184.754 155.533 184.658C156.428 184.547 157.299 184.292 158.113 183.903C158.941 183.511 159.664 182.928 160.222 182.201C160.778 181.487 161.213 180.688 161.511 179.834C161.801 178.976 161.939 178.075 161.918 177.17C161.921 177.114 161.921 177.058 161.918 177.003H162.06C162.057 177.059 162.05 177.115 162.04 177.17ZM156.604 176.777V176.745H156.475C156.478 176.76 156.478 176.775 156.475 176.79C156.536 177.694 156.478 178.603 156.3 179.492C155.901 181.269 155.037 182.909 153.798 184.245C153.612 184.44 153.416 184.625 153.211 184.8C153.167 184.842 153.12 184.881 153.069 184.916C152.626 185.281 152.146 185.601 151.638 185.87C150.828 186.285 149.979 186.618 149.103 186.863C147.325 187.27 145.579 187.807 143.879 188.469C143.326 188.719 142.799 189.023 142.306 189.378C142.324 189.398 142.339 189.42 142.351 189.443C142.841 189.091 143.366 188.791 143.918 188.546C145.614 187.889 147.355 187.356 149.129 186.954C150.02 186.709 150.884 186.376 151.709 185.96C152.261 185.673 152.779 185.323 153.25 184.916C153.304 184.883 153.353 184.844 153.398 184.8C153.575 184.645 153.742 184.484 153.901 184.316C154.533 183.651 155.067 182.899 155.488 182.084C155.926 181.275 156.245 180.406 156.436 179.505C156.616 178.607 156.673 177.69 156.604 176.777Z" fill="white"/>
<path opacity="0.1" d="M164.672 195.679L164.162 197.71C164.162 197.71 146.75 193.841 143.403 190.681C140.055 187.521 133.232 170.418 131.02 162.073C129.401 155.972 131.259 154.301 134.032 155.836C141.752 165.703 156.307 184.374 164.672 195.679Z" fill="black"/>
<path d="M108.197 201.27C109.487 201.76 147.414 192.835 147.414 192.835L143.654 179.633C143.654 179.633 146.047 175.57 145.234 171.501C144.157 166.071 134.67 156.752 133.922 156.197C130.891 153.959 128.118 153.527 125.48 154.772C114.381 159.97 108.197 201.27 108.197 201.27Z" fill="#4B4E6D"/>
<path d="M143.822 168.064L143.88 168.174H143.603H143.454C143.188 168.157 142.921 168.157 142.655 168.174C141.748 168.23 140.853 168.414 139.998 168.722C139.139 169.009 138.326 169.419 137.586 169.941C136.846 170.469 136.18 171.093 135.606 171.798C135.036 172.505 134.519 173.253 134.058 174.036C133.587 174.81 133.142 175.609 132.665 176.383C132.194 177.17 131.652 177.913 131.046 178.602C130.737 178.94 130.403 179.255 130.047 179.543C129.687 179.832 129.301 180.084 128.892 180.298C128.085 180.723 127.214 181.013 126.313 181.156C125.399 181.306 124.464 181.244 123.578 180.975C122.702 180.697 121.876 180.279 121.134 179.737C120.507 179.287 119.914 178.791 119.361 178.253L119.245 178.137L119.051 177.957C118.406 177.312 117.761 176.667 117.174 175.964C116.355 175.055 115.562 174.126 114.717 173.243C114.731 173.205 114.742 173.166 114.749 173.126C115.614 174.023 116.426 174.964 117.258 175.887C117.864 176.564 118.484 177.235 119.128 177.873L119.419 178.144L119.535 178.26C120.059 178.756 120.617 179.216 121.205 179.634C121.937 180.168 122.752 180.58 123.617 180.852C124.482 181.114 125.396 181.171 126.287 181.02C127.187 180.881 128.059 180.596 128.867 180.175C129.661 179.742 130.376 179.177 130.982 178.505C131.585 177.826 132.122 177.092 132.588 176.312C133.065 175.538 133.51 174.745 133.987 173.965C134.452 173.178 134.976 172.428 135.554 171.721C136.132 171.008 136.805 170.379 137.554 169.85C139.081 168.801 140.864 168.186 142.713 168.07C142.945 168.07 143.177 168.07 143.409 168.07H143.59L143.822 168.064ZM144.177 168.709L143.796 168.322L143.603 168.135L143.493 168.025C142.939 167.486 142.344 166.99 141.713 166.542C140.972 165.998 140.146 165.58 139.269 165.304C138.384 165.031 137.448 164.97 136.535 165.123C135.634 165.266 134.763 165.554 133.955 165.974C133.549 166.193 133.163 166.445 132.801 166.729C132.444 167.02 132.11 167.337 131.801 167.677C131.195 168.364 130.654 169.104 130.182 169.889C129.705 170.669 129.26 171.463 128.789 172.243C128.328 173.025 127.81 173.773 127.241 174.481C126.666 175.18 126.003 175.802 125.268 176.332C124.523 176.852 123.709 177.264 122.85 177.557C121.994 177.862 121.099 178.045 120.193 178.099C119.924 178.118 119.655 178.118 119.386 178.099C119.329 178.105 119.27 178.105 119.212 178.099C118.635 178.064 118.062 177.971 117.503 177.821C116.632 177.57 115.787 177.233 114.982 176.815C114.575 176.609 114.169 176.396 113.769 176.17C113.766 176.2 113.766 176.231 113.769 176.261C114.163 176.474 114.562 176.693 114.962 176.906C115.772 177.332 116.624 177.673 117.503 177.925C118.108 178.087 118.729 178.187 119.354 178.221H119.528C119.76 178.221 119.993 178.221 120.225 178.221C121.142 178.162 122.047 177.978 122.914 177.673C123.783 177.38 124.606 176.966 125.358 176.441C126.105 175.907 126.779 175.279 127.364 174.571C127.939 173.86 128.46 173.108 128.925 172.32C129.402 171.54 129.847 170.747 130.324 169.973C130.795 169.197 131.333 168.464 131.93 167.78C132.539 167.11 133.256 166.548 134.052 166.116C134.859 165.693 135.731 165.405 136.631 165.265C137.523 165.119 138.436 165.179 139.301 165.439C140.165 165.71 140.98 166.12 141.713 166.652C142.302 167.072 142.86 167.533 143.384 168.032L143.493 168.141L143.79 168.419C144.003 168.625 144.209 168.838 144.435 169.063C144.39 168.954 144.332 168.844 144.28 168.741L144.177 168.709Z" fill="white"/>
<path d="M138.811 161.125C139.72 162.298 140.701 163.414 141.636 164.562C141.217 163.717 140.797 162.879 140.346 162.053C141.029 163.032 141.614 164.075 142.094 165.168C142.798 166.036 143.444 166.95 144.028 167.903C144.744 169.04 145.257 170.292 145.544 171.604C145.787 172.933 145.759 174.298 145.46 175.616C145.097 177.126 144.598 178.6 143.97 180.02C143.893 180.214 143.622 180.079 143.687 179.891C144.519 177.389 145.447 174.732 145.015 172.082C144.583 169.431 143.08 167.142 141.584 164.988C140.713 163.668 139.759 162.406 138.727 161.208C138.689 161.137 138.772 161.073 138.811 161.125Z" fill="#444763"/>
<path d="M121.83 157.165C114.265 162.969 94.3184 186.527 98.4845 192.112C102.651 197.697 131.233 195.84 139.572 193.402C142.055 192.686 135.702 176.905 133.039 176.125C130.84 175.48 118.464 178.834 118.245 178.111C118.025 177.389 120.727 172.088 125.152 162.55C130.246 151.586 125.177 154.598 121.83 157.165Z" fill="#D3766A"/>
<path d="M145.234 173.417C150.948 173.565 152.392 174.481 157.281 172.043C160.505 170.444 162.892 171.805 160.712 174.829C157.145 179.782 149.748 181.143 147.02 180.872L145.234 173.417Z" fill="#D3766A"/>
<path d="M129.498 176.332C129.498 176.332 136.353 173.881 142.461 173.436C146.685 173.127 155.946 173.481 163.15 183.871C164.859 186.334 165.542 191.055 161.292 188.044C158.274 185.902 157.004 183.639 155.024 182.71C155.024 182.71 155.178 188.824 152.644 190.449C150.427 191.861 148.113 193.113 145.718 194.196C145.419 193.803 145.145 193.392 144.899 192.964C144.899 192.964 142.39 194.254 138.243 193.151L129.498 176.332Z" fill="#D3766A"/>
<path d="M146.537 173.797C148.317 175.132 152.025 178.021 154.276 181.439C156.733 185.244 160.448 193.222 157.63 194.982C155.56 196.272 153.87 193.37 153.87 193.37C153.87 193.37 154.708 196.995 152.58 197.768C150.645 198.478 149.472 196.137 149.472 196.137C149.472 196.137 149.607 198.42 147.601 198.716C145.196 199.103 145.318 194.247 142.545 192.532C141.887 192.203 146.537 173.797 146.537 173.797Z" fill="#D3766A"/>
<path d="M149.794 183.374C152.137 186.196 153.563 189.665 153.882 193.319C153.882 193.409 153.818 193.461 153.798 193.377C152.858 189.908 151.501 186.567 149.755 183.426L149.794 183.374Z" fill="#444763"/>
<path d="M146.035 185.966C147.157 187.417 149.466 191.983 149.517 196.137C149.517 196.227 149.446 196.278 149.433 196.195C148.675 192.68 147.522 189.261 145.996 186.005C145.996 186.005 146.035 185.947 146.035 185.966Z" fill="#444763"/>
<path d="M155.063 182.69C156.791 183.522 157.829 184.625 159.19 185.915C159.854 186.581 160.556 187.207 161.292 187.791C161.937 188.314 162.956 189.081 163.872 188.604C164.089 188.44 164.257 188.22 164.359 187.968C164.461 187.716 164.494 187.441 164.452 187.172C164.359 186.397 164.142 185.641 163.808 184.935C163.808 184.935 163.84 184.883 163.853 184.935C164.189 185.581 164.455 186.262 164.646 186.966C164.768 187.444 164.743 187.947 164.575 188.411C164.143 189.372 162.937 189.307 162.144 188.894C161.672 188.629 161.229 188.315 160.822 187.959C160.422 187.637 160.041 187.314 159.667 186.934C158.893 186.205 158.171 185.438 157.41 184.696C156.664 184.006 155.878 183.36 155.056 182.761C154.959 182.722 154.992 182.671 155.063 182.69Z" fill="#444763"/>
<path d="M157.785 189.727C157.001 187.335 156.067 184.996 154.986 182.723C154.986 182.723 154.986 182.671 155.031 182.723C156.384 184.835 157.467 187.107 158.256 189.488C158.692 190.782 158.861 192.151 158.752 193.512C158.436 195.415 157.114 195.57 156.637 195.582C156.065 195.585 155.51 195.391 155.063 195.034C154.544 194.585 154.122 194.034 153.825 193.415C153.825 193.383 153.825 193.357 153.87 193.383C154.406 194.241 155.379 195.163 156.45 195.202C156.684 195.218 156.918 195.186 157.14 195.11C157.361 195.034 157.565 194.913 157.74 194.757C158.097 194.347 158.296 193.823 158.301 193.28C158.332 192.075 158.157 190.873 157.785 189.727Z" fill="#444763"/>
<path d="M129.498 176.332L135.238 196.324C135.238 196.324 99.5031 198.362 97.5232 191.874C95.5434 185.386 112.808 164.143 119.973 158.287C128.266 151.522 128.711 154.366 126.015 161.131C123.184 168.225 118.315 178.331 118.315 178.331L129.498 176.332Z" fill="#4B4E6D"/>
<path d="M119.954 174.874L119.896 175.003C119.681 175.016 119.466 175.016 119.251 175.003C118.334 174.925 117.436 174.696 116.594 174.326C115.883 174.022 115.196 173.666 114.537 173.262L114.395 173.178L114.175 173.043C113.402 172.559 112.653 172.037 111.912 171.501C111.048 170.856 110.19 170.244 109.332 169.638L109.397 169.56C110.274 170.16 111.131 170.798 111.976 171.411C112.718 171.94 113.466 172.462 114.233 172.939L114.575 173.146L114.717 173.23C115.337 173.606 115.983 173.936 116.652 174.216C117.485 174.57 118.369 174.788 119.27 174.861C119.498 174.878 119.726 174.883 119.954 174.874ZM125.216 159.125C124.928 159.484 124.669 159.866 124.442 160.267C123.998 161.067 123.631 161.907 123.346 162.776C123.043 163.64 122.785 164.517 122.495 165.355C122.214 166.22 121.869 167.063 121.463 167.877C121.055 168.686 120.544 169.438 119.941 170.115C119.327 170.783 118.621 171.361 117.845 171.83C117.077 172.313 116.246 172.686 115.375 172.939C115.115 173.016 114.85 173.074 114.582 173.114C114.522 173.12 114.461 173.12 114.401 173.114C113.834 173.207 113.259 173.239 112.686 173.21C111.779 173.157 110.88 173.012 110.003 172.778C109.119 172.553 108.242 172.282 107.365 172.049L107.307 172.12C108.197 172.365 109.081 172.643 109.977 172.869C110.86 173.108 111.766 173.255 112.679 173.307C113.303 173.338 113.928 173.302 114.543 173.197L114.724 173.165C114.952 173.126 115.178 173.074 115.401 173.01C117.169 172.49 118.766 171.506 120.025 170.16C120.64 169.481 121.161 168.721 121.573 167.903C121.981 167.084 122.33 166.237 122.617 165.368C122.908 164.504 123.172 163.627 123.475 162.789C123.758 161.928 124.123 161.097 124.565 160.306C125.01 159.517 125.585 158.811 126.268 158.216C126.568 157.958 126.889 157.725 127.228 157.52C127.228 157.449 127.228 157.391 127.274 157.326C126.886 157.554 126.519 157.815 126.177 158.107C125.828 158.418 125.507 158.759 125.216 159.125ZM128.473 176.538H128.428C128.48 176.936 128.505 177.337 128.505 177.738C128.505 177.989 128.505 178.234 128.505 178.486C128.505 178.486 128.505 178.544 128.505 178.576C128.455 179.203 128.349 179.825 128.189 180.433C127.966 181.315 127.621 182.162 127.164 182.948C126.702 183.732 126.124 184.441 125.448 185.051C124.036 186.199 122.545 187.247 120.986 188.185C120.223 188.689 119.514 189.271 118.87 189.92C118.434 190.368 118.047 190.861 117.716 191.39L117.619 191.552C117.503 191.752 117.394 191.951 117.297 192.158C116.664 193.522 116.332 195.007 116.323 196.511H116.439C116.44 195.936 116.49 195.362 116.587 194.796C116.731 193.902 117 193.034 117.387 192.216C117.503 191.975 117.633 191.74 117.774 191.513C117.802 191.457 117.836 191.405 117.877 191.358C118.184 190.871 118.54 190.417 118.941 190.004C119.578 189.357 120.281 188.778 121.037 188.275C122.533 187.244 124.159 186.373 125.507 185.122C126.184 184.505 126.764 183.79 127.228 183C127.688 182.208 128.033 181.354 128.254 180.466C128.404 179.875 128.504 179.273 128.55 178.666C128.55 178.634 128.55 178.602 128.55 178.576C128.55 178.299 128.55 178.028 128.55 177.751C128.548 177.341 128.522 176.932 128.473 176.525V176.538ZM130.704 183.374C130.594 182.467 130.307 181.591 129.86 180.794C129.46 180.033 128.989 179.318 128.531 178.595L128.48 178.518C128.105 177.945 127.765 177.351 127.461 176.738H127.422C127.734 177.38 128.085 178.002 128.473 178.602L128.518 178.679C128.963 179.382 129.421 180.085 129.808 180.82C130.248 181.619 130.528 182.495 130.634 183.4C130.715 184.305 130.571 185.215 130.214 186.051C129.841 186.881 129.24 187.588 128.48 188.088C127.721 188.575 126.901 188.959 126.042 189.23C124.305 189.768 122.542 190.217 120.76 190.578C119.87 190.784 118.98 190.997 118.109 191.261L117.858 191.339L117.697 191.384C116.96 191.612 116.24 191.892 115.543 192.222C114.709 192.612 113.945 193.135 113.279 193.77C112.613 194.412 112.105 195.201 111.796 196.072L111.738 196.247H111.88C111.892 196.198 111.907 196.151 111.925 196.105C112.227 195.251 112.721 194.479 113.369 193.847C114.024 193.223 114.775 192.709 115.594 192.325C116.243 192.014 116.913 191.749 117.6 191.532C117.649 191.509 117.701 191.492 117.755 191.481L118.142 191.358C119.012 191.1 119.896 190.881 120.779 190.675C122.566 190.309 124.334 189.853 126.074 189.307C126.945 189.019 127.774 188.616 128.538 188.108C129.31 187.597 129.92 186.877 130.298 186.031C130.651 185.188 130.79 184.271 130.704 183.361V183.374Z" fill="white"/>
<path d="M107.024 181.536C108.809 180.698 110.651 179.989 112.538 179.414C114.405 178.856 116.31 178.436 118.239 178.156C119.335 177.982 120.438 177.866 121.541 177.744C121.579 177.744 121.579 177.789 121.541 177.795C119.604 178.087 117.685 178.49 115.794 179.001C113.911 179.491 112.041 180.016 110.184 180.575C109.126 180.891 108.088 181.258 107.049 181.613C107.041 181.612 107.033 181.609 107.026 181.603C107.02 181.598 107.015 181.591 107.012 181.583C107.009 181.574 107.009 181.566 107.011 181.557C107.013 181.549 107.017 181.542 107.024 181.536Z" fill="#444763"/>
<path d="M129.415 176.274C129.234 176.274 119.296 177.841 118.961 177.938C119.025 177.802 121.54 173.068 121.921 172.378C121.96 172.307 121.992 172.237 122.031 172.172C122.256 171.869 122.482 171.572 122.675 171.269L123.494 170.076L122.63 171.224C122.493 171.405 122.364 171.585 122.243 171.766C122.495 171.276 122.74 170.785 122.985 170.289C123.378 169.496 123.74 168.696 124.107 167.896C124.107 167.896 124.075 167.851 124.062 167.896C123.32 169.276 122.54 170.631 121.792 172.004C121.044 173.378 118.219 178.453 118.232 178.453C118.245 178.453 129.195 176.519 129.434 176.461C129.459 176.458 129.482 176.446 129.497 176.426C129.513 176.407 129.52 176.382 129.518 176.358C129.515 176.333 129.503 176.31 129.484 176.294C129.464 176.278 129.44 176.271 129.415 176.274Z" fill="#444763"/>
<path d="M128.047 188.469C127.402 186.237 126.809 184.006 126.113 181.8C125.713 180.51 125.313 179.291 124.9 178.04C124.9 177.995 124.803 178.04 124.81 178.04C125.352 180.304 125.9 182.555 126.545 184.805C127.19 187.056 127.835 189.262 128.479 191.48C128.858 192.744 129.288 193.991 129.769 195.221C129.769 195.221 129.821 195.221 129.814 195.221C129.305 192.951 128.679 190.713 128.047 188.469Z" fill="#444763"/>
<path d="M135.638 196.692C135.387 196.047 135.084 195.17 134.806 194.557C134.735 194.389 134.619 194.402 134.671 194.557C134.845 195.118 134.968 195.737 135.142 196.311C134.639 196.311 134.142 196.311 133.639 196.356L131.904 196.427C130.776 196.473 129.641 196.505 128.512 196.531C126.216 196.569 123.922 196.569 121.631 196.531C117.03 196.444 112.436 196.121 107.868 195.563C106.579 195.396 105.289 195.209 104.051 194.983C102.8 194.779 101.56 194.512 100.336 194.183C100.336 194.183 100.284 194.228 100.336 194.241C101.372 194.647 102.44 194.968 103.528 195.202C104.663 195.447 105.811 195.666 106.966 195.847C109.261 196.202 111.57 196.434 113.885 196.602C118.477 196.928 123.078 197.066 127.687 197.014C128.976 197.014 130.266 196.986 131.556 196.93L133.491 196.853C134.21 196.862 134.929 196.808 135.638 196.692Z" fill="#444763"/>
<path d="M128.621 155.462C128.621 156.159 130.807 161.157 133.858 161.699C134.851 161.873 136.044 156.494 136.044 156.494L136.225 156.114L138.72 150.838L132.323 144.389C132.323 144.389 128.621 155.172 128.621 155.462Z" fill="#D3766A"/>
<path d="M138.701 150.832L136.206 156.114C134.832 155.211 133.662 154.03 132.774 152.647C131.885 151.264 131.296 149.71 131.046 148.085C131.691 146.215 132.214 144.66 132.285 144.435C132.287 144.424 132.287 144.413 132.285 144.402L133.11 145.17L138.701 150.832Z" fill="#444763"/>
<path d="M148.974 144.912C147.542 155.056 141.3 155.346 139.113 155.037C137.127 154.753 130.401 153.534 130.781 143.293C131.162 133.052 136.327 130.511 140.906 130.917C145.485 131.323 150.412 134.761 148.974 144.912Z" fill="#D3766A"/>
<path d="M147.737 143.809C147.505 143.731 147.312 143.622 147.092 143.525C146.85 143.454 146.638 143.307 146.486 143.106C146.452 143.032 146.442 142.949 146.46 142.87C146.477 142.791 146.521 142.719 146.583 142.667C146.722 142.586 146.88 142.543 147.041 142.543C147.202 142.543 147.36 142.586 147.499 142.667C147.81 142.785 148.065 143.015 148.215 143.312C148.238 143.379 148.242 143.452 148.227 143.521C148.211 143.591 148.177 143.655 148.128 143.706C148.078 143.758 148.016 143.794 147.947 143.812C147.878 143.83 147.806 143.829 147.737 143.809Z" fill="#444763"/>
<path d="M140.907 142.455C141.145 142.455 141.371 142.455 141.616 142.455C141.865 142.489 142.118 142.441 142.338 142.319C142.399 142.266 142.44 142.194 142.456 142.115C142.473 142.036 142.463 141.954 142.429 141.881C142.338 141.748 142.214 141.641 142.069 141.572C141.924 141.503 141.763 141.473 141.603 141.487C141.272 141.468 140.946 141.571 140.687 141.777C140.633 141.829 140.594 141.894 140.575 141.966C140.557 142.039 140.559 142.115 140.582 142.186C140.605 142.257 140.648 142.32 140.705 142.367C140.763 142.415 140.833 142.445 140.907 142.455Z" fill="#444763"/>
<path d="M142.235 144.228C142.235 144.228 142.177 144.228 142.171 144.28C142.067 144.97 141.822 145.744 141.165 145.853V145.892C141.938 145.931 142.248 144.899 142.235 144.228Z" fill="#444763"/>
<path d="M141.758 143.396C140.674 143.106 140.171 145.331 141.177 145.576C142.184 145.821 142.674 143.641 141.758 143.396Z" fill="#444763"/>
<path d="M141.301 143.441C141.082 143.518 140.843 143.699 140.611 143.667C140.379 143.635 140.185 143.357 140.063 143.093C140.063 143.093 140.024 143.093 140.018 143.093C139.937 143.286 139.934 143.502 140.009 143.698C140.083 143.893 140.229 144.053 140.417 144.144C140.811 144.299 141.191 143.996 141.398 143.596C141.436 143.512 141.391 143.383 141.301 143.441Z" fill="#444763"/>
<path d="M146.034 144.925C146.034 144.925 146.079 144.97 146.073 144.996C145.892 145.64 145.795 146.472 146.356 146.846C146.356 146.846 146.356 146.892 146.356 146.879C145.589 146.595 145.724 145.531 146.034 144.925Z" fill="#444763"/>
<path d="M146.782 144.357C147.897 144.538 147.427 146.75 146.427 146.582C145.427 146.414 145.853 144.209 146.782 144.357Z" fill="#444763"/>
<path d="M147.214 144.596C147.369 144.75 147.498 144.995 147.705 145.047C147.911 145.099 148.169 144.912 148.35 144.712H148.382C148.311 145.131 148.079 145.544 147.659 145.55C147.24 145.556 147.073 145.131 147.053 144.692C147.073 144.641 147.156 144.538 147.214 144.596Z" fill="#444763"/>
<path d="M140.714 150.167C140.83 150.374 140.926 150.632 141.165 150.722C141.42 150.777 141.684 150.777 141.939 150.722C141.939 150.722 141.978 150.722 141.939 150.761C141.807 150.867 141.648 150.936 141.48 150.958C141.311 150.981 141.14 150.957 140.984 150.89C140.857 150.816 140.754 150.706 140.689 150.574C140.623 150.442 140.598 150.294 140.617 150.148C140.636 150.141 140.694 150.141 140.714 150.167Z" fill="#444763"/>
<path d="M144.202 148.271C144.202 148.271 144.118 149.323 144.015 149.806C144.015 149.851 143.886 149.845 143.718 149.806C143.29 149.792 142.874 149.66 142.515 149.424C142.157 149.189 141.87 148.859 141.687 148.471C141.687 148.42 141.739 148.381 141.771 148.42C142.286 148.969 142.964 149.338 143.706 149.471C143.77 149.348 143.789 147.672 143.867 147.685C144.232 147.797 144.579 147.96 144.899 148.168C145.131 145.988 145.015 143.789 145.279 141.622C145.279 141.605 145.286 141.589 145.298 141.577C145.31 141.565 145.327 141.558 145.344 141.558C145.361 141.558 145.377 141.565 145.389 141.577C145.401 141.589 145.408 141.605 145.408 141.622C145.611 143.985 145.577 146.361 145.305 148.716C145.286 148.974 144.376 148.4 144.202 148.271Z" fill="#444763"/>
<path d="M143.454 149.587C143.117 149.886 142.708 150.092 142.268 150.187C142.026 150.234 141.775 150.202 141.552 150.097C141.062 149.864 141.139 149.394 141.313 149.007C141.407 148.805 141.524 148.614 141.662 148.439C142.121 149.004 142.749 149.406 143.454 149.587Z" fill="#444763"/>
<path d="M142.293 150.187C142.051 150.234 141.8 150.203 141.577 150.097C141.087 149.865 141.165 149.394 141.339 149.007C141.607 149.069 141.846 149.219 142.019 149.433C142.192 149.647 142.289 149.912 142.293 150.187Z" fill="#FF9BBC"/>
<path d="M130.653 143.835C131.371 143.711 132.045 143.403 132.61 142.942C133.175 142.482 133.612 141.883 133.877 141.204C135.824 140.961 137.672 140.204 139.23 139.011C139.101 139.192 138.192 140.52 137.708 141.178C144.305 141.868 147.659 137.657 147.659 137.657C148.527 139.111 149.056 140.742 149.207 142.429C149.207 142.429 150.393 138.611 149.207 135.457C148.833 134.375 148.178 133.411 147.309 132.665C146.44 131.919 145.387 131.418 144.26 131.214C142.826 130.381 141.195 129.95 139.537 129.966C137.879 129.982 136.256 130.444 134.838 131.304C129.472 134.522 130.653 143.835 130.653 143.835Z" fill="#444763"/>
<path d="M142.81 141.558C141.643 141.807 140.445 141.883 139.256 141.784C141.157 141.829 143.031 141.339 144.667 140.371C145.372 139.961 146.022 139.462 146.602 138.888C147.252 138.286 147.776 137.56 148.143 136.753C148.147 136.742 148.156 136.732 148.168 136.726C148.174 136.724 148.18 136.722 148.186 136.722C148.192 136.721 148.199 136.722 148.204 136.724C148.21 136.727 148.216 136.73 148.221 136.734C148.225 136.738 148.229 136.743 148.232 136.749C148.234 136.755 148.236 136.761 148.236 136.767C148.237 136.774 148.236 136.78 148.234 136.786C147.958 137.623 147.544 138.408 147.008 139.107C146.446 139.777 145.766 140.338 145.002 140.765C144.321 141.135 143.592 141.408 142.836 141.577" fill="#444763"/>
<path d="M132.284 144.299C132.284 144.299 130.82 140.681 129.227 141.132C127.634 141.584 128.228 146.479 129.75 147.478C129.936 147.62 130.148 147.722 130.374 147.779C130.601 147.836 130.836 147.847 131.067 147.81C131.298 147.774 131.518 147.692 131.717 147.568C131.915 147.445 132.086 147.283 132.22 147.091L132.284 144.299Z" fill="#D3766A"/>
<path d="M129.434 142.532C129.434 142.532 129.395 142.532 129.434 142.571C130.492 143.312 130.853 144.505 131.021 145.75C130.98 145.618 130.911 145.496 130.819 145.394C130.726 145.291 130.613 145.209 130.486 145.155C130.359 145.1 130.222 145.074 130.083 145.078C129.945 145.081 129.81 145.115 129.686 145.176C129.653 145.176 129.686 145.247 129.686 145.247C129.907 145.23 130.129 145.283 130.319 145.398C130.509 145.514 130.657 145.687 130.743 145.892C130.894 146.229 131.006 146.581 131.079 146.943C131.111 147.059 131.311 147.046 131.298 146.943V146.911C131.666 145.376 130.995 143.048 129.434 142.532Z" fill="#444763"/>
<path d="M185.264 200.974H143.067V202.864H185.264V200.974Z" fill="#C7C7C7"/>
<path d="M185.265 200.974V202.864H156.585L158.03 200.974H185.265Z" fill="#A6A6A6"/>
<path d="M159.848 202.863H200.974L204.398 174.932H163.272L159.848 202.863Z" fill="#C7C7C7"/>
<path d="M179.62 188.901C179.613 189.228 179.672 189.553 179.792 189.856C179.913 190.16 180.093 190.437 180.322 190.67C180.551 190.903 180.824 191.088 181.125 191.214C181.427 191.34 181.751 191.404 182.077 191.403C182.743 191.395 183.379 191.131 183.854 190.664C184.329 190.198 184.605 189.566 184.625 188.901C184.632 188.574 184.575 188.249 184.454 187.945C184.334 187.641 184.154 187.364 183.925 187.131C183.696 186.897 183.422 186.712 183.121 186.587C182.819 186.461 182.495 186.397 182.168 186.399C181.502 186.407 180.866 186.672 180.391 187.138C179.916 187.604 179.64 188.236 179.62 188.901Z" fill="white"/>
<path d="M187.475 124.932C187.18 127.768 186.102 130.466 184.362 132.725C182.622 134.984 180.289 136.714 177.623 137.724C174.956 138.733 172.062 138.982 169.262 138.441C166.463 137.901 163.868 136.593 161.769 134.664L154.069 135.799L157.938 129.144C157.054 126.977 156.675 124.638 156.831 122.304C156.987 119.969 157.673 117.701 158.837 115.671C160.001 113.641 161.613 111.904 163.55 110.591C165.486 109.278 167.697 108.424 170.013 108.094C172.33 107.764 174.691 107.966 176.917 108.686C179.144 109.406 181.177 110.624 182.861 112.247C184.546 113.871 185.839 115.857 186.641 118.055C187.442 120.253 187.732 122.605 187.488 124.932H187.475Z" fill="white"/>
<path d="M182.987 112.112C180.413 109.609 177.06 108.063 173.485 107.732C169.91 107.401 166.329 108.304 163.339 110.291C160.349 112.278 158.13 115.23 157.051 118.654C155.972 122.079 156.099 125.769 157.41 129.112L153.412 136.07C153.398 136.097 153.39 136.127 153.39 136.157C153.39 136.188 153.398 136.217 153.412 136.244C153.429 136.27 153.454 136.29 153.482 136.301C153.511 136.313 153.543 136.315 153.573 136.309L161.647 135.058C163.784 136.95 166.398 138.221 169.206 138.734C169.912 138.865 170.628 138.94 171.347 138.959C171.566 138.959 171.785 138.959 171.992 138.959C172.378 138.959 172.759 138.959 173.133 138.914H173.514C174.947 138.784 176.354 138.45 177.693 137.921C179.033 137.406 180.295 136.705 181.439 135.838C181.86 135.537 182.258 135.207 182.633 134.851L183.09 134.432L183.516 133.974C183.87 133.615 184.195 133.229 184.49 132.82C186.246 130.534 187.333 127.806 187.631 124.939C187.87 122.589 187.576 120.216 186.773 117.996C185.969 115.775 184.675 113.764 182.987 112.112ZM187.308 124.92C187.003 127.722 185.922 130.385 184.187 132.607C183.895 133.001 183.576 133.374 183.232 133.723C183.084 133.871 182.942 134.026 182.813 134.168L182.362 134.567C181.997 134.913 181.607 135.23 181.194 135.516C180.076 136.353 178.839 137.02 177.525 137.495C176.22 137.977 174.855 138.279 173.468 138.392H173.094C172.521 138.434 171.946 138.434 171.372 138.392C170.681 138.364 169.993 138.28 169.315 138.14C166.586 137.602 164.061 136.311 162.028 134.413L161.957 134.342C161.926 134.315 161.888 134.299 161.847 134.297L154.921 135.27L158.423 129.273C158.434 129.251 158.44 129.227 158.44 129.202C158.44 129.177 158.434 129.153 158.423 129.131L158.371 128.995C157.526 126.893 157.16 124.628 157.3 122.366C157.444 120.097 158.106 117.89 159.235 115.917C160.377 113.949 161.933 112.252 163.795 110.944C165.673 109.651 167.821 108.802 170.076 108.461C172.343 108.118 174.658 108.292 176.848 108.971C180.159 110.022 183.007 112.181 184.912 115.086C186.818 117.991 187.664 121.464 187.308 124.92Z" fill="#444763"/>
<path d="M166.226 123.946C166.227 124.278 166.13 124.602 165.946 124.879C165.763 125.156 165.501 125.372 165.195 125.499C164.889 125.627 164.551 125.661 164.226 125.597C163.9 125.534 163.601 125.374 163.365 125.14C163.13 124.906 162.97 124.607 162.905 124.282C162.84 123.956 162.872 123.619 162.999 123.312C163.126 123.005 163.341 122.743 163.617 122.558C163.892 122.374 164.217 122.275 164.549 122.275C164.992 122.275 165.418 122.451 165.732 122.764C166.046 123.077 166.224 123.502 166.226 123.946Z" fill="#444763"/>
<path d="M172.359 125.616C173.282 125.616 174.03 124.868 174.03 123.946C174.03 123.023 173.282 122.275 172.359 122.275C171.437 122.275 170.689 123.023 170.689 123.946C170.689 124.868 171.437 125.616 172.359 125.616Z" fill="#444763"/>
<path d="M180.169 125.616C181.091 125.616 181.839 124.868 181.839 123.946C181.839 123.023 181.091 122.275 180.169 122.275C179.246 122.275 178.499 123.023 178.499 123.946C178.499 124.868 179.246 125.616 180.169 125.616Z" fill="#444763"/>
</svg>
