<svg width="1244" height="1370" viewBox="0 0 1244 1370" fill="none" xmlns="http://www.w3.org/2000/svg">
<path d="M862 113.5C862 113.5 835.5 113 820 118C808.481 121.716 806.5 127 788.5 127C770.5 127 761 118 761 118C761 118 745.5 62 718.5 38.5C687.674 11.6706 656 0.499961 623 0.5H621C588 0.499961 556.325 11.6706 525.5 38.5C498.5 62 483 118 483 118C483 118 473.5 127 455.5 127C437.5 127 435.518 121.716 424 118C408.5 113 382 113.5 382 113.5V167H293.5C293.5 167 270.683 169.714 260 178.5C251.425 185.552 244 202 244 202V236C236.5 253 220 263.5 220 263.5C220 263.5 149.733 264.888 119 292C89.3691 318.14 77.4425 344.991 78 384.5C78.4366 415.443 105 459 105 459C105 459 0 684.225 0 689.5C-0.00012207 824 78 938.5 240 938.5C461.5 938.5 461.5 689.5 461.5 689.5V1080.5C461.5 1080.5 433.778 1111.2 398 1119C361.179 1127.03 333.394 1100.81 304.5 1125C279.534 1145.9 300.604 1175.56 278 1199C258.366 1219.36 230.155 1205.69 211 1226.5C193.555 1245.45 187.284 1262.77 188.5 1288.5C190.731 1335.72 232 1367 278 1370H617H627H966C1012 1367 1053.27 1335.72 1055.5 1288.5C1056.72 1262.77 1050.44 1245.45 1033 1226.5C1013.84 1205.69 985.633 1219.36 966 1199C943.396 1175.56 964.466 1145.9 939.5 1125C910.605 1100.81 882.821 1127.03 846 1119C810.221 1111.2 779.5 1080.5 779.5 1080.5V689.5C779.5 689.5 779.5 938.5 1024 938.5C1166 938.5 1244 824 1244 689.5C1244 679.5 1139 459 1139 459C1139 459 1165.56 415.443 1166 384.5C1166.56 344.991 1154.63 318.14 1125 292C1094.27 264.888 1024 263.5 1024 263.5C1024 263.5 1007.5 253 1000 236V202C1000 202 992.575 185.552 984 178.5C973.316 169.714 950.5 167 950.5 167H862V113.5Z" fill="#4B4E6D"/>
<path d="M596.421 366.395V313.506C596.421 313.506 481.421 308.867 377.921 361.292C306.421 397.508 283.421 421.14 224.421 421.14C163.421 410.469 176.921 373.818 176.921 370.107C179.921 359.436 187.421 357.58 197.921 357.58C212.921 357.58 214.333 366.859 224.421 366.859C232.921 366.859 237.657 365.346 242.421 361.292C247.509 356.962 247.921 345.518 247.921 345.518C247.921 345.518 250.398 328.852 238.421 316.289C226.017 303.278 207.611 298.11 188.921 299.124C166.866 300.321 153.491 307.794 138.421 322.785C122.766 338.359 118.274 352.127 116.421 373.354C113.717 404.342 124.029 425.326 147.421 447.585C170.262 469.318 191.91 474.817 224.421 478.205C261.001 482.016 283.046 473.587 316.421 459.183C359.421 440.625 362.837 431.259 394.421 416.501C431.179 399.325 452.162 389.25 491.921 379.385C531.698 369.517 596.421 366.395 596.421 366.395Z" fill="#EDEDF0"/>
<path d="M647 366.395V313.506C647 313.506 762 308.867 865.5 361.292C937 397.508 960 421.14 1019 421.14C1080 410.469 1066.5 373.818 1066.5 370.107C1063.5 359.436 1056 357.58 1045.5 357.58C1030.5 357.58 1029.09 366.859 1019 366.859C1010.5 366.859 1005.76 365.346 1001 361.292C995.912 356.962 995.5 345.518 995.5 345.518C995.5 345.518 993.023 328.852 1005 316.289C1017.4 303.278 1035.81 298.11 1054.5 299.124C1076.56 300.321 1089.93 307.794 1105 322.785C1120.66 338.359 1125.15 352.127 1127 373.354C1129.7 404.342 1119.39 425.326 1096 447.585C1073.16 469.318 1051.51 474.817 1019 478.205C982.421 482.016 960.376 473.587 927 459.183C884 440.625 880.585 431.259 849 416.501C812.242 399.325 791.259 389.25 751.5 379.385C711.723 369.517 647 366.395 647 366.395Z" fill="#EDEDF0"/>
<path fill-rule="evenodd" clip-rule="evenodd" d="M596 231.514C554.495 220.122 524 182.122 524 137C524 82.8761 567.876 39 622 39C676.124 39 720 82.8761 720 137C720 182.484 689.014 220.731 647 231.782V168.227C656.145 160.896 662 149.632 662 137C662 114.909 644.091 97 622 97C599.909 97 582 114.909 582 137C582 149.165 587.431 160.062 596 167.398V231.514Z" fill="#EDEDF0"/>
<circle cx="452" cy="168" r="22" fill="#EDEDF0"/>
<circle cx="792" cy="168" r="22" fill="#EDEDF0"/>
<circle cx="452" cy="478" r="22" fill="#EDEDF0"/>
<circle cx="792" cy="478" r="22" fill="#EDEDF0"/>
<circle cx="320" cy="247" r="27" fill="#EDEDF0"/>
<path d="M320 220H425C427.761 220 430 222.239 430 225V269C430 271.761 427.761 274 425 274H320V220Z" fill="#EDEDF0"/>
<circle cx="27" cy="27" r="27" transform="matrix(-1 0 0 1 951 220)" fill="#EDEDF0"/>
<path d="M924 220H819C816.239 220 814 222.239 814 225V269C814 271.761 816.239 274 819 274H924V220Z" fill="#EDEDF0"/>
<ellipse cx="352.923" cy="1186.45" rx="24.9231" ry="27.5496" fill="#EDEDF0"/>
<path d="M352.923 1158.9H593.462C596.223 1158.9 598.462 1161.14 598.462 1163.9V1209C598.462 1211.76 596.223 1214 593.462 1214H352.923V1158.9Z" fill="#EDEDF0"/>
<path d="M548.615 1179.31V417C548.615 414.238 550.854 412 553.615 412H593.461C596.223 412 598.461 414.238 598.461 417V1179.31H548.615Z" fill="#EDEDF0"/>
<ellipse cx="24.9231" cy="27.5496" rx="24.9231" ry="27.5496" transform="matrix(-1 0 0 1 916 1158.9)" fill="#EDEDF0"/>
<path d="M891.077 1158.9H650.538C647.777 1158.9 645.538 1161.14 645.538 1163.9V1209C645.538 1211.76 647.777 1214 650.538 1214H891.077V1158.9Z" fill="#EDEDF0"/>
<path d="M695.385 1179.31V417C695.385 414.238 693.146 412 690.385 412H650.539C647.777 412 645.539 414.238 645.539 417V1179.31H695.385Z" fill="#EDEDF0"/>
<circle cx="265" cy="1282" r="27" fill="#EDEDF0"/>
<circle cx="979" cy="1282" r="27" fill="#EDEDF0"/>
<path d="M265 1255H977C979.761 1255 982 1257.24 982 1260V1304C982 1306.76 979.761 1309 977 1309H265V1255Z" fill="#EDEDF0"/>
<rect x="422" y="510" width="59" height="38" rx="19" fill="#EDEDF0"/>
<rect x="762" y="510" width="59" height="38" rx="19" fill="#EDEDF0"/>
<rect x="418" y="558" width="68" height="38" rx="12" fill="#EDEDF0"/>
<rect x="758" y="558" width="68" height="38" rx="12" fill="#EDEDF0"/>
<path fill-rule="evenodd" clip-rule="evenodd" d="M197.514 427.5H173.711C161.746 427.5 150.925 434.61 146.176 445.592L40.5358 689.869C31.9701 709.676 46.4914 731.777 68.0712 731.777H369.836C391.44 731.777 405.962 709.631 397.35 689.818L291.171 445.541C286.409 434.586 275.602 427.5 263.658 427.5H239.969L342 684H96.0001L197.514 427.5Z" fill="#EDEDF0"/>
<ellipse cx="21.6788" cy="23" rx="21.6788" ry="23" transform="matrix(-1 0 0 1 434 686)" fill="#EDEDF0"/>
<path d="M412.321 686H329C326.239 686 324 688.239 324 691V727C324 729.761 326.239 732 329 732H412.321V686Z" fill="#EDEDF0"/>
<rect x="190" y="430" width="58" height="191" fill="#EDEDF0"/>
<path fill-rule="evenodd" clip-rule="evenodd" d="M1043.49 427.5H1067.29C1079.25 427.5 1090.07 434.61 1094.82 445.592L1200.46 689.869C1209.03 709.676 1194.51 731.777 1172.93 731.777H871.164C849.56 731.777 835.038 709.631 843.65 689.818L949.829 445.541C954.591 434.586 965.398 427.5 977.342 427.5H1001.03L899 684H1145L1043.49 427.5Z" fill="#EDEDF0"/>
<ellipse cx="828.679" cy="709" rx="21.6788" ry="23" fill="#EDEDF0"/>
<path d="M828.679 686H912C914.761 686 917 688.239 917 691V727C917 729.761 914.761 732 912 732H828.679V686Z" fill="#EDEDF0"/>
<rect width="58" height="191" transform="matrix(-1 0 0 1 1051 430)" fill="#EDEDF0"/>
<path fill-rule="evenodd" clip-rule="evenodd" d="M219 846.5C285.274 846.5 339 792.774 339 726.5C339 726.333 339 726.167 338.999 726H387C387 819.06 311.56 894.5 218.5 894.5C125.44 894.5 50 819.06 50 726H99.001C99.0003 726.167 99 726.333 99 726.5C99 792.774 152.726 846.5 219 846.5Z" fill="#EDEDF0"/>
<path fill-rule="evenodd" clip-rule="evenodd" d="M1022 846.5C1088.27 846.5 1142 792.774 1142 726.5C1142 726.333 1142 726.167 1142 726H1190C1190 819.06 1114.56 894.5 1021.5 894.5C928.44 894.5 853 819.06 853 726H902.001C902 726.167 902 726.333 902 726.5C902 792.774 955.726 846.5 1022 846.5Z" fill="#EDEDF0"/>
</svg>
