<svg width="122" height="23" viewBox="0 0 122 23" fill="none" xmlns="http://www.w3.org/2000/svg">
<path d="M4.27 4.45V9.7H11.32V13.03H4.27V18.58H12.22V22H0.0700002V1.03H12.22V4.45H4.27ZM30.2868 1.06V4.45H24.7068V22H20.5068V4.45H14.9268V1.06H30.2868ZM37.5513 1.06V22H33.3513V1.06H37.5513ZM40.6809 11.5C40.6809 9.44 41.1409 7.6 42.0609 5.98C43.0009 4.34 44.2709 3.07 45.8709 2.17C47.4909 1.25 49.3009 0.789999 51.3009 0.789999C53.6409 0.789999 55.6909 1.39 57.4509 2.59C59.2109 3.79 60.4409 5.45 61.1409 7.57H56.3109C55.8309 6.57 55.1509 5.82 54.2709 5.32C53.4109 4.82 52.4109 4.57 51.2709 4.57C50.0509 4.57 48.9609 4.86 48.0009 5.44C47.0609 6 46.3209 6.8 45.7809 7.84C45.2609 8.88 45.0009 10.1 45.0009 11.5C45.0009 12.88 45.2609 14.1 45.7809 15.16C46.3209 16.2 47.0609 17.01 48.0009 17.59C48.9609 18.15 50.0509 18.43 51.2709 18.43C52.4109 18.43 53.4109 18.18 54.2709 17.68C55.1509 17.16 55.8309 16.4 56.3109 15.4H61.1409C60.4409 17.54 59.2109 19.21 57.4509 20.41C55.7109 21.59 53.6609 22.18 51.3009 22.18C49.3009 22.18 47.4909 21.73 45.8709 20.83C44.2709 19.91 43.0009 18.64 42.0609 17.02C41.1409 15.4 40.6809 13.56 40.6809 11.5ZM74.4482 22.21C72.4882 22.21 70.6882 21.75 69.0482 20.83C67.4082 19.91 66.1082 18.64 65.1482 17.02C64.1882 15.38 63.7082 13.53 63.7082 11.47C63.7082 9.43 64.1882 7.6 65.1482 5.98C66.1082 4.34 67.4082 3.06 69.0482 2.14C70.6882 1.22 72.4882 0.76 74.4482 0.76C76.4282 0.76 78.2282 1.22 79.8482 2.14C81.4882 3.06 82.7782 4.34 83.7182 5.98C84.6782 7.6 85.1582 9.43 85.1582 11.47C85.1582 13.53 84.6782 15.38 83.7182 17.02C82.7782 18.64 81.4882 19.91 79.8482 20.83C78.2082 21.75 76.4082 22.21 74.4482 22.21ZM74.4482 18.46C75.7082 18.46 76.8182 18.18 77.7782 17.62C78.7382 17.04 79.4882 16.22 80.0282 15.16C80.5682 14.1 80.8382 12.87 80.8382 11.47C80.8382 10.07 80.5682 8.85 80.0282 7.81C79.4882 6.75 78.7382 5.94 77.7782 5.38C76.8182 4.82 75.7082 4.54 74.4482 4.54C73.1882 4.54 72.0682 4.82 71.0882 5.38C70.1282 5.94 69.3782 6.75 68.8382 7.81C68.2982 8.85 68.0282 10.07 68.0282 11.47C68.0282 12.87 68.2982 14.1 68.8382 15.16C69.3782 16.22 70.1282 17.04 71.0882 17.62C72.0682 18.18 73.1882 18.46 74.4482 18.46ZM95.6029 1.06C97.8029 1.06 99.7329 1.49 101.393 2.35C103.073 3.21 104.363 4.44 105.263 6.04C106.183 7.62 106.643 9.46 106.643 11.56C106.643 13.66 106.183 15.5 105.263 17.08C104.363 18.64 103.073 19.85 101.393 20.71C99.7329 21.57 97.8029 22 95.6029 22H88.2829V1.06H95.6029ZM95.4529 18.43C97.6529 18.43 99.3529 17.83 100.553 16.63C101.753 15.43 102.353 13.74 102.353 11.56C102.353 9.38 101.753 7.68 100.553 6.46C99.3529 5.22 97.6529 4.6 95.4529 4.6H92.4829V18.43H95.4529ZM113.987 4.45V9.7H121.037V13.03H113.987V18.58H121.937V22H109.787V1.03H121.937V4.45H113.987Z" fill="#222222"/>
</svg>
