<svg width="1164" height="1151" viewBox="0 0 1164 1151" fill="none" xmlns="http://www.w3.org/2000/svg">
<rect width="1164" height="1151" rx="68" fill="#4B4E6D"/>
<g filter="url(#filter0_d_193_192)">
<path d="M757.177 158.479C757.177 158.479 737.834 158.114 726.521 161.764C718.113 164.476 716.667 168.333 703.529 168.333C690.391 168.333 683.457 161.764 683.457 161.764C683.457 161.764 672.143 120.889 652.436 103.736C629.936 84.1535 606.817 76 582.73 76H581.27C557.183 76 534.064 84.1535 511.564 103.736C491.857 120.889 480.543 161.764 480.543 161.764C480.543 161.764 473.609 168.333 460.471 168.333C447.333 168.333 445.886 164.476 437.479 161.764C426.166 158.114 406.823 158.479 406.823 158.479V197.529H342.227C342.227 197.529 325.572 199.51 317.775 205.923C311.516 211.07 306.096 223.076 306.096 223.076V247.892C300.622 260.301 288.579 267.965 288.579 267.965C288.579 267.965 237.291 268.978 214.859 288.767C193.231 307.847 184.526 327.445 184.932 356.283C185.251 378.868 204.64 410.661 204.64 410.661C204.64 410.661 128 575.053 128 578.904C128 677.076 184.932 760.65 303.177 760.65C464.85 760.65 464.85 578.904 464.85 578.904V864.296C464.85 864.296 444.616 886.704 418.502 892.397C391.626 898.259 371.345 879.12 350.256 896.777C332.033 912.032 347.412 933.681 330.913 950.79C316.582 965.651 295.991 955.673 282.01 970.862C269.276 984.694 264.699 997.336 265.587 1016.12C267.215 1050.58 297.338 1073.41 330.913 1075.6H578.35H585.65H833.087C866.662 1073.41 896.785 1050.58 898.413 1016.12C899.304 997.336 894.72 984.694 881.99 970.862C868.005 955.673 847.417 965.651 833.087 950.79C816.588 933.681 831.967 912.032 813.744 896.777C792.654 879.12 772.374 898.259 745.498 892.397C719.383 886.704 696.96 864.296 696.96 864.296V578.904C696.96 578.904 696.96 760.65 875.421 760.65C979.068 760.65 1036 677.076 1036 578.904C1036 571.605 959.36 410.661 959.36 410.661C959.36 410.661 978.746 378.868 979.068 356.283C979.476 327.445 970.768 307.847 949.141 288.767C926.712 268.978 875.421 267.965 875.421 267.965C875.421 267.965 863.378 260.301 857.904 247.892V223.076C857.904 223.076 852.484 211.07 846.225 205.923C838.427 199.51 821.773 197.529 821.773 197.529H757.177V158.479Z" fill="#4B4E6D"/>
<path d="M563.331 343.068V304.464C563.331 304.464 479.392 301.078 403.847 339.343C351.659 365.777 334.871 383.026 291.807 383.026C247.283 375.237 257.137 348.486 257.137 345.777C259.326 337.988 264.801 336.634 272.465 336.634C283.413 336.634 284.444 343.406 291.807 343.406C298.011 343.406 301.468 342.302 304.945 339.343C308.659 336.183 308.96 327.83 308.96 327.83C308.96 327.83 310.768 315.665 302.026 306.495C292.972 296.998 279.537 293.226 265.895 293.966C249.797 294.84 240.035 300.295 229.035 311.237C217.609 322.604 214.33 332.653 212.977 348.147C211.004 370.765 218.53 386.082 235.604 402.329C252.276 418.192 268.077 422.205 291.807 424.678C318.507 427.46 334.598 421.308 358.958 410.794C390.344 397.248 392.837 390.412 415.891 379.64C442.72 367.103 458.036 359.75 487.056 352.549C516.089 345.346 563.331 343.068 563.331 343.068Z" fill="#EDEDF0"/>
<path d="M600.248 343.068V304.464C600.248 304.464 684.187 301.078 759.732 339.343C811.92 365.777 828.708 383.026 871.772 383.026C916.296 375.237 906.443 348.486 906.443 345.777C904.253 337.988 898.779 336.634 891.115 336.634C880.166 336.634 879.137 343.406 871.772 343.406C865.568 343.406 862.108 342.302 858.634 339.343C854.92 336.183 854.619 327.83 854.619 327.83C854.619 327.83 852.811 315.665 861.554 306.495C870.604 296.998 884.042 293.226 897.684 293.966C913.785 294.84 923.544 300.295 934.544 311.237C945.974 322.604 949.251 332.653 950.602 348.147C952.572 370.765 945.047 386.082 927.975 402.329C911.304 418.192 895.501 422.205 871.772 424.678C845.073 427.46 828.982 421.308 804.621 410.794C773.235 397.248 770.743 390.412 747.689 379.64C720.859 367.103 705.543 359.75 676.523 352.549C647.49 345.346 600.248 343.068 600.248 343.068Z" fill="#EDEDF0"/>
<path fill-rule="evenodd" clip-rule="evenodd" d="M563.024 244.618C532.729 236.303 510.471 208.567 510.471 175.632C510.471 136.127 542.496 104.102 582.001 104.102C621.507 104.102 653.532 136.127 653.532 175.632C653.532 208.831 630.915 236.748 600.249 244.814V198.425C606.924 193.074 611.197 184.852 611.197 175.632C611.197 159.508 598.126 146.436 582.001 146.436C565.877 146.436 552.805 159.508 552.805 175.632C552.805 184.511 556.769 192.465 563.024 197.82V244.618Z" fill="#EDEDF0"/>
<path d="M457.919 214.318C466.788 214.318 473.977 207.129 473.977 198.261C473.977 189.392 466.788 182.203 457.919 182.203C449.051 182.203 441.861 189.392 441.861 198.261C441.861 207.129 449.051 214.318 457.919 214.318Z" fill="#EDEDF0"/>
<path d="M706.085 214.318C714.954 214.318 722.143 207.129 722.143 198.261C722.143 189.392 714.954 182.203 706.085 182.203C697.217 182.203 690.027 189.392 690.027 198.261C690.027 207.129 697.217 214.318 706.085 214.318Z" fill="#EDEDF0"/>
<path d="M457.919 440.587C466.788 440.587 473.977 433.398 473.977 424.53C473.977 415.661 466.788 408.472 457.919 408.472C449.051 408.472 441.861 415.661 441.861 424.53C441.861 433.398 449.051 440.587 457.919 440.587Z" fill="#EDEDF0"/>
<path d="M706.085 440.587C714.954 440.587 722.143 433.398 722.143 424.53C722.143 415.661 714.954 408.472 706.085 408.472C697.217 408.472 690.027 415.661 690.027 424.53C690.027 433.398 697.217 440.587 706.085 440.587Z" fill="#EDEDF0"/>
<path d="M361.569 275.629C372.453 275.629 381.276 266.805 381.276 255.921C381.276 245.037 372.453 236.214 361.569 236.214C350.685 236.214 341.861 245.037 341.861 255.921C341.861 266.805 350.685 275.629 361.569 275.629Z" fill="#EDEDF0"/>
<path d="M361.568 236.214H438.208C440.223 236.214 441.858 237.848 441.858 239.863V271.979C441.858 273.994 440.223 275.629 438.208 275.629H361.568V236.214Z" fill="#EDEDF0"/>
<path d="M802.429 275.629C791.545 275.629 782.722 266.805 782.722 255.921C782.722 245.037 791.545 236.214 802.429 236.214C813.313 236.214 822.137 245.037 822.137 255.921C822.137 266.805 813.313 275.629 802.429 275.629Z" fill="#EDEDF0"/>
<path d="M802.428 236.214H725.788C723.773 236.214 722.139 237.848 722.139 239.863V271.979C722.139 273.994 723.773 275.629 725.788 275.629H802.428V236.214Z" fill="#EDEDF0"/>
<path d="M385.6 961.742C395.647 961.742 403.791 952.739 403.791 941.633C403.791 930.527 395.647 921.524 385.6 921.524C375.553 921.524 367.408 930.527 367.408 941.633C367.408 952.739 375.553 961.742 385.6 961.742Z" fill="#EDEDF0"/>
<path d="M385.6 921.522H561.17C563.185 921.522 564.819 923.157 564.819 925.172V958.091C564.819 960.105 563.185 961.74 561.17 961.74H385.6V921.522Z" fill="#EDEDF0"/>
<path d="M528.437 936.416V380.004C528.437 377.988 530.071 376.354 532.086 376.354H561.17C563.186 376.354 564.819 377.988 564.819 380.004V936.416H528.437Z" fill="#EDEDF0"/>
<path d="M778.4 961.74C768.353 961.74 760.209 952.737 760.209 941.631C760.209 930.525 768.353 921.522 778.4 921.522C788.447 921.522 796.592 930.525 796.592 941.631C796.592 952.737 788.447 961.74 778.4 961.74Z" fill="#EDEDF0"/>
<path d="M778.401 921.522H602.831C600.816 921.522 599.182 923.157 599.182 925.172V958.091C599.182 960.105 600.816 961.74 602.831 961.74H778.401V921.522Z" fill="#EDEDF0"/>
<path d="M635.564 936.416V380.004C635.564 377.988 633.93 376.354 631.915 376.354H602.831C600.815 376.354 599.182 377.988 599.182 380.004V936.416H635.564Z" fill="#EDEDF0"/>
<path d="M321.423 1031.08C332.307 1031.08 341.131 1022.26 341.131 1011.37C341.131 1000.49 332.307 991.664 321.423 991.664C310.539 991.664 301.716 1000.49 301.716 1011.37C301.716 1022.26 310.539 1031.08 321.423 1031.08Z" fill="#EDEDF0"/>
<path d="M842.576 1031.08C853.46 1031.08 862.283 1022.26 862.283 1011.37C862.283 1000.49 853.46 991.664 842.576 991.664C831.691 991.664 822.868 1000.49 822.868 1011.37C822.868 1022.26 831.691 1031.08 842.576 1031.08Z" fill="#EDEDF0"/>
<path d="M321.425 991.664H841.116C843.132 991.664 844.766 993.299 844.766 995.314V1027.43C844.766 1029.44 843.132 1031.08 841.116 1031.08H321.425V991.664Z" fill="#EDEDF0"/>
<path d="M465.215 447.886H449.887C442.228 447.886 436.019 454.095 436.019 461.754C436.019 469.414 442.228 475.623 449.887 475.623H465.215C472.874 475.623 479.083 469.414 479.083 461.754C479.083 454.095 472.874 447.886 465.215 447.886Z" fill="#EDEDF0"/>
<path d="M713.382 447.886H698.054C690.395 447.886 684.186 454.095 684.186 461.754C684.186 469.414 690.395 475.623 698.054 475.623H713.382C721.041 475.623 727.25 469.414 727.25 461.754C727.25 454.095 721.041 447.886 713.382 447.886Z" fill="#EDEDF0"/>
<path d="M473.971 482.92H441.856C437.018 482.92 433.097 486.842 433.097 491.679V501.898C433.097 506.735 437.018 510.657 441.856 510.657H473.971C478.809 510.657 482.73 506.735 482.73 501.898V491.679C482.73 486.842 478.809 482.92 473.971 482.92Z" fill="#EDEDF0"/>
<path d="M722.144 482.92H690.028C685.191 482.92 681.27 486.842 681.27 491.679V501.898C681.27 506.735 685.191 510.657 690.028 510.657H722.144C726.982 510.657 730.903 506.735 730.903 501.898V491.679C730.903 486.842 726.982 482.92 722.144 482.92Z" fill="#EDEDF0"/>
<path fill-rule="evenodd" clip-rule="evenodd" d="M272.166 387.67H254.792C246.059 387.67 238.16 392.86 234.694 400.875L157.587 579.174C151.335 593.631 161.934 609.763 177.685 609.763H397.944C413.713 609.763 424.313 593.598 418.027 579.137L340.526 400.838C337.051 392.842 329.163 387.67 320.445 387.67H303.154L377.627 574.89H198.07L272.166 387.67Z" fill="#EDEDF0"/>
<path d="M428.954 609.926C420.215 609.926 413.13 602.41 413.13 593.138C413.13 583.867 420.215 576.351 428.954 576.351C437.693 576.351 444.777 583.867 444.777 593.138C444.777 602.41 437.693 609.926 428.954 609.926Z" fill="#EDEDF0"/>
<path d="M428.954 576.351H368.138C366.123 576.351 364.488 577.985 364.488 580V606.277C364.488 608.292 366.123 609.926 368.138 609.926H428.954V576.351Z" fill="#EDEDF0"/>
<path d="M309.016 389.491H266.682V528.903H309.016V389.491Z" fill="#EDEDF0"/>
<path fill-rule="evenodd" clip-rule="evenodd" d="M889.647 387.67H907.019C915.749 387.67 923.646 392.86 927.113 400.875L1004.22 579.174C1010.48 593.631 999.877 609.763 984.126 609.763H763.866C748.097 609.763 737.497 593.598 743.783 579.137L821.284 400.838C824.76 392.842 832.648 387.67 841.366 387.67H858.656L784.183 574.89H963.74L889.647 387.67Z" fill="#EDEDF0"/>
<path d="M732.856 609.926C741.595 609.926 748.679 602.41 748.679 593.138C748.679 583.867 741.595 576.351 732.856 576.351C724.117 576.351 717.032 583.867 717.032 593.138C717.032 602.41 724.117 609.926 732.856 609.926Z" fill="#EDEDF0"/>
<path d="M732.854 576.351H793.67C795.685 576.351 797.319 577.985 797.319 580V606.277C797.319 608.292 795.685 609.926 793.67 609.926H732.854V576.351Z" fill="#EDEDF0"/>
<path d="M852.792 389.491H895.126V528.903H852.792V389.491Z" fill="#EDEDF0"/>
<path fill-rule="evenodd" clip-rule="evenodd" d="M287.85 693.499C336.223 693.499 375.438 654.284 375.438 605.91C375.438 605.788 375.438 605.667 375.437 605.545H410.474C410.474 673.47 355.41 728.534 287.485 728.534C219.56 728.534 164.496 673.47 164.496 605.545H200.262C200.262 605.667 200.261 605.788 200.261 605.91C200.261 654.284 239.476 693.499 287.85 693.499Z" fill="#EDEDF0"/>
<path fill-rule="evenodd" clip-rule="evenodd" d="M873.96 693.499C922.331 693.499 961.549 654.284 961.549 605.91C961.549 605.788 961.549 605.667 961.549 605.545H996.584C996.584 673.47 941.52 728.534 873.595 728.534C805.67 728.534 750.606 673.47 750.606 605.545H786.372C786.372 605.667 786.372 605.788 786.372 605.91C786.372 654.284 825.587 693.499 873.96 693.499Z" fill="#EDEDF0"/>
</g>
<defs>
<filter id="filter0_d_193_192" x="87.1" y="35.1" width="991.8" height="1083.4" filterUnits="userSpaceOnUse" color-interpolation-filters="sRGB">
<feFlood flood-opacity="0" result="BackgroundImageFix"/>
<feColorMatrix in="SourceAlpha" type="matrix" values="0 0 0 0 0 0 0 0 0 0 0 0 0 0 0 0 0 0 127 0" result="hardAlpha"/>
<feOffset dx="1" dy="1"/>
<feGaussianBlur stdDeviation="20.95"/>
<feComposite in2="hardAlpha" operator="out"/>
<feColorMatrix type="matrix" values="0 0 0 0 0 0 0 0 0 0 0 0 0 0 0 0 0 0 0.61 0"/>
<feBlend mode="normal" in2="BackgroundImageFix" result="effect1_dropShadow_193_192"/>
<feBlend mode="normal" in="SourceGraphic" in2="effect1_dropShadow_193_192" result="shape"/>
</filter>
</defs>
</svg>
