<svg width="130" height="261" viewBox="0 0 130 261" fill="none" xmlns="http://www.w3.org/2000/svg">
<path d="M25.3761 157.06C3.71317 169.568 3.71317 189.844 25.3761 202.352C47.0391 214.86 82.1551 214.853 103.811 202.352C125.467 189.851 125.474 169.568 103.811 157.06C82.1482 144.552 47.0322 144.559 25.3761 157.06Z" fill="#E0E0E0"/>
<path d="M33.11 101.53C22.8236 107.47 7.93549 121.537 7.93549 146.85C7.93549 172.162 19.9122 191.003 42.8446 199.448C55.111 203.953 74.7732 204.187 87.4123 199.675C100.293 193.087 108.972 186.305 113.698 174.004C118.527 159.723 109.855 144.766 98.0161 136.225C86.1773 127.684 87.5847 117.943 79.2093 107.829C74.7112 102.392 68.0812 97.7423 59.9955 96.8454C51.1717 95.8588 40.9197 97.011 33.11 101.53Z" fill="#86889D"/>
<path d="M90.8129 143.89C83.2239 139.668 81.7061 135.052 75.0831 117.853C68.46 100.654 56.3867 101.951 56.3867 101.951C56.3867 101.951 38.6493 102.551 34.4133 115.19C31.4812 123.917 31.5433 141.123 34.3029 150.375C35.9587 155.936 38.2216 158.564 38.2216 158.564C29.5081 156.846 22.5608 162.704 22.5608 162.704C22.5608 162.704 29.9152 159.213 41.9885 164.083C49.1427 166.946 57.2698 170.893 64.5897 173.894C70.7988 176.446 74.1862 178.323 79.0431 182.255C83.4814 185.826 86.3946 190.951 87.1909 196.592C87.2603 197.567 87.4935 198.523 87.8808 199.42C95.5594 195.46 101.727 191.404 106.425 186.098C106.57 184.387 106.467 182.649 106.515 180.903C106.681 174.577 106.763 168.23 106.425 161.903C105.618 147.395 98.4432 148.112 90.8129 143.89Z" fill="#86889D"/>
<path opacity="0.1" d="M90.8129 143.89C83.2239 139.668 81.7061 135.052 75.0831 117.853C68.46 100.654 56.3867 101.951 56.3867 101.951C56.3867 101.951 39.491 102.551 35.2481 115.19C32.3229 123.917 31.5433 141.123 34.3029 150.375C35.9587 155.936 38.2216 158.564 38.2216 158.564C29.5081 156.846 22.5608 162.704 22.5608 162.704C22.5608 162.704 28.2111 161.324 40.8432 164.387C47.8043 166.091 54.8827 169.299 61.9956 172.776C69.3155 176.357 74.1862 178.295 79.0431 182.228C83.4102 185.767 87.3219 190.445 88.0118 196.026C88.0985 197.145 88.0359 198.27 87.8256 199.372C95.5042 195.412 101.672 191.355 106.37 186.05C106.515 184.339 106.253 182.559 106.46 180.855C107.371 173.266 107.536 171.038 108.247 163.711C109.475 151.341 98.4432 148.112 90.8129 143.89Z" fill="black"/>
<path opacity="0.2" d="M81.9059 201.248C67.2248 202.966 51.8676 199.351 39.8219 191.155C21.3601 178.571 13.371 158.695 17.3242 135.108C20.8151 114.279 31.2257 102.806 41.6846 98.0667C39.3618 98.6713 37.1041 99.5032 34.9443 100.55C26.4792 106.759 18.9523 117.708 16.0685 134.901C12.0326 158.999 20.208 179.351 39.0975 192.162C48.462 198.442 59.3303 202.114 70.5846 202.801C74.3942 202.591 78.1805 202.072 81.9059 201.248Z" fill="black"/>
<path d="M99.4519 181.331C99.4519 181.331 97.3822 190.989 97.803 194.556C98.2583 198.289 97.5753 199.668 98.9138 203.58C99.2035 204.436 99.9693 206.112 100.211 206.802C100.277 206.943 100.311 207.096 100.311 207.252C100.311 207.407 100.276 207.56 100.211 207.701C100.145 207.842 100.049 207.967 99.9298 208.066C99.8107 208.166 99.671 208.238 99.5209 208.278C97.9755 208.892 94.7743 206.347 92.9323 203.29C90.9707 199.721 89.2311 196.035 87.7235 192.252C87.5002 191.371 87.5169 190.447 87.7718 189.575C87.8952 189.071 88.0638 188.579 88.2755 188.106C88.5238 186.401 88.2755 183.276 88.3168 181.103L99.4519 181.331Z" fill="#FFA8A7"/>
<path d="M85.1501 196.198C85.005 196.613 84.9303 197.049 84.9293 197.488C85.0259 198.233 87.1163 200.365 87.9235 201.138C89.0679 202.169 89.776 203.597 89.9035 205.132C90.2209 207.513 91.6628 209.596 93.5324 211.28C96.0635 213.443 99.1901 214.79 102.501 215.143C106.641 215.654 107.641 213.46 107.641 213.46C107.641 213.46 108.517 211.39 107.641 210.7C106.765 210.01 85.1501 196.198 85.1501 196.198Z" fill="#263238"/>
<path d="M88.2467 188.126C88.1294 188.126 87.9155 188.126 87.6741 188.568C87.5844 188.727 87.1773 190.603 86.7496 191.631C86.3219 192.659 85.08 194.674 85.149 196.198C86.5288 198.958 89.6196 200.462 90.5027 203.097C91.3857 205.733 91.9722 208.927 96.8015 211.528C101.631 214.129 105.95 213.715 107.343 212.563C108.737 211.411 108.302 209.803 105.591 206.988C102.707 204.043 99.8854 197.047 99.8854 197.04C99.5082 196.056 99.1925 195.049 98.9402 194.025C98.7776 192.996 98.6946 191.956 98.6918 190.914C98.6963 190.418 98.5415 189.935 98.2503 189.534C97.8906 189.209 97.4406 189.002 96.9602 188.941C96.2139 188.741 95.4482 188.623 94.6766 188.589C93.8973 188.567 93.1337 188.81 92.5103 189.279C92.0688 189.624 91.7445 190.106 91.2754 190.403C90.9577 190.601 90.5908 190.706 90.2164 190.706C89.8419 190.706 89.475 190.601 89.1574 190.403C88.8401 190.235 88.5836 189.971 88.424 189.649C88.2644 189.328 88.2096 188.964 88.2674 188.609C88.2498 188.449 88.2428 188.288 88.2467 188.126Z" fill="#37474F"/>
<path d="M93.8484 209.286C94.2835 208.125 95.0278 207.106 96.0007 206.339C96.9736 205.572 98.138 205.085 99.3676 204.932C103.818 204.167 105.756 206.16 106.667 207.375C107.75 208.817 109.095 211.514 107.405 212.694C105.577 213.929 103.231 214.074 99.2986 212.88C95.3662 211.687 93.8484 209.286 93.8484 209.286Z" fill="#FAFAFA"/>
<path d="M92.3037 195.742C92.3729 195.761 92.4454 195.764 92.5159 195.751C92.5864 195.738 92.653 195.709 92.7108 195.666C93.3386 195.197 96.8502 193.797 99.3062 195.391C99.5408 195.121 99.4097 194.701 98.9613 194.225C96.2017 193.086 92.8901 194.39 92.1312 194.963C92.0851 194.998 92.0467 195.043 92.0181 195.094C91.9896 195.145 91.9716 195.201 91.9652 195.259C91.9587 195.317 91.964 195.375 91.9807 195.431C91.9974 195.487 92.0251 195.539 92.0623 195.584C92.127 195.657 92.2104 195.712 92.3037 195.742Z" fill="#FAFAFA"/>
<path d="M100.252 197.888C100.274 197.669 100.243 197.447 100.161 197.241C100.079 197.036 99.9496 196.853 99.7827 196.709C98.6978 196.416 97.5654 196.343 96.4518 196.493C95.3382 196.643 94.2659 197.015 93.2976 197.585C93.2507 197.62 93.2114 197.664 93.1823 197.715C93.1532 197.766 93.1349 197.822 93.1284 197.88C93.1219 197.939 93.1275 197.997 93.1447 198.053C93.162 198.109 93.1905 198.161 93.2286 198.206C93.2921 198.281 93.376 198.336 93.4701 198.364C93.5393 198.383 93.6118 198.386 93.6823 198.373C93.7528 198.36 93.8194 198.331 93.8771 198.289C94.4497 197.847 97.7751 196.509 100.252 197.888Z" fill="#FAFAFA"/>
<path d="M103.087 203.594C102.987 203.007 102.687 202.473 102.239 202.083C99.4789 201.027 96.2639 202.31 95.5189 202.869C95.4719 202.904 95.4327 202.948 95.4036 202.999C95.3745 203.05 95.3561 203.106 95.3497 203.165C95.3432 203.223 95.3488 203.282 95.366 203.338C95.3832 203.394 95.4118 203.446 95.4499 203.49C95.5134 203.565 95.5972 203.62 95.6913 203.649C95.7605 203.668 95.8331 203.671 95.9035 203.657C95.974 203.644 96.0406 203.615 96.0984 203.573C96.7607 203.076 100.624 201.545 103.087 203.594Z" fill="#FAFAFA"/>
<path d="M94.56 201.014C94.6291 201.032 94.7017 201.035 94.7722 201.022C94.8426 201.009 94.9092 200.98 94.967 200.938C95.5879 200.475 99.0167 199.103 101.48 200.613C101.48 200.372 101.426 200.133 101.321 199.916C101.216 199.698 101.062 199.507 100.873 199.358C99.7876 199.065 98.6553 198.992 97.5418 199.143C96.4283 199.293 95.3559 199.664 94.3875 200.234C94.3414 200.27 94.3029 200.314 94.2744 200.365C94.2458 200.416 94.2278 200.472 94.2214 200.53C94.2149 200.588 94.2202 200.646 94.2369 200.702C94.2536 200.758 94.2813 200.81 94.3185 200.855C94.3832 200.929 94.4667 200.983 94.56 201.014Z" fill="#FAFAFA"/>
<path d="M73.0427 137.039C78.1342 140.288 94.5745 146.952 101.86 152.872C103.971 154.59 105.758 157.218 104.923 162.461C103.364 172.265 100.094 184.863 100.094 184.863L88.9932 180.565L86.5165 169.781L70.7936 159.633L73.0427 137.039Z" fill="#455A64"/>
<path d="M100.424 185.56C93.8766 180.772 72.6552 151.237 72.6621 151.23C77.0637 149.34 79.4093 143.324 79.4093 143.324C79.2902 146.167 78.3457 148.915 76.6911 151.23C79.4507 152.983 85.6599 156.37 92.1932 160.889C94.3166 162.444 95.8645 164.659 96.5948 167.188C98.2989 173.811 100.486 184.194 100.424 185.56Z" fill="#37474F"/>
<path d="M103.611 189.548C103.611 189.548 107.316 201.021 110.165 205.257C113.014 209.493 114.456 211.535 117.954 214.543C118.72 215.198 120.403 216.371 121.031 216.902C121.175 217.003 121.295 217.133 121.382 217.286C121.469 217.438 121.522 217.607 121.536 217.782C121.549 217.957 121.524 218.133 121.462 218.297C121.4 218.461 121.302 218.609 121.176 218.73C120.037 220.2 114.449 221.338 110.945 219.42C107.44 217.502 103.811 212.915 101.645 211.293C100.831 210.686 100.058 210.052 99.3059 209.369C98.5539 208.686 98.616 207.989 98.4642 207.147C98.3814 206.747 98.2711 205.629 98.2711 205.629C97.5812 203.718 95.9185 200.8 95.0078 198.944L103.611 189.548Z" fill="#FFA8A7"/>
<path d="M98.4846 214.701C98.5231 215.19 98.6444 215.668 98.8434 216.115C99.2711 216.805 102.376 218.075 103.549 218.503C105.172 219.047 106.525 220.192 107.329 221.704C108.709 223.994 111.144 225.477 113.807 226.354C117.376 227.428 121.187 227.392 124.735 226.25C129.165 224.926 129.227 222.221 129.227 222.221C129.227 222.221 129.178 219.689 128.012 219.42C126.847 219.151 98.4846 214.701 98.4846 214.701Z" fill="#263238"/>
<path d="M98.0237 205.063C97.9064 205.132 97.6857 205.229 97.6305 205.753C97.6305 205.96 98.0444 208.058 98.072 209.299C98.0996 210.541 97.734 213.156 98.4859 214.687C101.156 216.84 104.978 217.033 107.075 219.344C109.173 221.656 111.215 224.615 117.265 225.119C123.316 225.622 127.614 223.235 128.497 221.428C129.38 219.62 128.228 218.144 124.199 216.53C119.928 214.812 113.898 208.941 113.891 208.941C113.057 208.109 112.28 207.222 111.566 206.284C110.938 205.307 110.384 204.283 109.911 203.221C109.691 202.726 109.322 202.311 108.855 202.035C108.339 201.873 107.785 201.873 107.268 202.035C106.415 202.169 105.579 202.401 104.778 202.725C103.97 203.044 103.292 203.624 102.853 204.373C102.634 204.954 102.386 205.523 102.108 206.077C101.871 206.424 101.542 206.696 101.158 206.865C100.773 207.033 100.35 207.09 99.9347 207.03C99.5352 206.997 99.1554 206.842 98.8478 206.585C98.5401 206.328 98.3197 205.982 98.2169 205.595L98.0237 205.063Z" fill="#37474F"/>
<path d="M113.27 224.153C113.197 222.78 113.499 221.412 114.143 220.197C114.787 218.982 115.749 217.965 116.927 217.254C121.135 214.494 124.012 215.633 125.488 216.461C127.248 217.447 129.849 219.627 128.634 221.559C127.33 223.629 124.992 224.836 120.438 225.409C115.885 225.981 113.27 224.153 113.27 224.153Z" fill="#FAFAFA"/>
<path d="M105.592 210.997C105.671 210.987 105.748 210.959 105.815 210.915C105.882 210.87 105.938 210.811 105.978 210.741C106.406 209.976 109.352 206.968 112.587 207.485C112.705 207.106 112.401 206.761 111.711 206.45C108.386 206.526 105.585 209.355 105.067 210.279C105.032 210.337 105.009 210.402 105 210.469C104.991 210.537 104.997 210.605 105.016 210.67C105.036 210.736 105.069 210.796 105.113 210.847C105.158 210.899 105.213 210.94 105.274 210.969C105.375 211.008 105.485 211.018 105.592 210.997Z" fill="#FAFAFA"/>
<path d="M114.649 209.658C114.571 209.424 114.438 209.212 114.262 209.039C114.086 208.866 113.871 208.738 113.635 208.664C110.496 208.954 107.902 211.596 107.426 212.479C107.39 212.538 107.366 212.603 107.357 212.671C107.348 212.739 107.354 212.808 107.375 212.874C107.395 212.939 107.429 212.999 107.475 213.05C107.521 213.102 107.577 213.142 107.64 213.169C107.737 213.222 107.848 213.241 107.957 213.225C108.036 213.213 108.112 213.183 108.177 213.137C108.243 213.092 108.298 213.032 108.337 212.962C108.73 212.197 111.531 209.347 114.649 209.658Z" fill="#FAFAFA"/>
<path d="M120.149 214.184C119.782 213.629 119.233 213.22 118.597 213.025C115.334 213.177 112.595 215.943 112.091 216.847C112.056 216.905 112.033 216.97 112.024 217.037C112.015 217.105 112.021 217.173 112.04 217.238C112.06 217.303 112.093 217.364 112.137 217.415C112.182 217.467 112.237 217.508 112.298 217.537C112.397 217.583 112.507 217.6 112.616 217.585C112.695 217.576 112.77 217.548 112.836 217.504C112.902 217.459 112.957 217.4 112.995 217.33C113.45 216.516 116.707 213.197 120.149 214.184Z" fill="#FAFAFA"/>
<path d="M110.276 215.384C110.355 215.372 110.43 215.342 110.495 215.296C110.561 215.251 110.616 215.191 110.655 215.122C111.076 214.37 113.967 211.424 117.161 211.859C117.053 211.613 116.89 211.395 116.686 211.22C116.482 211.046 116.241 210.92 115.981 210.852C112.835 211.141 110.241 213.784 109.772 214.667C109.736 214.725 109.712 214.79 109.703 214.858C109.694 214.926 109.7 214.995 109.721 215.061C109.741 215.126 109.775 215.187 109.821 215.238C109.867 215.289 109.923 215.329 109.986 215.357C110.078 215.394 110.179 215.403 110.276 215.384Z" fill="#FAFAFA"/>
<path d="M73.2972 134.417L39.4575 140.516C39.4575 148.374 41.5272 153.907 43.7625 156.646C46.1771 159.571 50.5718 162.972 59.2439 166.235C70.7928 170.575 73.0833 171.52 77.1813 173.217C80.0996 174.424 81.9072 175.287 84.2252 180.944C85.8948 185.021 96.3675 201.641 96.3675 201.641C99.9696 200.683 103.275 198.84 105.985 196.281C96.4227 168.753 93.5665 164.483 89.5237 161.351C86.0742 158.667 72.6625 151.258 72.6625 151.258C72.6625 151.258 77.5815 142.585 73.2972 134.417Z" fill="#455A64"/>
<path d="M93.1937 122.282C89.7856 120.012 77.4087 110.305 77.4087 110.305L74.318 92.5539C78.14 93.1058 79.3266 94.2579 86.2326 100.833C90.372 104.8 98.3266 111.988 98.3266 111.988C100.396 110.015 107.585 102.564 109.02 100.591C110.33 98.7151 111.37 96.6645 112.111 94.4994C112.428 93.5266 112.725 92.5401 113.139 91.588C113.511 90.7862 113.947 90.0156 114.443 89.2837C114.912 88.5938 115.326 87.7315 115.781 87.0554C115.851 86.9281 115.951 86.8193 116.071 86.738C116.218 86.6752 116.382 86.6621 116.538 86.7007C116.693 86.7392 116.832 86.8274 116.933 86.9519C117.314 87.6144 117.482 88.3776 117.416 89.1389C117.347 89.6925 117.215 90.2365 117.023 90.7601C116.831 91.2852 116.749 91.844 116.781 92.4021C117.45 92.4392 118.108 92.2168 118.617 91.7812C120.382 90.4406 121.933 88.8403 123.218 87.0347C124.101 85.8894 124.84 84.6545 125.778 83.5437C125.936 83.3248 126.141 83.1434 126.378 83.0125C126.498 82.9516 126.633 82.9269 126.766 82.9416C126.9 82.9564 127.026 83.0098 127.13 83.0953C127.276 83.2941 127.345 83.5394 127.323 83.7852C127.328 84.5369 127.284 85.2882 127.192 86.0343C127.882 86.3999 128.068 87.3106 128.165 88.104C128.379 89.9184 128.586 91.8157 127.937 93.5335C127.307 94.9464 126.364 96.1969 125.178 97.19C124.083 98.2134 122.931 99.1739 121.728 100.067C120.562 100.936 119.279 101.619 118.334 102.744C115.119 106.552 108.992 115.852 104.536 120.743C100.079 125.635 97.4021 125.297 93.1937 122.282Z" fill="#FFA8A7"/>
<path d="M73.9114 92.3953C77.7679 92.3953 78.513 93.2921 81.5693 95.7482C84.6256 98.2042 95.0224 108.573 95.0224 108.573C93.9775 112.801 91.3981 116.49 87.7853 118.922L71.4415 106.704L73.9114 92.3953Z" fill="#37474F"/>
<path d="M77.0776 115.19C78.754 103.731 80.1821 94.4927 73.9109 92.423L66.4876 91.4434L60.2025 91.5951C52.7999 92.2298 47.5566 91.8918 45.3972 96.0588C45.3972 96.0588 41.9822 97.4041 40.0643 112.616C38.6621 123.369 38.4562 134.244 39.4503 145.042C47.5014 149.671 70.7581 146.912 76.4153 138.391C75.5253 129.347 75.7047 124.593 77.0776 115.19Z" fill="#86889D"/>
<path opacity="0.7" d="M77.0776 115.19C78.754 103.731 80.1821 94.4927 73.9109 92.423L66.4876 91.4434L60.2025 91.5951C52.7999 92.2298 47.5566 91.8918 45.3972 96.0588C45.3972 96.0588 41.9822 97.4041 40.0643 112.616C38.6621 123.369 38.4562 134.244 39.4503 145.042C47.5014 149.671 70.7581 146.912 76.4153 138.391C75.5253 129.347 75.7047 124.593 77.0776 115.19Z" fill="white"/>
<path d="M84.121 70.2563C84.3448 67.4787 83.4928 64.7213 81.7413 62.5539C79.9897 60.3866 77.4724 58.975 74.7097 58.611C71.947 58.2469 69.1499 58.9582 66.8967 60.5978C64.6435 62.2374 63.1064 64.6801 62.6029 67.4208L58.0151 63.4608C57.4398 63.3491 56.8466 63.3693 56.2802 63.5199C55.7138 63.6704 55.1889 63.9474 54.745 64.3301C53.2686 65.6271 53.6894 70.0632 55.0554 74.4854C55.0554 74.4854 56.0972 82.4193 56.6629 83.7577C57.0474 84.5834 57.7338 85.2303 58.5808 85.5653L58.8499 80.8187L78.6363 81.2465L76.7942 79.6459C78.797 78.964 80.5571 77.7123 81.8587 76.0443C83.1602 74.3764 83.9464 72.3648 84.121 70.2563Z" fill="#263238"/>
<path d="M59.0918 75.1269C58.4018 75.4581 57.9948 74.0852 56.9255 73.3056C56.0148 72.6157 53.814 71.8154 52.3031 73.6919C50.4197 76.0307 52.3031 79.3491 54.2003 80.4116C56.9117 81.9156 58.3053 80.0183 58.3053 80.0183L57.8361 92.3952C61.5064 98.0731 73.014 99.0044 69.4196 92.5607L69.6473 89.2009C71.1557 89.5625 72.6982 89.7636 74.2489 89.8011C76.8016 89.608 78.547 87.7314 79.5267 85.0753C81.0997 80.791 81.8447 77.2863 81.4791 68.5866C81.0789 59.0453 70.0957 58.0863 63.8728 61.3495C57.6499 64.6128 59.0918 75.1269 59.0918 75.1269Z" fill="#FFA8A7"/>
<path d="M84.6941 60.0182C83.9084 59.5413 82.9843 59.3443 82.0724 59.4594C82.1928 58.7931 82.101 58.1059 81.8102 57.4945C81.5193 56.8831 81.044 56.3783 80.4512 56.0513C79.822 55.6669 79.0931 55.4776 78.3564 55.507C77.6197 55.5365 76.9082 55.7835 76.3118 56.2168C76.6705 55.2855 75.8909 54.2299 74.932 53.9264C73.9529 53.7091 72.9319 53.781 71.993 54.1333C70.558 54.5266 69.1506 54.9888 67.7018 55.3269C65.156 55.9202 62.4861 56.1479 60.1129 57.2724C59.544 57.5202 59.0304 57.8791 58.602 58.3279C58.0576 59.0086 57.7543 59.8505 57.7396 60.7219C57.736 61.0076 57.7498 61.2933 57.781 61.5774C57.635 61.3752 57.4525 61.202 57.2429 61.0669C57.0068 60.9079 56.7405 60.7994 56.4606 60.748C56.1807 60.6967 55.8932 60.7036 55.6161 60.7683C55.339 60.8331 55.0782 60.9543 54.8501 61.1243C54.6219 61.2944 54.4313 61.5097 54.2901 61.7568L57.8362 64.0265C57.6706 64.7716 57.505 65.5098 57.3601 66.2549C56.9738 68.2212 56.3736 70.4978 56.6702 72.5124C56.6778 72.7537 56.7416 72.9899 56.8565 73.2023C57.5211 73.8217 58.1115 74.5162 58.6158 75.272C58.871 75.6514 59.1608 76.2516 59.6161 76.431C59.859 76.5197 60.1252 76.5215 60.3693 76.4359C60.6133 76.3504 60.8202 76.1828 60.9545 75.9619C61.0616 75.6854 61.1041 75.388 61.0787 75.0926C61.0787 73.8577 61.0787 72.6227 61.0787 71.3878C61.0514 71.0583 61.1035 70.7272 61.2305 70.4219C61.4845 70.0569 61.823 69.7587 62.217 69.5527C62.6767 69.2236 63.0665 68.8066 63.3637 68.3258C63.661 67.845 63.8598 67.3099 63.9487 66.7517C63.9739 66.3977 64.0411 66.048 64.1488 65.7099C64.2454 65.4615 64.4868 65.0752 64.7835 65.1028C65.3561 65.1511 68.4124 66.1238 69.1851 66.3032C73.2072 67.2415 77.5743 67.7589 81.3549 66.0963C82.8313 65.4477 85.3426 64.0265 85.7496 62.3432C85.8206 61.8949 85.7585 61.4356 85.5708 61.0223C85.3832 60.609 85.0783 60.2598 84.6941 60.0182Z" fill="#263238"/>
<path d="M69.6475 89.2012C69.6475 89.2012 64.1282 87.6213 62.2241 86.4416C61.1136 85.7504 60.24 84.7372 59.7198 83.5371C59.9254 84.7125 60.3666 85.8343 61.0168 86.8348C62.3069 88.7873 69.5302 90.719 69.5302 90.719L69.6475 89.2012Z" fill="#F28F8F"/>
<path d="M70.7168 75.1962C70.6918 75.4028 70.6067 75.5976 70.4719 75.7564C70.3372 75.9151 70.1588 76.0307 69.9589 76.0889C69.759 76.1471 69.5464 76.1453 69.3476 76.0837C69.1487 76.022 68.9723 75.9034 68.8403 75.7424C68.7083 75.5814 68.6266 75.3851 68.6051 75.178C68.5837 74.9709 68.6237 74.7621 68.7199 74.5775C68.8162 74.3929 68.9646 74.2407 69.1466 74.1397C69.3287 74.0387 69.5364 73.9934 69.744 74.0095C69.8862 74.0224 70.0245 74.0635 70.1506 74.1304C70.2768 74.1973 70.3884 74.2886 70.479 74.399C70.5695 74.5095 70.6372 74.6368 70.678 74.7737C70.7188 74.9105 70.732 75.0542 70.7168 75.1962Z" fill="#263238"/>
<path d="M69.0329 71.0706L66.4457 72.0433C66.3214 71.6898 66.3389 71.3018 66.4946 70.9609C66.6502 70.62 66.9319 70.3527 67.2805 70.2151C67.6263 70.0964 68.0051 70.1198 68.3337 70.2802C68.6623 70.4407 68.9137 70.7249 69.0329 71.0706Z" fill="#263238"/>
<path d="M68.8547 82.2744L72.3732 83.9233C72.2758 84.1611 72.1312 84.3767 71.9483 84.5572C71.7653 84.7377 71.5477 84.8792 71.3085 84.9733C71.0693 85.0674 70.8136 85.1122 70.5567 85.1048C70.2998 85.0975 70.0471 85.0382 69.8137 84.9305C69.3472 84.6915 68.9888 84.2844 68.8109 83.7914C68.6329 83.2984 68.6486 82.7563 68.8547 82.2744Z" fill="#B16668"/>
<path d="M70.9102 85.0822C70.8887 84.5795 70.6691 84.1058 70.2994 83.7645C69.9296 83.4232 69.4399 83.2421 68.9371 83.2608C68.8558 83.2656 68.775 83.2771 68.6956 83.2953C68.7247 83.6412 68.8429 83.9737 69.0388 84.2603C69.2347 84.5469 69.5015 84.7777 69.8133 84.9304C70.1549 85.0914 70.5376 85.1444 70.9102 85.0822Z" fill="#F28F8F"/>
<path d="M80.6857 73.016L78.416 71.5465C78.5085 71.3977 78.63 71.2691 78.7733 71.1684C78.9166 71.0676 79.0787 70.9968 79.25 70.9601C79.4213 70.9234 79.5982 70.9216 79.7702 70.9548C79.9422 70.9879 80.1058 71.0554 80.2511 71.1532C80.5502 71.3474 80.7625 71.6498 80.8436 71.9971C80.9246 72.3443 80.868 72.7095 80.6857 73.016Z" fill="#263238"/>
<path d="M79.1951 75.81C79.17 76.0169 79.0846 76.2119 78.9495 76.3707C78.8144 76.5294 78.6356 76.6449 78.4353 76.7028C78.235 76.7606 78.0221 76.7583 77.8232 76.6961C77.6242 76.6338 77.448 76.5144 77.3164 76.3528C77.1848 76.1911 77.1037 75.9943 77.0831 75.7868C77.0626 75.5794 77.1035 75.3705 77.2008 75.1861C77.2981 75.0018 77.4475 74.8501 77.6304 74.75C77.8133 74.65 78.0215 74.6059 78.2293 74.6234C78.5146 74.6529 78.7765 74.7945 78.9575 75.017C79.1386 75.2394 79.2241 75.5246 79.1951 75.81Z" fill="#263238"/>
<path d="M73.876 74.6509L73.4483 81.4947L77.5601 80.9359L73.876 74.6509Z" fill="#F28F8F"/>
<path d="M96.8023 133.728C96.7471 133.486 97.6095 133.21 97.7888 133.12C98.9203 132.569 100.121 131.955 100.728 130.851C100.942 130.471 101.045 129.933 100.728 129.643C100.41 129.354 99.9413 129.492 99.5481 129.643C98.2346 130.078 96.8868 130.401 95.5191 130.609C94.2219 130.835 92.9407 131.144 91.6832 131.534C90.3931 131.906 89.2547 132.644 87.9232 132.762C86.4746 132.813 85.0242 132.758 83.5837 132.596C76.7261 132.079 66.5983 130.568 65.9291 130.437L56.9604 108.505C56.9604 108.505 55.1322 96.2934 50.358 92.637C46.3635 93.3269 41.0168 97.8043 42.1344 106.263C42.9416 112.341 52.1932 132.976 53.5868 135.928C55.7186 140.496 55.6151 141.668 64.5079 142.137C68.537 142.351 77.0228 142.068 82.68 142.31L86.8953 142.482C88.5096 142.538 90.4621 142.676 92.0764 142.827" fill="#FFA8A7"/>
<path d="M96.1118 140.247L107.626 136.977C107.851 136.9 108.054 136.769 108.216 136.596C108.378 136.423 108.496 136.212 108.558 135.983L112.566 117.542C112.663 117.114 112.393 116.852 111.973 116.983L100.465 120.246C100.24 120.324 100.037 120.454 99.8734 120.627C99.71 120.8 99.591 121.011 99.5268 121.24L95.5185 139.681C95.4219 140.116 95.6841 140.364 96.1118 140.247Z" fill="#37474F"/>
<path d="M105.253 124.069C107.371 123.586 108.668 125.007 108.158 127.256C107.647 129.505 105.529 131.678 103.452 132.127C101.376 132.575 100.065 131.154 100.548 128.946C100.846 127.797 101.436 126.745 102.26 125.89C103.085 125.036 104.115 124.408 105.253 124.069Z" fill="#86889D"/>
<path d="M104.122 130.622C104.099 130.688 104.062 130.747 104.012 130.795C103.965 130.84 103.908 130.873 103.846 130.892L102.873 131.112C102.851 131.118 102.828 131.119 102.806 131.112C102.784 131.106 102.765 131.094 102.749 131.078C102.737 131.056 102.731 131.031 102.731 131.005C102.731 130.98 102.737 130.955 102.749 130.933L103.032 130.105C103.057 130.041 103.098 129.985 103.149 129.939C103.194 129.891 103.251 129.855 103.315 129.836L104.287 129.622C104.306 129.61 104.327 129.603 104.35 129.603C104.372 129.603 104.393 129.61 104.412 129.622C104.422 129.644 104.427 129.667 104.427 129.691C104.427 129.715 104.422 129.739 104.412 129.76L104.122 130.622ZM105.378 125.179C105.627 125.115 105.887 125.096 106.143 125.124C106.34 125.141 106.528 125.21 106.688 125.324C106.822 125.434 106.912 125.588 106.944 125.759C106.979 125.975 106.955 126.197 106.875 126.4C106.807 126.59 106.717 126.771 106.606 126.938C106.495 127.099 106.37 127.249 106.233 127.387C106.1 127.527 105.959 127.661 105.812 127.787L105.384 128.139C105.246 128.256 105.122 128.373 105.005 128.491C104.892 128.601 104.794 128.726 104.715 128.863C104.682 128.926 104.64 128.984 104.591 129.036C104.55 129.084 104.494 129.117 104.432 129.132L103.494 129.346C103.472 129.352 103.449 129.352 103.427 129.346C103.405 129.34 103.385 129.328 103.37 129.312C103.358 129.289 103.352 129.265 103.352 129.239C103.352 129.214 103.358 129.189 103.37 129.167C103.433 128.986 103.524 128.816 103.639 128.663C103.757 128.503 103.888 128.353 104.032 128.215C104.17 128.077 104.322 127.939 104.474 127.815L104.908 127.456C105.032 127.352 105.15 127.242 105.26 127.125C105.35 127.031 105.42 126.921 105.467 126.8C105.522 126.642 105.509 126.531 105.426 126.462C105.35 126.431 105.27 126.414 105.188 126.414C105.106 126.414 105.025 126.431 104.95 126.462C104.757 126.497 104.573 126.572 104.412 126.683C104.301 126.767 104.202 126.865 104.115 126.973L103.908 127.242C103.853 127.323 103.769 127.38 103.673 127.401L102.735 127.608C102.72 127.617 102.702 127.623 102.683 127.623C102.665 127.623 102.647 127.617 102.632 127.608C102.621 127.589 102.616 127.567 102.616 127.546C102.616 127.524 102.621 127.503 102.632 127.483C102.729 127.249 102.857 127.029 103.011 126.828C103.195 126.578 103.403 126.347 103.632 126.138C103.882 125.915 104.155 125.718 104.446 125.552C104.737 125.383 105.051 125.257 105.378 125.179Z" fill="#455A64"/>
<path d="M50.503 92.5542C45.9841 93.0578 43.8592 94.3962 42.3414 97.3145C40.3269 101.199 41.2583 106.194 42.6174 110.595C44.317 115.921 46.3919 121.12 48.8265 126.152C48.8265 126.152 55.8704 126.539 62.2658 120.633L57.264 106.235C57.264 106.235 54.7183 96.6108 50.503 92.5542Z" fill="#37474F"/>
<path d="M92.0552 142.813C95.1114 143.089 97.6296 143.165 100.52 142.061C102 141.538 103.327 140.656 104.384 139.495C104.636 139.205 104.856 138.888 105.039 138.55C105.166 138.247 105.263 137.933 105.329 137.611C105.432 137.335 105.515 137.025 105.632 136.763C105.788 136.483 105.961 136.213 106.15 135.956C106.485 135.43 106.689 134.831 106.743 134.21C106.658 133.761 106.675 133.299 106.795 132.858C106.915 132.417 107.133 132.009 107.433 131.664C107.757 131.016 107.592 130.009 106.688 130.126C106.048 130.271 105.449 130.558 104.936 130.968C103.818 131.717 102.641 132.375 101.417 132.934C100.272 133.451 98.9818 134.072 97.6986 134.017C97.4916 134.017 96.8776 134.017 96.8155 133.734" fill="#FFA8A7"/>
<path d="M46.3153 218.268C42.9831 220.193 42.9831 223.318 46.3153 225.243C49.6475 227.168 55.0564 227.168 58.3886 225.243C61.7208 223.318 61.7208 220.193 58.3886 218.268C55.0564 216.343 49.6475 216.343 46.3153 218.268Z" fill="#E0E0E0"/>
<path d="M61.1824 198.53H43.5278L45.3285 221.731C45.4113 222.58 46.0736 223.415 47.3361 224.056C50.0336 225.436 54.4835 225.436 57.2707 224.056C58.5815 223.415 59.2645 222.58 59.3404 221.731L61.1824 198.53Z" fill="#86889D"/>
<g opacity="0.65">
<path d="M61.1824 198.53H43.5278L45.3285 221.731C45.4113 222.58 46.0736 223.415 47.3361 224.056C50.0336 225.436 54.4835 225.436 57.2707 224.056C58.5815 223.415 59.2645 222.58 59.3404 221.731L61.1824 198.53Z" fill="white"/>
</g>
<path d="M58.5542 195.508C55.0426 193.838 49.4544 193.838 46.0669 195.508C42.6795 197.178 42.6795 199.882 46.0669 201.552C49.4544 203.221 55.0357 203.221 58.5542 201.552C62.0727 199.882 62.0589 197.198 58.5542 195.508Z" fill="#86889D"/>
<g opacity="0.4">
<path d="M58.5542 195.508C55.0426 193.838 49.4544 193.838 46.0669 195.508C42.6795 197.178 42.6795 199.882 46.0669 201.552C49.4544 203.221 55.0357 203.221 58.5542 201.552C62.0727 199.882 62.0589 197.198 58.5542 195.508Z" fill="white"/>
</g>
<g opacity="0.2">
<path d="M58.5542 195.508C55.0426 193.838 49.4544 193.838 46.0669 195.508C42.6795 197.178 42.6795 199.882 46.0669 201.552C49.4544 203.221 55.0357 203.221 58.5542 201.552C62.0727 199.882 62.0589 197.198 58.5542 195.508Z" fill="black"/>
</g>
<path d="M44.7901 200.745C45.183 201.062 45.6113 201.333 46.0664 201.552C49.4539 203.222 55.0352 203.222 58.5537 201.552C59.0249 201.332 59.4693 201.059 59.8783 200.738C59.4068 200.32 58.8769 199.974 58.3053 199.71C54.9386 198.109 49.5712 198.109 46.3217 199.71C45.7607 199.974 45.244 200.323 44.7901 200.745Z" fill="#37474F"/>
<path d="M10.4397 238.234C1.77456 243.236 1.77456 251.342 10.4397 256.351C19.1049 261.36 33.1513 261.353 41.8165 256.351C50.4817 251.349 50.4817 243.243 41.8165 238.234C33.1513 233.225 19.1049 233.232 10.4397 238.234Z" fill="#E0E0E0"/>
<path d="M0.00158691 228.796C0.00158691 235.725 2.75421 242.371 7.6539 247.27C12.5536 252.17 19.199 254.923 26.1282 254.923C33.0574 254.923 39.7028 252.17 44.6025 247.27C49.5022 242.371 52.2548 235.725 52.2548 228.796H0.00158691Z" fill="#86889D"/>
<path opacity="0.2" d="M0.00158691 228.796C0.00158691 235.725 2.75421 242.371 7.6539 247.27C12.5536 252.17 19.199 254.923 26.1282 254.923C33.0574 254.923 39.7028 252.17 44.6025 247.27C49.5022 242.371 52.2548 235.725 52.2548 228.796H0.00158691Z" fill="black"/>
<path d="M7.65287 218.13C-2.55079 224.015 -2.55079 233.57 7.65287 239.462C17.8565 245.354 34.4004 245.361 44.604 239.462C54.8077 233.563 54.8146 224.029 44.604 218.13C34.3935 212.231 17.8634 212.238 7.65287 218.13Z" fill="#86889D"/>
<path d="M9.18432 219.407C-0.177659 224.588 -0.184558 232.998 9.18432 238.186C18.5532 243.374 33.7242 243.381 43.093 238.186C52.4619 232.991 52.455 224.588 43.093 219.4C33.7311 214.212 18.5394 214.219 9.18432 219.407Z" fill="#86889D"/>
<path opacity="0.2" d="M9.18432 219.407C-0.177659 224.588 -0.184558 232.998 9.18432 238.186C18.5532 243.374 33.7242 243.381 43.093 238.186C52.4619 232.991 52.455 224.588 43.093 219.4C33.7311 214.212 18.5394 214.219 9.18432 219.407Z" fill="black"/>
<path opacity="0.1" d="M9.18432 219.406C-0.177659 224.587 -0.184558 232.997 9.18432 238.185C9.91925 238.592 10.6745 238.96 11.4472 239.289C11.4472 239.248 12.551 233.68 13.8895 226.409C14.7932 221.497 18.8913 216.75 25.9007 215.522C19.8364 215.556 13.7998 216.847 9.18432 219.406Z" fill="black"/>
<path d="M49.6885 227.72C49.9165 227.439 50.0408 227.088 50.0404 226.726C50.0431 226.405 49.9493 226.091 49.771 225.824C49.5927 225.557 49.3383 225.349 49.0407 225.229C48.7431 225.108 48.4161 225.08 48.1022 225.148C47.7884 225.215 47.5022 225.376 47.2807 225.609C47.2807 225.443 47.2807 225.284 47.2807 225.119C47.2807 223.827 46.7676 222.588 45.8541 221.675C44.9407 220.761 43.7018 220.248 42.41 220.248C41.5694 220.25 40.743 220.466 40.0092 220.876C40.1524 220.553 40.2122 220.199 40.1832 219.846C40.1541 219.494 40.037 219.155 39.8427 218.86C39.6483 218.564 39.383 218.323 39.071 218.157C38.7589 217.991 38.4102 217.905 38.0567 217.909C37.6735 217.91 37.2974 218.012 36.9667 218.206C37.0048 217.957 37.0255 217.706 37.0288 217.454C37.0247 216.219 36.6069 215.022 35.842 214.053C35.0772 213.084 34.0095 212.399 32.8097 212.108C31.6099 211.817 30.3473 211.937 29.2236 212.449C28.0999 212.96 27.1801 213.833 26.6113 214.929C26.4634 214.584 26.2175 214.29 25.9042 214.083C25.5909 213.877 25.2238 213.767 24.8486 213.767C24.4733 213.767 24.1062 213.877 23.7929 214.083C23.4796 214.29 23.2338 214.584 23.0859 214.929C22.5905 214.129 21.848 213.513 20.9708 213.173C20.0937 212.834 19.1298 212.789 18.2251 213.046C17.3203 213.304 16.5242 213.849 15.9572 214.6C15.3902 215.35 15.0833 216.265 15.083 217.206C15.0825 217.421 15.1033 217.636 15.1451 217.847C14.8578 217.615 14.5005 217.486 14.1309 217.481C13.7058 217.483 13.2987 217.653 12.9987 217.955C12.6988 218.256 12.5303 218.664 12.5303 219.089C11.9853 218.773 11.3707 218.596 10.741 218.573C10.1112 218.551 9.48563 218.684 8.91956 218.961C8.35349 219.238 7.86436 219.65 7.49541 220.161C7.12645 220.672 6.88904 221.266 6.80416 221.89C6.53391 221.784 6.24594 221.73 5.95558 221.731C5.85451 221.724 5.75309 221.724 5.65202 221.731C5.61783 221.725 5.58272 221.725 5.54853 221.731C5.4521 221.741 5.35713 221.761 5.26567 221.793C5.19444 221.818 5.12523 221.848 5.0587 221.883C4.6475 222.1 4.29781 222.418 4.04211 222.806C3.78642 223.194 3.633 223.641 3.59611 224.105C3.57845 224.205 3.57845 224.308 3.59611 224.408C3.59271 224.459 3.59271 224.509 3.59611 224.56C3.61312 224.64 3.63618 224.718 3.6651 224.794C3.6651 224.884 3.71339 224.974 3.74789 225.077L3.80308 225.215C3.97617 225.622 4.24057 225.983 4.57577 226.271C4.67061 226.354 4.76962 226.432 4.87243 226.505C3.93087 226.794 3.10353 227.37 2.50696 228.154C1.91039 228.937 1.57467 229.888 1.5471 230.873C1.42292 233.418 3.20286 234.895 5.7555 235.778C6.87282 236.756 8.09986 237.601 9.41199 238.296C18.7395 243.463 33.8621 243.47 43.2172 238.296C44.8096 237.445 46.2597 236.351 47.5153 235.053C48.357 234.874 50.061 234.46 51.02 231.652C51.2363 230.94 51.2242 230.177 50.9854 229.472C50.7466 228.767 50.2931 228.154 49.6885 227.72Z" fill="white"/>
<path d="M47.4745 235.074C46.2189 236.372 44.7688 237.466 43.1764 238.317C33.842 243.484 18.7194 243.477 9.37119 238.317C8.05906 237.622 6.83202 236.777 5.71471 235.799C2.79642 235.495 1.38212 233.439 1.5063 230.893C1.53387 229.909 1.86959 228.958 2.46616 228.175C3.06273 227.391 3.89007 226.815 4.83163 226.526C4.72882 226.453 4.62981 226.375 4.53497 226.292C4.19977 226.004 3.93537 225.643 3.76228 225.236L3.70709 225.098C3.6726 224.995 3.645 224.905 3.6243 224.815C3.60505 224.74 3.59122 224.664 3.58291 224.588C3.57951 224.537 3.57951 224.486 3.58291 224.436C3.56525 224.335 3.56525 224.233 3.58291 224.132C3.62483 223.668 3.78346 223.223 4.04402 222.837C4.30458 222.451 4.6586 222.137 5.0731 221.925C5.13963 221.889 5.20883 221.859 5.28007 221.835C5.37152 221.803 5.46649 221.782 5.56293 221.773C5.59711 221.766 5.63223 221.766 5.66641 221.773C5.76748 221.766 5.8689 221.766 5.96997 221.773C6.26033 221.771 6.5483 221.825 6.81855 221.931C6.93942 221.004 7.39427 220.153 8.09786 219.537C8.80145 218.921 9.7055 218.583 10.6406 218.585C8.26735 219.827 7.93619 224.381 12.5723 225.029C12.5634 225.386 12.6416 225.74 12.8003 226.06C12.959 226.379 13.1934 226.656 13.483 226.864C14.1848 227.236 15.0038 227.32 15.7666 227.099C15.7666 227.099 13.897 229.99 16.1115 232.087C16.7392 232.685 17.5258 233.09 18.3774 233.252C19.2289 233.415 20.1093 233.329 20.9133 233.004C20.9133 233.004 21.0236 235.398 22.5414 236.206C24.0592 237.013 24.8802 236.302 24.9492 236.247C25.0182 236.192 24.4387 237.109 25.9564 237.489C26.3802 237.606 26.8322 237.561 27.2248 237.363C27.6175 237.166 27.9227 236.829 28.0813 236.419C28.0813 236.419 29.813 239.683 32.8003 239.138C33.6226 239.015 34.3898 238.65 35.0041 238.09C35.6184 237.53 36.0521 236.799 36.2498 235.992C36.4354 236.372 36.7334 236.687 37.1035 236.893C37.4736 237.099 37.8981 237.187 38.3195 237.144C39.8442 237.033 40.1201 235.226 40.1201 235.226C40.1201 235.226 42.8108 238.186 47.4745 235.074Z" fill="#EBEBEB"/>
<path d="M24.9413 236.247C24.61 236.703 24.143 237.042 23.6072 237.216C23.0714 237.39 22.4942 237.39 21.9583 237.217C21.4224 237.043 20.9552 236.704 20.6235 236.248C20.2919 235.793 20.1128 235.244 20.112 234.681C20.1116 234.096 20.3041 233.528 20.6596 233.064C21.0151 232.6 21.5137 232.266 22.0782 232.115C21.7887 232.511 21.6148 232.98 21.5758 233.47C21.5368 233.959 21.6342 234.45 21.8571 234.887C22.0801 235.324 22.42 235.691 22.839 235.947C23.258 236.203 23.7397 236.338 24.2307 236.337C24.4703 236.336 24.7089 236.305 24.9413 236.247Z" fill="#E0E0E0"/>
<path d="M28.0664 236.419C28.0948 236.694 28.0572 236.971 27.9567 237.228C27.8562 237.485 27.6957 237.715 27.4886 237.897C27.2815 238.08 27.0337 238.21 26.7661 238.277C26.4984 238.344 26.2185 238.347 25.9498 238.284C25.681 238.221 25.4312 238.095 25.221 237.916C25.0109 237.737 24.8466 237.51 24.7419 237.255C24.6371 237 24.5949 236.723 24.6188 236.448C24.6426 236.173 24.7318 235.908 24.879 235.674C24.9223 236.036 25.0765 236.376 25.3206 236.647C25.5005 236.845 25.7235 236.999 25.9725 237.098C26.2215 237.196 26.4897 237.235 26.7565 237.213C27.0232 237.191 27.2814 237.108 27.5109 236.971C27.7404 236.833 27.9352 236.644 28.0802 236.419H28.0664Z" fill="#E0E0E0"/>
<path d="M17.4624 223.808C17.6958 224.164 17.8405 224.571 17.8841 224.994C17.9278 225.418 17.8693 225.846 17.7135 226.242C17.5576 226.638 17.3091 226.992 16.9886 227.272C16.6681 227.552 16.2851 227.752 15.8716 227.854C15.4581 227.955 15.0262 227.956 14.6122 227.857C14.1982 227.757 13.8142 227.56 13.4922 227.281C13.1703 227.002 12.9199 226.651 12.762 226.255C12.6041 225.86 12.5433 225.432 12.5848 225.008C12.8898 225.478 13.337 225.838 13.8611 226.036C14.189 226.163 14.5386 226.223 14.8898 226.213C15.241 226.204 15.587 226.125 15.9076 225.982C16.2282 225.838 16.5173 225.632 16.7581 225.376C16.9989 225.121 17.1867 224.82 17.3106 224.491C17.39 224.271 17.441 224.041 17.4624 223.808Z" fill="#E0E0E0"/>
<path d="M13.3238 226.333C13.4515 226.578 13.5187 226.85 13.5196 227.127C13.5205 227.403 13.4553 227.676 13.3292 227.922C13.2032 228.168 13.02 228.381 12.7951 228.541C12.5702 228.702 12.3101 228.807 12.0364 228.847C11.7628 228.886 11.4836 228.86 11.2223 228.77C10.961 228.679 10.7251 228.528 10.5344 228.327C10.3436 228.127 10.2036 227.884 10.1259 227.619C10.0483 227.354 10.0354 227.074 10.0882 226.802C10.254 227.128 10.52 227.391 10.8471 227.554C11.2598 227.757 11.7363 227.789 12.172 227.641C12.6078 227.494 12.9674 227.18 13.172 226.768C13.24 226.629 13.2909 226.483 13.3238 226.333Z" fill="#E0E0E0"/>
<path d="M40.9199 230.217C40.9458 230.642 40.8694 231.067 40.6971 231.457C40.5248 231.846 40.2615 232.189 39.9295 232.456C39.5974 232.722 39.2063 232.905 38.7888 232.99C38.3713 233.074 37.9398 233.057 37.5302 232.94C37.1207 232.823 36.7453 232.609 36.4353 232.317C36.1254 232.025 35.8901 231.663 35.749 231.261C35.608 230.859 35.5654 230.429 35.6249 230.008C35.6843 229.586 35.844 229.185 36.0906 228.837C36.1192 229.4 36.3299 229.937 36.6908 230.369C37.1404 230.912 37.7866 231.256 38.4885 231.324C39.1904 231.393 39.8909 231.181 40.437 230.735C40.6204 230.585 40.7829 230.411 40.9199 230.217Z" fill="#E0E0E0"/>
<path d="M43.776 228.934C43.8044 229.209 43.7668 229.486 43.6663 229.743C43.5658 230 43.4053 230.229 43.1982 230.412C42.9911 230.594 42.7433 230.725 42.4757 230.792C42.208 230.859 41.9281 230.861 41.6593 230.799C41.3906 230.736 41.1407 230.61 40.9306 230.431C40.7205 230.252 40.5562 230.025 40.4515 229.77C40.3467 229.514 40.3045 229.238 40.3284 228.963C40.3522 228.688 40.4414 228.422 40.5886 228.189C40.6245 228.506 40.7471 228.808 40.9431 229.06C41.139 229.312 41.4007 229.506 41.6994 229.619C41.998 229.733 42.3222 229.761 42.6362 229.703C42.9502 229.644 43.2419 229.5 43.4793 229.286C43.5914 229.18 43.6909 229.062 43.776 228.934Z" fill="#E0E0E0"/>
<path d="M36.2633 226.037C36.509 226.157 36.7223 226.335 36.8855 226.554C37.0487 226.774 37.1571 227.029 37.2016 227.299C37.2726 227.714 37.1901 228.141 36.9694 228.499C36.7487 228.858 36.405 229.123 36.0026 229.247C35.6001 229.37 35.1665 229.343 34.7828 229.17C34.399 228.997 34.0915 228.69 33.9177 228.306C34.2033 228.448 34.5224 228.508 34.8399 228.479C35.1574 228.451 35.4609 228.336 35.717 228.146C35.9731 227.956 36.1719 227.699 36.2914 227.404C36.4109 227.108 36.4466 226.786 36.3944 226.471C36.3728 226.321 36.3286 226.174 36.2633 226.037Z" fill="#E0E0E0"/>
<path d="M62.2658 48.0346L59.8442 43.4882L61.7897 37.8724V34.4229L55.8359 37.8724V41.3219L58.3954 45.758C58.4373 45.8266 58.5002 45.8798 58.5748 45.9097L62.2658 48.0346Z" fill="#86889D"/>
<path opacity="0.2" d="M62.2658 48.0346L59.8442 43.4882L61.7897 37.8724V34.4229L55.8359 37.8724V41.3219L58.3954 45.758C58.4373 45.8266 58.5002 45.8798 58.5748 45.9097L62.2658 48.0346Z" fill="black"/>
<path d="M74.0839 4.37064C74.0528 3.74951 73.8754 3.14451 73.566 2.60499C73.2567 2.06547 72.8243 1.60669 72.3039 1.26607L70.8482 0.424393C70.2939 0.145346 69.682 0 69.0614 0C68.4408 0 67.8288 0.145346 67.2745 0.424393L46.5775 12.3873C46.0577 12.7258 45.625 13.1821 45.3145 13.7191C45.0041 14.2561 44.8246 14.8587 44.7906 15.4781V44.1504C44.8246 44.7698 45.0041 45.3724 45.3145 45.9094C45.625 46.4464 46.0577 46.9027 46.5775 47.2412L48.0263 48.076C48.5796 48.3582 49.1919 48.5054 49.8131 48.5054C50.4343 48.5054 51.0466 48.3582 51.6 48.076L59.5476 43.4743L62.1072 47.8966C62.143 47.9605 62.1965 48.0127 62.2612 48.0468C62.326 48.081 62.3993 48.0957 62.4722 48.0891C62.5452 48.0825 62.6147 48.055 62.6723 48.0098C62.7299 47.9647 62.7733 47.9038 62.7971 47.8345L65.4946 40.0386L72.2763 36.12C72.8028 35.7802 73.2412 35.3204 73.5555 34.7783C73.8697 34.2362 74.0508 33.6273 74.0839 33.0016V4.37064Z" fill="#86889D"/>
<path opacity="0.2" d="M44.777 44.1505C44.811 44.7698 44.9905 45.3725 45.301 45.9095C45.6114 46.4465 46.0441 46.9027 46.5639 47.2412L48.0127 48.076C48.5166 48.3297 49.0686 48.4738 49.6322 48.4988C50.1959 48.5238 50.7584 48.4291 51.2828 48.2209C50.4411 48.5382 49.7995 48.0622 49.7995 47.0481V18.3895C49.8225 17.7681 50.0029 17.1628 50.3239 16.6303L45.3014 13.7327C44.9796 14.2648 44.7991 14.8704 44.777 15.4919V44.1505Z" fill="black"/>
<path opacity="0.4" d="M74.0356 3.86712C73.8286 3.10823 73.1318 2.86676 72.3108 3.3428L51.6137 15.3057C51.0823 15.6298 50.6466 16.0893 50.3512 16.6372L45.3356 13.7396C45.6325 13.1951 46.065 12.7364 46.5913 12.4081L67.2883 0.438307C67.8426 0.15926 68.4546 0.013916 69.0752 0.013916C69.6958 0.013916 70.3077 0.15926 70.862 0.438307L72.3039 1.26619C72.7542 1.55931 73.1399 1.94112 73.4376 2.3883C73.7354 2.83549 73.9388 3.33868 74.0356 3.86712Z" fill="white"/>
<path d="M61.5 14.2429C62.1763 13.8273 62.9338 13.5615 63.7215 13.4633C64.3495 13.3754 64.9888 13.5011 65.5368 13.8201C66.0848 14.1392 66.5097 14.6331 66.7433 15.2226C67.0628 15.9887 67.2134 16.8146 67.1848 17.6442C67.1907 18.3809 67.105 19.1156 66.9295 19.8312C66.7688 20.5005 66.5543 21.1557 66.2879 21.7905C66.0403 22.3989 65.7546 22.9911 65.4325 23.5635C65.1289 24.1223 64.8253 24.6674 64.5425 25.1986C64.2596 25.7298 63.9906 26.2679 63.7629 26.7992C63.537 27.308 63.3771 27.8435 63.2869 28.3928C63.2472 28.6432 63.1802 28.8885 63.0868 29.1241C63.0195 29.3163 62.891 29.4811 62.7211 29.5933L60.1478 31.0766C60.0924 31.1251 60.0213 31.1518 59.9477 31.1518C59.8741 31.1518 59.803 31.1251 59.7477 31.0766C59.6865 31.006 59.6403 30.9238 59.6118 30.8348C59.5833 30.7459 59.5732 30.6521 59.5821 30.5591C59.5785 29.8594 59.6738 29.1626 59.8649 28.4894C60.0442 27.8218 60.2749 27.169 60.5549 26.537C60.8377 25.9161 61.1413 25.309 61.4724 24.7295C61.8036 24.1499 62.1071 23.598 62.39 23.0806C62.6525 22.5972 62.883 22.0971 63.0799 21.5835C63.2646 21.1468 63.3607 20.6778 63.3627 20.2037C63.3627 19.5759 63.211 19.1757 62.9005 18.9964C62.5901 18.817 62.114 18.9136 61.4724 19.2861C60.916 19.569 60.441 19.9893 60.0926 20.5073C59.8359 20.9135 59.6341 21.352 59.4924 21.8112C59.3613 22.232 59.2509 22.6115 59.1612 22.9564C59.1276 23.1118 59.0625 23.2587 58.9699 23.388C58.8774 23.5174 58.7594 23.6264 58.6231 23.7084L56.0981 25.1779C56.0514 25.2132 55.9945 25.2322 55.9359 25.2322C55.8774 25.2322 55.8205 25.2132 55.7738 25.1779C55.7206 25.1184 55.6808 25.0482 55.657 24.9721C55.6332 24.8959 55.626 24.8155 55.6358 24.7364C55.6807 23.8422 55.8359 22.957 56.0981 22.1009C56.3779 21.0757 56.7616 20.0817 57.2433 19.1343C57.7461 18.1497 58.357 17.2241 59.0647 16.3747C59.7437 15.5254 60.5683 14.8036 61.5 14.2429ZM63.3283 35.3402C63.3231 35.5793 63.2667 35.8146 63.1627 36.0301C63.0803 36.2291 62.9411 36.3994 62.7625 36.5199L60.1064 38.0515C60.051 38.1 59.98 38.1267 59.9063 38.1267C59.8327 38.1267 59.7616 38.1 59.7063 38.0515C59.6451 37.9809 59.5989 37.8987 59.5704 37.8098C59.5419 37.7208 59.5318 37.627 59.5407 37.5341V34.2501C59.5458 34.0109 59.6023 33.7757 59.7063 33.5602C59.7864 33.3599 59.9261 33.1889 60.1064 33.0704L62.7625 31.5388C62.8179 31.4903 62.889 31.4635 62.9626 31.4635C63.0362 31.4635 63.1073 31.4903 63.1627 31.5388C63.2239 31.6093 63.2701 31.6916 63.2985 31.7805C63.327 31.8695 63.3371 31.9633 63.3283 32.0562V35.3402Z" fill="#FAFAFA"/>
</svg>
