<svg width="135" height="243" viewBox="0 0 135 243" fill="none" xmlns="http://www.w3.org/2000/svg">
<path d="M25.8056 188.809C27.9581 190.017 39.4312 195.205 52.4496 190.803C65.4681 186.402 70.3871 178.206 77.6242 174.487C84.8612 170.768 92.6226 168.561 97.1622 165.939C101.702 163.317 96.6793 161.469 90.3943 160.903C84.1092 160.337 78.5279 163.062 73.2709 160.993C68.0138 158.923 48.0825 152.169 35.209 157.619C22.3354 163.069 9.44799 174.032 9.379 177.868C9.31001 181.897 15.3605 185.091 22.2871 185.318C23.1729 186.74 24.3776 187.935 25.8056 188.809Z" fill="#E0E0E0"/>
<path d="M74.1736 171.713C69.4615 174.597 65.8258 178.467 60.7688 181.372C48.385 188.443 42.1414 188.878 34.8905 187.512L48.3643 174.224C48.3643 174.224 68.3715 165.89 70.1445 164.435C71.6416 163.214 71.7037 160.143 73.7803 159.647C76.1743 159.074 77.8853 160.337 79.4237 161.772C80.9622 163.207 82.7836 163.717 86.3711 162.462C89.9586 161.206 93.4219 159.46 94.8776 160.157C96.3332 160.854 95.3605 161.985 89.0824 164.883C85.4811 166.546 80.9415 168.629 77.9473 169.643C76.0432 170.292 72.4971 172.886 70.7862 173.935" fill="#FFA8A7"/>
<path d="M96.6649 160.647C97.3548 159.716 95.161 157.26 91.2147 156.818C88.7443 156.519 86.2383 156.82 83.9086 157.694C81.8941 158.384 79.2104 158.474 77.5201 157.694C74.4501 156.266 73.429 156.577 73.5946 158.557C73.5946 158.557 73.1807 160.771 75.7816 161.696C78.3825 162.62 90.8215 162.406 96.6649 160.647Z" fill="#37474F"/>
<path d="M71.5309 164.042C72.8418 166.298 75.8842 165.628 78.43 165.145C80.8377 164.69 89.634 162.331 90.793 164.055C93.187 163.131 95.5464 161.813 96.6434 160.647C96.6434 160.647 96.0087 158.226 91.0345 159.419C87.785 160.199 81.8312 160.606 79.996 160.378C77.5883 160.082 74.3182 157.901 71.8138 158.902C70.7583 160.399 71.1998 161.861 71.5309 164.042Z" fill="#86889D"/>
<path opacity="0.6" d="M71.5309 164.042C72.8418 166.298 75.8842 165.628 78.43 165.145C80.8377 164.69 89.634 162.331 90.793 164.055C93.187 163.131 95.5464 161.813 96.6434 160.647C96.6434 160.647 96.0087 158.226 91.0345 159.419C87.785 160.199 81.8312 160.606 79.996 160.378C77.5883 160.082 74.3182 157.901 71.8138 158.902C70.7583 160.399 71.1998 161.861 71.5309 164.042Z" fill="white"/>
<path d="M13.4482 169.133C15.6628 162.138 21.7271 158.095 27.0807 153.548C32.4343 149.002 41.0305 141.489 41.0305 141.489L70.1444 135.542C72.0278 139.399 74.2838 147.339 74.2838 152.948C74.2838 158.185 73.4835 164.477 64.3354 171.272C58.7817 175.411 54.4077 180.13 50.2338 182.31C45.7081 184.684 39.4851 189.679 31.4133 186.678C27.6878 185.298 25.8941 181.627 26.8461 178.399C26.2045 178.461 25.5629 178.495 24.9696 178.495C24.3763 178.495 23.6381 178.495 23.1414 178.495C21.3277 178.544 19.5198 178.271 17.8015 177.688C13.9932 176.267 12.165 173.19 13.4482 169.133Z" fill="#FFA8A7"/>
<path d="M24.9494 178.474C25.5427 178.474 26.1843 178.433 26.8259 178.37C30.1996 171.168 47.7783 157.253 48.751 156.418L48.7993 156.369L48.682 156.252L47.9921 155.238C47.2998 153.79 46.4826 152.405 45.5499 151.099C45.9494 152.742 46.499 154.344 47.1919 155.887C44.9152 157.922 34.2838 166.925 31.738 169.353C29.0267 171.913 26.2464 174.866 24.9494 178.474Z" fill="#F28F8F"/>
<path d="M45.4602 184.173C49.096 183.8 57.9612 179.495 60.8312 174.714C63.9151 169.554 58.7615 173.334 58.7615 173.334C58.7615 173.334 49.2615 182.234 45.4602 184.173Z" fill="#F28F8F"/>
<path d="M72.0283 139.75L39.1199 143.041C39.1199 143.041 22.8796 155.204 17.2431 162.234C17.2431 162.234 23.1004 162.392 27.1432 165.255C31.186 168.119 32.2002 171.237 32.2002 171.237C32.2002 171.237 35.9602 169.961 41.8588 173.1C45.3076 174.857 48.0264 177.774 49.5374 181.337C49.5374 181.337 52.4281 179.523 56.126 177.363C60.8932 174.604 67.1162 170.782 71.4487 164.628C76.0987 158.032 74.981 144.572 72.0283 139.75Z" fill="#455A64"/>
<path d="M47.9719 155.238C47.2833 153.789 46.4684 152.404 45.5366 151.099C45.936 152.742 46.4857 154.344 47.1785 155.887C44.9018 157.922 34.2704 166.925 31.7247 169.353L31.4142 169.65C31.7339 170.145 31.9999 170.672 32.2076 171.223C38.0028 165.055 48.0754 156.997 48.7653 156.404L48.8136 156.356L48.6963 156.238L47.9719 155.238Z" fill="#37474F"/>
<path d="M57.6362 109.325L57.8018 109.249C68.3573 104.275 72.5933 92.5675 72.0759 81.4601C71.9924 77.9387 71.2749 74.4612 69.9579 71.1943C68.6065 67.916 66.2861 65.1287 63.3072 63.2052C60.9794 61.8194 58.3481 61.0236 55.6424 60.8872C53.2001 60.7216 50.0335 60.763 47.7361 61.7082C46.7357 62.1152 46.5495 62.0255 45.4732 61.784C44.6502 61.5957 43.8017 61.5444 42.962 61.6323C40.6769 61.9558 38.6131 63.1713 37.222 65.0128C35.2765 67.4067 34.4624 71.1805 35.718 73.8918C36.3596 75.2716 37.8981 77.1965 37.8222 78.4728C37.7049 80.3286 36.3596 81.7774 34.8694 83.4056C33.3792 85.0338 31.7373 86.2135 31.0198 88.573C30.4057 90.6013 30.2954 94.8994 34.8349 96.5482C28.2257 105.282 34.7452 110.022 38.3465 111.278C40.7523 112.125 43.3141 112.436 45.8527 112.188C49.861 111.698 53.9452 111.043 57.6362 109.325Z" fill="#37474F"/>
<path d="M34.8215 124.158C38.7056 120.157 45.7289 111.112 45.7289 111.112L49.6958 97.3553C49.7924 97.3967 47.6744 97.4036 47.0328 97.3553C42.7416 97.645 41.5135 98.0107 38.8091 100.929C36.6911 103.254 28.6055 114.299 25.7907 118.011L18.3328 108.49C16.546 105.786 16.8357 102.764 15.9044 100.556C14.973 98.3487 13.4828 97.376 12.2824 95.3822C11.0819 93.3883 10.7922 92.0844 9.80562 93.0986C8.81906 94.1127 9.9574 96.8723 10.1092 97.5002C10.261 98.128 11.758 99.9907 9.2468 99.0179C6.73556 98.0452 2.8514 93.4573 1.85104 92.5191C0.850686 91.5808 0.326371 93.0365 0.54714 94.1817C0.767908 95.327 -0.30145 97.921 0.0848957 99.8251C0.498837 101.84 0.774802 102.764 2.74102 104.723C4.55547 106.552 8.99155 108.787 10.7232 111.181C12.4549 113.575 16.1596 121.019 18.4225 125.503C21.2994 131.202 23.7486 133.092 26.9773 131.161C30.206 129.229 33.3934 125.634 34.8215 124.158Z" fill="#FFA8A7"/>
<path d="M25.804 118.018C27.2204 119.354 28.1708 121.11 28.5153 123.026C28.5153 123.026 29.3501 120.267 26.4456 117.169L25.804 118.018Z" fill="#F28F8F"/>
<path d="M39.8655 121.598C34.5878 117.259 36.3263 111.602 38.2512 107.8C42.1077 100.211 46.116 97.1896 47.7856 97.2172L58.2859 97.3138C63.3015 98.0037 67.1857 97.6588 68.3999 97.9416C71.4838 98.6729 71.5528 101.219 71.67 104.503C71.808 108.104 72.1875 107.718 71.2492 113.678C71.2492 113.678 69.8211 118.294 69.2554 120.357C68.6897 122.419 67.6479 125.621 68.4965 128.953C68.8207 130.243 69.6969 131.498 71.0146 135.051C72.1808 137.974 73.0768 140.997 73.6915 144.082C73.6915 144.082 66.5027 150.747 51.5387 148.608C40.5002 147.035 38.3615 143.406 38.3615 143.406L40.4313 130.567C40.1484 126.076 40.0794 124.455 39.8655 121.598Z" fill="#86889D"/>
<path opacity="0.1" d="M46.7225 120.474C46.7225 120.474 51.0344 123.923 56.0569 122.261C57.4648 121.843 58.7408 121.068 59.761 120.011C60.7812 118.955 61.5111 117.653 61.8796 116.231C61.8796 116.231 62.3143 121.943 55.981 123.778C54.2871 124.289 52.4743 124.244 50.8081 123.649C49.1419 123.054 47.7101 121.942 46.7225 120.474Z" fill="black"/>
<path d="M84.378 86.7514C82.1358 83.9918 76.0302 76.9962 74.9125 75.6026C74.2197 74.7203 73.3057 74.0372 72.2633 73.6226C71.3474 73.2796 70.5149 72.7458 69.821 72.0565C69.3795 71.6288 68.4412 69.8212 68.0618 69.3452C66.9315 67.8925 65.5759 66.6301 64.0465 65.6059C62.2735 64.371 60.597 63.7915 58.7826 62.6117C57.7132 61.9218 56.4093 61.2319 57.5753 60.066C57.9391 59.695 58.4049 59.4404 58.9137 59.3347C61.3904 58.8656 64.0672 59.6452 67.1925 60.4593C68.525 60.7956 69.8378 61.2056 71.125 61.6873C71.863 61.9355 72.5604 62.2912 73.1947 62.7428C73.9531 63.4512 74.5812 64.2871 75.0505 65.2127C76.5062 67.5859 79.8246 69.1727 81.8943 70.9803C84.3159 73.1052 86.7236 74.8851 89.4833 77.2308C91.9669 79.3419 95.0025 82.0601 96.9963 84.6955C98.6935 86.9515 98.1829 88.2968 97.4999 89.3041C94.0504 94.3818 86.3787 100.142 83.6467 102.412C80.7353 104.82 78.6932 106.317 76.0923 108.621C74.2646 110.362 72.5371 112.205 70.918 114.141C70.756 114.35 70.5266 114.496 70.2687 114.555C70.0109 114.614 69.7406 114.582 69.5037 114.465C66.4888 112.823 64.4812 104.427 66.8131 99.287C67.4064 97.9624 68.0273 97.9072 68.0273 97.9072C72.7807 94.568 84.4194 86.7721 84.4194 86.7721" fill="#FFA8A7"/>
<path d="M84.3775 86.7515C85.7799 88.536 87.664 89.8815 89.8071 90.6287C89.8071 90.6287 86.9233 91.3186 83.0598 87.7173L84.3775 86.7515Z" fill="#F28F8F"/>
<path d="M41.4793 81.3222C41.5207 89.601 44.1769 91.6708 45.5084 92.3055C46.8399 92.9402 49.4477 92.6021 51.9797 92.2296L51.89 97.1969C51.89 97.1969 48.9303 100.198 49.1304 102.482C49.3304 104.765 53.6561 105.089 56.9677 102.923C58.7813 101.716 60.4302 100.278 61.8729 98.6457C62.1497 98.3301 62.306 97.927 62.3144 97.5073L62.5145 85.779C62.5145 85.779 63.8943 87.2692 66.3503 85.6341C66.884 85.3079 67.3438 84.8741 67.7006 84.3605C68.0574 83.8468 68.3034 83.2644 68.4228 82.6505C68.5422 82.0366 68.5325 81.4045 68.3942 80.7945C68.2559 80.1846 67.9922 79.6101 67.6197 79.1076C66.578 77.8382 63.8736 77.7278 62.5421 79.6251C61.7901 81.0049 61.8522 82.0328 60.8587 81.8672C59.8652 81.7017 59.7825 80.584 59.7135 79.7975C59.6445 79.011 59.679 78.742 59.6169 77.7278C57.1677 77.2035 54.6358 73.7954 54.3529 71.3048C52.6967 72.1184 50.8719 72.5297 49.0269 72.5053C46.2673 72.319 44.8875 71.7671 43.5077 69.7939C43.1814 70.2434 42.9233 70.7385 42.7419 71.2634C42.361 72.3186 42.077 73.4062 41.8933 74.5129C41.5723 76.7678 41.4339 79.045 41.4793 81.3222Z" fill="#FFA8A7"/>
<path d="M51.9788 92.2296C54.6488 91.926 60.1542 90.4496 61.0441 88.2971C60.6914 89.3989 60.0041 90.3635 59.0779 91.0567C57.4153 92.4365 51.9512 93.9129 51.9512 93.9129L51.9788 92.2296Z" fill="#F28F8F"/>
<path d="M50.689 79.6183C50.6749 79.7708 50.6912 79.9246 50.7372 80.0707C50.7831 80.2168 50.8578 80.3522 50.9567 80.4692C51.0556 80.5861 51.1769 80.6821 51.3133 80.7516C51.4498 80.8211 51.5987 80.8627 51.7515 80.874C51.9887 80.8998 52.2282 80.8539 52.4391 80.7422C52.65 80.6305 52.8225 80.4582 52.9345 80.2475C53.0465 80.0368 53.0927 79.7973 53.0673 79.5601C53.0418 79.3228 52.9458 79.0986 52.7917 78.9165C52.6375 78.7343 52.4323 78.6025 52.2026 78.5382C51.9728 78.4738 51.729 78.4797 51.5026 78.5553C51.2763 78.6309 51.0778 78.7725 50.9328 78.962C50.7877 79.1515 50.7028 79.3801 50.689 79.6183Z" fill="#263238"/>
<path d="M42.9484 79.1211C42.9254 79.4009 43.0141 79.6784 43.1951 79.893C43.376 80.1076 43.6346 80.2418 43.9142 80.2664C44.0557 80.2831 44.1991 80.2694 44.3348 80.2262C44.4705 80.1831 44.5955 80.1114 44.7013 80.016C44.8071 79.9207 44.8913 79.8038 44.9484 79.6733C45.0054 79.5427 45.0338 79.4015 45.0319 79.2591C45.055 79.1159 45.0481 78.9695 45.0114 78.8291C44.9747 78.6888 44.9092 78.5577 44.8189 78.4441C44.7286 78.3306 44.6156 78.2372 44.4871 78.1698C44.3587 78.1025 44.2175 78.0627 44.0728 78.0531C43.9281 78.0434 43.7829 78.0641 43.6467 78.1138C43.5104 78.1635 43.386 78.2411 43.2814 78.3416C43.1769 78.4422 43.0945 78.5635 43.0395 78.6977C42.9845 78.8319 42.9582 78.9761 42.9621 79.1211H42.9484Z" fill="#263238"/>
<path d="M48.123 77.3416L47.7435 85.1443L44.1008 83.9301L48.123 77.3416Z" fill="#F28F8F"/>
<path d="M54.987 76.6239L52.9173 74.6646C52.6558 74.9495 52.5159 75.3254 52.5275 75.712C52.5391 76.0987 52.7013 76.4655 52.9794 76.7343C53.1158 76.8642 53.2773 76.9649 53.4541 77.03C53.6308 77.0952 53.819 77.1235 54.0071 77.1131C54.1952 77.1028 54.3792 77.054 54.5477 76.9699C54.7162 76.8858 54.8657 76.768 54.987 76.6239Z" fill="#263238"/>
<path d="M51.9521 85.6133L48.2818 86.8068C48.4563 87.2993 48.8141 87.7055 49.2806 87.9407C49.7472 88.1759 50.2865 88.2219 50.7861 88.0693C51.0277 87.99 51.2506 87.8624 51.4414 87.6942C51.6321 87.5261 51.7867 87.321 51.8957 87.0913C52.0047 86.8616 52.066 86.6121 52.0757 86.3581C52.0853 86.104 52.0433 85.8506 51.9521 85.6133Z" fill="#B16668"/>
<path d="M50.7858 88.0693C51.124 87.9585 51.423 87.7525 51.6469 87.4759C51.8709 87.1993 52.0103 86.864 52.0483 86.5102C51.8486 86.43 51.6357 86.3879 51.4205 86.386C50.9631 86.3856 50.5233 86.5619 50.1929 86.8782C49.8625 87.1945 49.667 87.6262 49.6475 88.0831C50.0197 88.1926 50.4163 88.1878 50.7858 88.0693Z" fill="#F28F8F"/>
<path d="M44.2597 74.03L41.9761 75.7617C42.0813 75.9163 42.2169 76.0479 42.3745 76.1485C42.5321 76.2492 42.7086 76.3167 42.8931 76.347C43.0777 76.3773 43.2664 76.3698 43.448 76.325C43.6295 76.2801 43.8001 76.1988 43.9492 76.0859C44.2543 75.8481 44.4566 75.5024 44.5143 75.1199C44.5721 74.7374 44.481 74.3473 44.2597 74.03Z" fill="#263238"/>
<path d="M108.71 182.158C105.37 184.083 105.37 187.208 108.71 189.133C112.049 191.058 117.444 191.058 120.776 189.133C124.108 187.208 124.115 184.083 120.776 182.158C117.437 180.233 112.042 180.24 108.71 182.158Z" fill="#E0E0E0"/>
<path d="M123.55 162.4H105.896L107.697 185.601C107.772 186.45 108.435 187.285 109.704 187.926C112.395 189.306 116.845 189.306 119.632 187.926C120.943 187.285 121.626 186.45 121.702 185.601L123.55 162.4Z" fill="#86889D"/>
<path d="M120.922 159.378C117.417 157.708 111.829 157.708 108.434 159.378C105.04 161.047 105.047 163.752 108.434 165.421C111.822 167.091 117.403 167.091 120.922 165.421C124.44 163.752 124.461 161.047 120.922 159.378Z" fill="#86889D"/>
<g opacity="0.3">
<path d="M120.922 159.378C117.417 157.708 111.829 157.708 108.434 159.378C105.04 161.047 105.047 163.752 108.434 165.421C111.822 167.091 117.403 167.091 120.922 165.421C124.44 163.752 124.461 161.047 120.922 159.378Z" fill="black"/>
</g>
<path d="M107.158 164.614C107.552 164.93 107.98 165.201 108.434 165.421C111.828 167.091 117.403 167.091 120.921 165.421C121.391 165.201 121.835 164.93 122.246 164.614C121.778 164.191 121.247 163.842 120.673 163.579C117.306 161.979 111.939 161.979 108.689 163.579C108.129 163.845 107.613 164.194 107.158 164.614Z" fill="#37474F"/>
<path d="M67.8881 204.242C52.5378 213.108 52.5378 227.471 67.8881 236.33C83.2384 245.188 108.116 245.195 123.467 236.33C138.817 227.464 138.81 213.108 123.467 204.242C108.123 195.377 83.2522 195.418 67.8881 204.242Z" fill="#E0E0E0"/>
<path d="M122.681 202.413C107.627 193.727 83.2252 193.727 68.1785 202.413V200.847C60.3067 205.394 56.5605 211.417 56.9192 217.37C56.5605 223.324 60.3067 229.34 68.1715 233.887C83.2252 242.579 107.634 242.579 122.674 233.887C137.714 225.194 137.734 211.106 122.681 202.413Z" fill="#86889D"/>
<path d="M122.681 200.854C137.735 209.54 137.728 223.621 122.681 232.321C107.634 241.02 83.2187 241.013 68.1788 232.321C53.1389 223.628 53.132 209.554 68.1788 200.847C83.2256 192.141 107.627 192.161 122.681 200.854Z" fill="#86889D"/>
<path opacity="0.6" d="M122.681 200.854C137.735 209.54 137.728 223.621 122.681 232.321C107.634 241.02 83.2187 241.013 68.1788 232.321C53.1389 223.628 53.132 209.554 68.1788 200.847C83.2256 192.141 107.627 192.161 122.681 200.854Z" fill="white"/>
<path d="M76.9409 203.876C66.5923 209.85 66.5923 219.53 76.9409 225.504C87.2894 231.479 104.061 231.479 114.403 225.504C124.744 219.53 124.751 209.85 114.403 203.876C104.054 197.901 87.2894 197.901 76.9409 203.876Z" fill="#86889D"/>
<path d="M76.9409 203.876C66.5923 209.85 66.5923 219.53 76.9409 225.504C87.2894 231.479 104.061 231.479 114.403 225.504C124.744 219.53 124.751 209.85 114.403 203.876C104.054 197.901 87.2894 197.901 76.9409 203.876Z" fill="#86889D"/>
<path d="M78.2376 204.614C68.5789 210.182 68.5789 219.206 78.2376 224.766C87.8962 230.327 103.509 230.334 113.147 224.766C122.785 219.199 122.805 210.182 113.147 204.614C103.488 199.047 87.8548 199.047 78.2376 204.614Z" fill="#86889D"/>
<path opacity="0.6" d="M78.2376 204.614C68.5789 210.182 68.5789 219.206 78.2376 224.766C87.8962 230.327 103.509 230.334 113.147 224.766C122.785 219.199 122.805 210.182 113.147 204.614C103.488 199.047 87.8548 199.047 78.2376 204.614Z" fill="white"/>
<path opacity="0.1" d="M60.5138 215.591C60.093 218.75 61.4866 221.841 62.8457 224.732C63.1633 225.651 63.6691 226.494 64.3307 227.207C64.9924 227.919 65.7954 228.486 66.6885 228.871L71.5178 231.555C71.9552 231.845 72.4531 232.032 72.9735 232.1C74.0152 232.162 74.7672 231.203 75.6227 230.61C82.2044 226.008 95.8161 217.654 95.8161 217.654C95.8161 217.654 96.1611 219.516 96.2577 220.13C96.6026 222.324 96.874 224.53 97.0718 226.746C97.2718 229.009 97.3477 231.479 96.0438 233.342C95.5471 234.032 94.8365 234.722 94.7261 235.563C94.7155 236.083 94.8711 236.592 95.1702 237.016C95.4693 237.44 95.8963 237.758 96.3888 237.923C97.3814 238.23 98.4297 238.315 99.4588 238.171C101.451 238.087 103.434 237.856 105.392 237.481C109.987 236.488 114.071 233.949 118.052 231.452C116.803 230.072 115.009 229.382 113.312 228.623C108.047 226.151 103.188 222.895 98.9 218.964C104.799 219.323 117.479 220.089 125.999 219.944C126.785 219.949 127.559 219.754 128.248 219.378C128.794 219.113 129.217 218.65 129.431 218.083C129.645 217.516 129.634 216.888 129.401 216.329C129.123 215.737 128.745 215.198 128.283 214.735L120.894 206.456C120.112 205.504 119.223 204.645 118.245 203.897C117.023 203.098 115.701 202.465 114.312 202.013C110.001 200.406 105.544 198.764 100.942 198.916C100.648 198.906 100.356 198.97 100.094 199.102C99.7746 199.362 99.5632 199.73 99.5002 200.137C98.1204 205.152 99.5002 210.692 97.6306 215.529C97.5238 215.923 97.279 216.266 96.9407 216.494C96.5267 216.701 95.892 216.288 95.4505 216.15C91.0765 214.77 86.8474 213.673 82.4734 212.3C80.7676 211.821 79.1113 211.182 77.5268 210.389C75.8504 209.485 74.3671 208.236 72.6147 207.477C67.2956 205.159 61.2175 210.361 60.5138 215.591Z" fill="black"/>
<path d="M95.4295 216.115L95.4847 217.495C97.5978 217.806 99.7303 217.968 101.866 217.978C105.95 218.054 123.75 218.723 124.599 218.171C125.978 217.295 124.316 215.246 124.316 215.246H96.1194L95.4295 216.115Z" fill="#FFBDA7"/>
<path d="M83.294 223.621C83.9425 223.214 88.8133 220.324 89.448 219.91C90.4828 219.22 91.5177 218.564 92.4973 217.84C92.8768 217.55 93.1872 217.267 92.8285 216.108C92.4501 215.971 92.0598 215.869 91.6625 215.805C90.3743 215.686 89.076 215.866 87.8681 216.329C85.1913 217.191 82.6455 218.399 80.0377 219.427C78.0473 220.097 76.1382 220.988 74.346 222.083C73.2159 222.908 72.1609 223.832 71.1932 224.842C70.5366 225.368 70.0712 226.096 69.8685 226.912C69.7099 228.078 70.2618 229.955 71.4346 230.113C75.5314 228.223 79.4938 226.054 83.294 223.621Z" fill="#FFBDA7"/>
<path d="M117.466 203.338C117.887 203.111 118.356 202.984 118.834 202.968C119.313 202.951 119.789 203.045 120.225 203.242C120.889 203.55 121.482 203.994 121.964 204.545C122.654 205.339 123.557 205.291 125.572 206.719C126.706 207.385 127.534 208.47 127.876 209.74C128.194 210.396 127.987 211.244 128.221 211.941C128.456 212.638 129.118 213.183 129.449 213.873C129.781 214.509 129.881 215.241 129.732 215.943C129.65 216.293 129.47 216.613 129.213 216.865C128.957 217.118 128.635 217.293 128.283 217.371C128.049 217.412 127.814 217.371 127.593 217.454C127.313 217.56 127.044 217.696 126.793 217.861C126.2 218.164 125.324 218.55 124.723 218.206C124.033 217.805 123.889 217.171 123.889 216.136C123.592 215.329 122.73 214.521 122.226 213.825L119.287 209.74C119.059 209.416 115.596 204.497 115.548 204.532L117.466 203.338Z" fill="#F0997A"/>
<path opacity="0.1" d="M120.529 211.451C120.674 211.665 120.826 211.872 120.977 212.079C121.329 212.569 121.667 213.065 122.04 213.555C122.143 213.707 122.247 213.852 122.357 213.99L122.392 214.031C122.511 214.185 122.645 214.326 122.792 214.452C123.021 214.631 123.195 214.87 123.296 215.142C123.546 215.446 123.751 215.785 123.903 216.149C123.903 217.184 124.034 217.819 124.737 218.219C125.317 218.55 126.193 218.177 126.807 217.874C127.058 217.71 127.327 217.573 127.607 217.467C127.835 217.412 128.07 217.426 128.297 217.384C128.649 217.307 128.971 217.132 129.228 216.879C129.484 216.626 129.664 216.306 129.746 215.956C129.895 215.254 129.795 214.522 129.463 213.886C129.284 213.555 129.074 213.24 128.835 212.948C128.945 213.202 128.973 213.485 128.915 213.755C128.857 214.026 128.716 214.272 128.511 214.459C127.98 214.797 126.283 214.611 125.586 214.245C124.889 213.879 125.165 212.741 124.951 212.217C124.737 211.692 123.73 211.299 123.916 210.195C124.103 209.091 123.406 208.229 121.798 207.691C120.191 207.153 119.936 206.456 119.287 205.766C118.639 205.076 116.852 204.821 115.562 204.58C115.61 204.545 119.066 209.457 119.301 209.781C119.708 210.32 120.122 210.885 120.529 211.451Z" fill="black"/>
<path d="M115.562 204.545C117.24 205.489 118.787 206.649 120.164 207.995L120.219 208.057L120.398 208.243C122.627 210.582 123.896 213.273 123.896 216.129H95.4377L97.4591 214.963L98.1973 214.535L98.2939 214.48L115.562 204.545Z" fill="#FFBDA7"/>
<path opacity="0.3" d="M115.562 204.545C117.24 205.489 118.787 206.649 120.164 207.995L120.219 208.057L120.398 208.243C122.627 210.582 123.896 213.273 123.896 216.129H95.4377L97.4591 214.963L98.1973 214.535L98.2939 214.48L115.562 204.545Z" fill="white"/>
<path d="M95.3054 198.109C95.2503 197.495 96.0644 196.97 97.1337 196.915C98.0818 196.87 99.0318 196.942 99.9623 197.129C101.432 197.398 101.998 197.005 105.185 197.198C105.942 197.223 106.694 197.332 107.427 197.522C108.117 197.743 108.869 197.888 109.642 198.046C109.846 198.079 110.049 198.123 110.249 198.178C111.87 198.591 112.65 199.675 114.292 200.061L114.685 200.137C114.823 200.137 114.968 200.137 115.113 200.171C117.231 200.22 118.804 202.565 117.934 203.062C117.065 203.559 115.561 204.545 115.561 204.545L95.4296 199.716L95.3054 198.109Z" fill="#F0997A"/>
<path opacity="0.1" d="M95.4295 199.737C96.6437 199.378 98.1891 198.805 99.5275 199.047C100.866 199.288 101.866 199.674 103.667 199.405C105.249 199.092 106.891 199.417 108.234 200.309C109.462 201.165 110.663 201.04 111.456 201.316C112.249 201.592 113.45 202.51 114.388 202.489C115.326 202.469 116.754 201.903 116.72 201.448C116.685 200.992 115.637 200.364 114.65 200.123C114.788 200.123 114.933 200.123 115.078 200.157C117.196 200.206 118.769 202.551 117.9 203.048C117.03 203.545 115.526 204.531 115.526 204.531L95.4295 199.737Z" fill="black"/>
<path d="M95.4297 199.737C97.943 199.734 100.453 199.928 102.936 200.316H103.053L103.412 200.378C107.672 201.031 111.783 202.432 115.554 204.518L95.4297 216.122V213.866C95.4262 213.841 95.4262 213.815 95.4297 213.79V199.737Z" fill="#FFBDA7"/>
<path opacity="0.3" d="M95.4297 199.737C97.943 199.734 100.453 199.928 102.936 200.316H103.053L103.412 200.378C107.672 201.031 111.783 202.432 115.554 204.518L95.4297 216.122V213.866C95.4262 213.841 95.4262 213.815 95.4297 213.79V199.737Z" fill="white"/>
<path d="M95.5679 198.109C95.6162 197.495 94.8021 196.97 93.7328 196.915C92.787 196.87 91.8392 196.942 90.9111 197.129C89.4347 197.398 88.8414 197.005 85.6816 197.198C84.9269 197.223 84.1772 197.332 83.4463 197.522C82.7564 197.743 82.0045 197.888 81.2249 198.046C81.0226 198.08 80.8223 198.123 80.6246 198.178C78.9965 198.591 78.2238 199.675 76.5749 200.061L76.1817 200.137C76.0398 200.156 75.897 200.167 75.7539 200.171C73.6359 200.22 72.063 202.565 72.9322 203.062C73.8015 203.559 75.3055 204.545 75.3055 204.545L95.4369 199.716L95.5679 198.109Z" fill="#F0997A"/>
<path opacity="0.1" d="M95.4367 199.737C94.2294 199.378 92.6771 198.805 91.3387 199.047C90.0003 199.288 88.9999 199.674 87.1993 199.405C85.6173 199.094 83.9763 199.419 82.6321 200.309C81.411 201.165 80.2037 201.04 79.4172 201.316C78.6307 201.592 77.4234 202.51 76.4851 202.489C75.5468 202.469 74.1118 201.903 74.1532 201.448C74.1946 200.992 75.2364 200.364 76.1885 200.123C76.0466 200.142 75.9038 200.153 75.7607 200.157C73.6427 200.206 72.0697 202.551 72.939 203.048C73.8083 203.545 75.3123 204.531 75.3123 204.531L95.4367 199.737Z" fill="black"/>
<path d="M95.4371 199.737C92.9238 199.735 90.4142 199.929 87.931 200.316H87.8206L87.4618 200.378C83.2021 201.032 79.0914 202.433 75.3195 204.518L95.4509 216.122V199.737H95.4371Z" fill="#FFBDA7"/>
<path opacity="0.3" d="M95.4371 199.737C92.9238 199.735 90.4142 199.929 87.931 200.316H87.8206L87.4618 200.378C83.2021 201.032 79.0914 202.433 75.3195 204.518L95.4509 216.122V199.737H95.4371Z" fill="white"/>
<path d="M64.1494 216.225C63.0732 216.225 61.6451 215.874 61.5623 215.26C61.4795 214.646 62.1349 214.094 62.4454 213.542C62.8179 212.852 62.4454 212.162 62.4454 211.472C62.4521 211.15 62.4868 210.829 62.5489 210.513C62.6009 210.217 62.7516 209.947 62.9766 209.747C63.4776 209.199 63.8917 208.578 64.2046 207.905C64.2907 207.676 64.4092 207.46 64.5565 207.264C65.2464 206.463 66.4123 206.401 67.0608 205.594C67.3467 205.085 67.6069 204.563 67.8404 204.028C68.1588 203.594 68.5778 203.243 69.0615 203.007C69.3986 202.8 69.7633 202.642 70.1447 202.538C70.4877 202.471 70.8383 202.452 71.1864 202.483C71.9856 202.518 72.7704 202.708 73.4976 203.041C74.1465 203.333 74.7112 203.784 75.1396 204.352C75.3121 204.594 75.2431 204.635 75.0982 204.828L74.2979 205.946L71.4348 209.906L68.3854 214.149C67.9163 214.839 67.4403 215.467 66.9711 216.122L64.1494 216.225Z" fill="#F0997A"/>
<path opacity="0.1" d="M71.4352 209.906L72.7736 208.043L75.2158 204.649C75.2848 204.546 75.2917 204.477 75.1606 204.297C74.7338 203.728 74.1687 203.276 73.5187 202.986C72.7915 202.653 72.0067 202.463 71.2075 202.428C70.8594 202.397 70.5087 202.416 70.1657 202.483C69.7844 202.587 69.4197 202.745 69.0826 202.952C68.5989 203.188 68.1798 203.539 67.8615 203.973C67.8298 204.024 67.8021 204.077 67.7787 204.132C68.2513 203.785 68.7719 203.508 69.3241 203.311C69.6835 203.176 70.0679 203.122 70.4504 203.152C70.8329 203.182 71.2043 203.295 71.5387 203.483C71.7519 203.606 71.9191 203.795 72.0147 204.021C72.0622 204.194 72.0745 204.375 72.0508 204.553C72.0271 204.73 71.9679 204.902 71.8767 205.056C71.4214 205.988 70.4486 206.215 69.738 206.884C69.2482 207.34 69.4758 208.03 67.9926 208.733C66.5093 209.437 65.9228 210.327 66.4127 211.369C66.9025 212.41 66.2402 212.976 65.7987 213.763C65.3571 214.549 66.3506 215.425 66.9715 216.122C67.4406 215.467 67.9167 214.811 68.3858 214.149L71.4352 209.906Z" fill="black"/>
<path d="M66.9712 216.15C66.9783 214.651 67.3201 213.173 67.9715 211.824L68.006 211.755C68.035 211.683 68.0696 211.614 68.1095 211.548C69.3996 208.989 71.8005 206.574 75.3052 204.552L95.4366 216.157H66.9712V216.15Z" fill="#FFBDA7"/>
<path opacity="0.3" d="M66.9712 216.15C66.9783 214.651 67.3201 213.173 67.9715 211.824L68.006 211.755C68.035 211.683 68.0696 211.614 68.1095 211.548C69.3996 208.989 71.8005 206.574 75.3052 204.552L95.4366 216.157H66.9712V216.15Z" fill="white"/>
<path d="M73.409 228.954C72.9878 229.183 72.5194 229.31 72.0406 229.327C71.5617 229.344 71.0855 229.249 70.6494 229.051C69.9831 228.749 69.3901 228.307 68.9109 227.754C68.3329 227.265 67.6778 226.876 66.9722 226.602C65.7235 225.96 64.8128 225.291 64.4334 224.339C64.2796 223.817 64.0469 223.321 63.7435 222.869C63.3778 222.393 62.8466 221.979 62.7086 221.455C62.5707 220.931 62.7431 220.358 62.3637 219.834C62.3092 219.758 62.2468 219.689 62.1774 219.627C62.0988 219.549 62.0107 219.482 61.9152 219.427C60.4803 218.523 62.1498 216.15 63.3778 216.15H66.9653L75.2994 227.754L73.409 228.954Z" fill="#F0997A"/>
<path d="M64.4388 223.787C64.4452 224.552 64.6484 225.304 65.029 225.968C65.4096 226.633 65.9547 227.188 66.612 227.581C67.0674 227.843 67.571 228.023 67.9918 228.312C68.7507 228.809 69.2751 229.603 70.0202 230.127C70.629 230.546 71.3507 230.77 72.0899 230.77C72.829 230.77 73.5508 230.546 74.1596 230.127C74.6125 229.818 74.9593 229.377 75.153 228.864C75.2475 228.608 75.281 228.333 75.2511 228.061C75.2212 227.789 75.1286 227.528 74.9806 227.298" fill="#F0997A"/>
<path opacity="0.1" d="M75.3052 227.754C74.015 227.512 72.2351 227.299 71.5797 226.56C70.9243 225.822 70.7035 225.18 69.0891 224.622C67.4748 224.063 66.7849 223.242 66.9711 222.117C67.1574 220.993 66.1432 220.613 65.9294 220.089C65.7155 219.565 65.9846 218.433 65.2947 218.068C64.6048 217.702 62.9007 217.516 62.3695 217.854C62.1337 218.079 61.9856 218.382 61.9515 218.706C61.9174 219.031 61.9995 219.357 62.1832 219.627C62.1046 219.549 62.0165 219.482 61.921 219.427C60.4861 218.523 62.1556 216.15 63.3836 216.15H66.9711L75.3052 227.754Z" fill="black"/>
<path d="M75.3052 227.754C73.6266 226.814 72.0813 225.654 70.7105 224.305L70.6553 224.249L70.469 224.056C68.2337 221.717 66.9712 219.027 66.9712 216.171H95.4366L93.4151 217.316L92.6701 217.744L92.5735 217.799L75.3052 227.754Z" fill="#FFBDA7"/>
<path opacity="0.3" d="M75.3052 227.754C73.6266 226.814 72.0813 225.654 70.7105 224.305L70.6553 224.249L70.469 224.056C68.2337 221.717 66.9712 219.027 66.9712 216.171H95.4366L93.4151 217.316L92.6701 217.744L92.5735 217.799L75.3052 227.754Z" fill="white"/>
<path d="M118.549 229.913C118.552 229.959 118.552 230.005 118.549 230.051C118.503 230.596 118.289 231.113 117.935 231.53C117.581 231.946 117.106 232.242 116.576 232.376C115.741 232.617 114.816 232.521 114.016 232.866C113.216 233.21 112.484 234.163 111.532 234.397C110.794 234.57 109.994 234.301 109.263 234.494C108.773 234.69 108.298 234.921 107.841 235.184C106.213 235.874 104.468 234.804 102.86 235.473C102.322 235.694 101.853 236.06 101.308 236.267C100.64 236.479 99.9377 236.564 99.2383 236.515C98.222 236.536 97.2064 236.446 96.2096 236.246C95.9651 236.203 95.7309 236.114 95.5197 235.984C95.2982 235.816 95.12 235.597 95 235.347C94.88 235.096 94.8217 234.82 94.8298 234.542C94.81 233.854 95.0405 233.183 95.4783 232.652C95.7338 232.47 96.0347 232.362 96.3476 232.341L97.5549 232.058L102.674 230.837L108.724 229.388L113.678 228.209C114.954 227.898 116.348 227.36 117.548 228.209C117.832 228.4 118.069 228.652 118.242 228.947C118.415 229.242 118.52 229.572 118.549 229.913Z" fill="#F0997A"/>
<path opacity="0.1" d="M113.499 229.913C114.761 229.541 115.134 228.533 115.569 227.795L115.265 227.843L112.761 228.437L106.393 229.961L99.6249 231.562L97.4103 232.086L96.5755 232.286L96.3962 232.328C96.0833 232.349 95.7824 232.456 95.5269 232.638C95.089 233.169 94.8586 233.841 94.8784 234.529C94.8702 234.807 94.9286 235.082 95.0486 235.333C95.1686 235.584 95.3468 235.802 95.5683 235.971C95.7795 236.101 96.0136 236.19 96.2582 236.233C97.2549 236.433 98.2705 236.523 99.2869 236.502C99.9863 236.55 100.688 236.466 101.357 236.253C101.528 236.188 101.694 236.11 101.853 236.019C101.399 236.111 100.937 236.162 100.473 236.171C100.112 236.19 99.7501 236.146 99.4041 236.04C99.1275 235.934 98.875 235.774 98.6616 235.569C98.4482 235.364 98.2784 235.118 98.1623 234.846C98.1022 234.587 98.1315 234.315 98.2455 234.074C98.3595 233.834 98.5514 233.639 98.7901 233.521C99.4317 233.128 101.398 233.28 102.302 233.156C103.206 233.032 103.895 232.466 105.813 232.555C107.731 232.645 109.215 232.266 110.16 231.341C111.105 230.417 112.223 230.272 113.499 229.913Z" fill="black"/>
<path d="M115.562 227.754C113.65 228.837 111.635 229.724 109.546 230.403L109.449 230.438L109.118 230.541C104.721 231.925 100.137 232.624 95.5268 232.611L95.444 216.122L97.4654 217.288L98.2036 217.716L98.3002 217.771L115.562 227.754Z" fill="#FFBDA7"/>
<path opacity="0.3" d="M115.562 227.754C113.65 228.837 111.635 229.724 109.546 230.403L109.449 230.438L109.118 230.541C104.721 231.925 100.137 232.624 95.5268 232.611L95.444 216.122L97.4654 217.288L98.2036 217.716L98.3002 217.771L115.562 227.754Z" fill="white"/>
<g opacity="0.1">
<g style="mix-blend-mode:multiply">
<path d="M103.42 200.392C107.68 201.045 111.791 202.446 115.562 204.532L95.4377 216.136V214.487C95.5481 214.866 96.2725 214.487 100.039 212.327C105.221 209.34 111.871 205.318 112.361 204.635C112.851 203.952 106.317 200.937 103.42 200.392Z" fill="black"/>
</g>
<g style="mix-blend-mode:multiply">
<path d="M95.4368 213.893V216.115C95.4368 215.998 93.8638 203.441 92.9946 201.689C92.1253 199.937 84.2673 201.04 84.0741 201.068C85.1779 200.792 86.3025 200.562 87.4477 200.378L87.8065 200.316H87.9169C90.4001 199.929 92.9097 199.735 95.423 199.737V213.893H95.4368Z" fill="black"/>
</g>
<g style="mix-blend-mode:multiply">
<path d="M68.1088 211.541C69.3989 208.981 71.7997 206.567 75.3044 204.545L95.4358 216.15H92.5796C93.235 216.081 92.5796 215.667 88.8334 213.493C83.6454 210.506 76.6774 206.67 75.4838 206.387C74.2903 206.105 69.0884 209.906 68.1088 211.541Z" fill="black"/>
</g>
<g style="mix-blend-mode:multiply">
<path d="M70.469 224.035C68.2337 221.696 66.9712 219.006 66.9712 216.15H95.4366L93.4151 217.316C93.8015 216.998 92.8425 216.964 87.5096 216.964C80.1828 216.964 70.5518 217.095 69.3582 217.378C68.1647 217.661 69.1168 222.455 70.469 224.035Z" fill="black"/>
</g>
<g style="mix-blend-mode:multiply">
<path d="M109.112 230.541C104.715 231.925 100.13 232.623 95.5205 232.61L95.4377 216.122L97.4591 217.288C96.9141 217.06 96.8451 217.619 96.8451 220.689C96.8451 224.918 97.0797 230.465 97.535 231.155C97.9904 231.845 106.373 231.293 109.112 230.541Z" fill="black"/>
</g>
</g>
<path d="M106.724 210.596C107.085 210.784 107.382 211.074 107.579 211.431C107.911 212.121 107.621 212.81 106.724 213.342C105.986 213.716 105.171 213.911 104.344 213.911C103.517 213.911 102.701 213.716 101.964 213.342C101.68 213.221 101.437 213.022 101.263 212.768C101.089 212.514 100.993 212.215 100.984 211.907C101.023 211.623 101.134 211.355 101.305 211.125C101.477 210.896 101.703 210.714 101.964 210.596C102.702 210.225 103.517 210.032 104.344 210.032C105.17 210.032 105.985 210.225 106.724 210.596Z" fill="#B16668"/>
<path d="M100.19 220.516C100.551 220.704 100.849 220.995 101.046 221.351C101.37 222.041 101.087 222.731 100.19 223.262C99.4525 223.636 98.6371 223.831 97.81 223.831C96.983 223.831 96.1676 223.636 95.4299 223.262C95.1459 223.14 94.9025 222.939 94.7278 222.684C94.5532 222.429 94.4546 222.129 94.4433 221.82C94.4852 221.538 94.5976 221.27 94.77 221.042C94.9424 220.814 95.1693 220.634 95.4299 220.516C96.1676 220.142 96.983 219.948 97.81 219.948C98.6371 219.948 99.4525 220.142 100.19 220.516Z" fill="#B16668"/>
<path d="M116.051 209.002C116.604 208.998 117.156 209.077 117.686 209.236C118.728 209.554 119.445 210.189 119.466 210.92C119.466 211.989 118.01 212.872 116.147 212.886C115.284 212.913 114.428 212.709 113.671 212.293C113.416 212.17 113.196 211.985 113.032 211.754C112.868 211.524 112.765 211.256 112.732 210.975C112.732 209.906 114.188 209.023 116.051 209.002Z" fill="#B16668"/>
<path d="M79.8039 218.089C79.4479 217.898 79.1554 217.608 78.9622 217.254C78.6379 216.564 78.9622 215.874 79.8384 215.343C80.5761 214.969 81.3915 214.774 82.2185 214.774C83.0456 214.774 83.861 214.969 84.5987 215.343C84.8808 215.465 85.1217 215.667 85.2929 215.922C85.4642 216.178 85.5584 216.477 85.5646 216.785C85.5213 217.068 85.4077 217.336 85.2342 217.563C85.0606 217.791 84.8326 217.972 84.5711 218.089C83.8322 218.463 83.0157 218.657 82.1875 218.657C81.3593 218.657 80.5428 218.463 79.8039 218.089Z" fill="#B16668"/>
<path d="M79.3755 207.699C79.7708 207.921 80.0868 208.261 80.2792 208.671C80.6035 209.423 80.224 210.251 79.1616 210.817C78.3138 211.223 77.3822 211.424 76.4423 211.402C75.5025 211.381 74.581 211.137 73.7527 210.693C73.4413 210.544 73.1805 210.307 73.0026 210.012C72.8247 209.716 72.7377 209.375 72.7524 209.03C72.8242 208.708 72.9718 208.408 73.183 208.155C73.3943 207.902 73.6629 207.703 73.9666 207.574C74.8144 207.168 75.7461 206.968 76.6859 206.989C77.6258 207.011 78.5472 207.254 79.3755 207.699Z" fill="#B16668"/>
<path d="M89.7236 202.103C90.1259 202.325 90.4508 202.665 90.655 203.076C90.9792 203.828 90.5929 204.663 89.5373 205.222C88.6896 205.628 87.7579 205.829 86.8181 205.807C85.8782 205.785 84.9567 205.542 84.1285 205.098C83.8154 204.953 83.5526 204.718 83.3743 204.423C83.196 204.128 83.1103 203.786 83.1281 203.442C83.199 203.119 83.3462 202.817 83.5574 202.563C83.7687 202.308 84.0379 202.108 84.3424 201.979C85.1874 201.581 86.1136 201.384 87.0476 201.406C87.9817 201.427 88.8979 201.666 89.7236 202.103Z" fill="#B16668"/>
<path d="M92.5674 209.161C92.961 209.385 93.2765 209.724 93.4712 210.133C93.7885 210.885 93.4091 211.713 92.3535 212.279C91.5058 212.685 90.5741 212.886 89.6342 212.864C88.6944 212.843 87.7729 212.6 86.9447 212.155C86.6314 212.008 86.3686 211.772 86.1894 211.476C86.0101 211.18 85.9225 210.838 85.9374 210.492C86.0099 210.17 86.1586 209.869 86.3711 209.616C86.5835 209.363 86.8536 209.164 87.1586 209.037C88.0063 208.63 88.938 208.43 89.8778 208.451C90.8177 208.473 91.7392 208.716 92.5674 209.161Z" fill="#B16668"/>
<path d="M105.91 202C106.461 201.99 107.01 202.067 107.538 202.228C108.586 202.545 109.304 203.18 109.325 203.911C109.325 204.98 107.869 205.864 106.006 205.877C105.142 205.907 104.286 205.702 103.529 205.284C103.275 205.161 103.055 204.976 102.891 204.746C102.727 204.515 102.624 204.247 102.591 203.966C102.564 202.897 104.047 202.014 105.91 202Z" fill="#B16668"/>
<path d="M104.047 226.718C104.327 226.383 104.688 226.124 105.096 225.966C106.177 225.533 107.369 225.458 108.497 225.753C110.194 226.187 110.946 227.339 110.18 228.319C109.658 228.884 108.956 229.25 108.193 229.354C107.378 229.516 106.537 229.494 105.73 229.292C104.033 228.85 103.281 227.698 104.047 226.718Z" fill="#B16668"/>
<path d="M74.5948 219.337C75.146 219.327 75.6954 219.404 76.2229 219.565C77.2716 219.889 77.9891 220.517 78.0098 221.248C78.0098 222.324 76.5541 223.2 74.6913 223.221C73.8266 223.249 72.9707 223.041 72.2146 222.621C71.9595 222.5 71.7394 222.317 71.5752 222.087C71.411 221.858 71.3081 221.59 71.2763 221.31C71.2487 220.255 72.7182 219.351 74.5948 219.337Z" fill="#B16668"/>
<path d="M51.6222 38.8103L54.0437 34.2638L52.0982 28.648V25.1985L58.0521 28.648V32.0975L55.4718 36.4853C55.4325 36.5534 55.3719 36.6068 55.2994 36.6371L51.6222 38.8103Z" fill="#86889D"/>
<path opacity="0.2" d="M51.6222 38.8103L54.0437 34.2638L52.0982 28.648V25.1985L58.0521 28.648V32.0975L55.4718 36.4853C55.4325 36.5534 55.3719 36.6068 55.2994 36.6371L51.6222 38.8103Z" fill="black"/>
<path d="M36.2232 4.35684C36.2566 3.73735 36.4359 3.13451 36.7464 2.59742C37.0569 2.06032 37.4899 1.60416 38.0101 1.26608L39.4589 0.424394C40.0132 0.145347 40.6251 0 41.2457 0C41.8663 0 42.4782 0.145347 43.0326 0.424394L71.4289 16.8234C71.9475 17.1626 72.3788 17.6192 72.688 18.1562C72.9973 18.6932 73.1757 19.2954 73.2089 19.9141V37.3204C73.1757 37.9391 72.9973 38.5414 72.688 39.0783C72.3788 39.6153 71.9475 40.0719 71.4289 40.4112L69.9594 41.2528C69.4051 41.5319 68.7932 41.6772 68.1726 41.6772C67.552 41.6772 66.9401 41.5319 66.3858 41.2528L54.2987 34.2158L51.746 38.6381C51.7102 38.702 51.6567 38.7542 51.592 38.7883C51.5272 38.8225 51.4539 38.8372 51.3809 38.8306C51.308 38.824 51.2385 38.7965 51.1809 38.7513C51.1233 38.7062 51.0799 38.6453 51.0561 38.576L48.3517 30.7801L38.0032 24.8607C37.4832 24.5208 37.0506 24.0632 36.7402 23.5251C36.4298 22.987 36.2503 22.3834 36.2163 21.7631L36.2232 4.35684Z" fill="#86889D"/>
<path opacity="0.2" d="M73.2092 37.3203C73.176 37.939 72.9976 38.5413 72.6883 39.0782C72.3791 39.6152 71.9478 40.0718 71.4292 40.411L69.9597 41.2527C69.4565 41.5046 68.9058 41.6477 68.3435 41.6727C67.7813 41.6976 67.2201 41.6039 66.6965 41.3976C67.5313 41.715 68.1729 41.2389 68.1729 40.2179V22.8116C68.1509 22.1901 67.9704 21.5845 67.6486 21.0524L72.6711 18.1548C72.994 18.6864 73.1746 19.2923 73.1954 19.914L73.2092 37.3203Z" fill="black"/>
<path opacity="0.4" d="M36.2778 3.85321C36.4917 3.09432 37.1816 2.85285 38.0026 3.32888L66.4059 19.721C66.9335 20.0475 67.3664 20.5066 67.6615 21.0525L72.684 18.1549C72.3865 17.6085 71.9512 17.1495 71.4214 16.8234L43.0526 0.424394C42.4983 0.145347 41.8864 0 41.2658 0C40.6452 0 40.0333 0.145347 39.479 0.424394L38.0233 1.26608C37.572 1.55629 37.1845 1.93532 36.8844 2.3801C36.5843 2.82488 36.3779 3.3261 36.2778 3.85321Z" fill="white"/>
<path d="M60.9356 24.5844C61.6309 25.0375 62.209 25.6488 62.6227 26.3683C63.0364 27.0878 63.2739 27.8949 63.3157 28.7238C63.3157 30.2416 62.2533 30.8556 60.9356 30.1036C60.2402 29.6505 59.6621 29.0392 59.2484 28.3197C58.8347 27.6003 58.5972 26.7931 58.5554 25.9642C58.5554 24.4395 59.6109 23.8255 60.9356 24.5844Z" fill="white"/>
<path d="M52.1538 19.493C52.8491 19.9461 53.4273 20.5574 53.841 21.2769C54.2547 21.9963 54.4922 22.8035 54.534 23.6324C54.534 25.1502 53.4715 25.7711 52.1538 25.0122C51.4585 24.5591 50.8803 23.9478 50.4666 23.2283C50.053 22.5089 49.8155 21.7017 49.7737 20.8728C49.7737 19.355 50.8361 18.741 52.1538 19.493Z" fill="white"/>
<path d="M43.3711 14.4223C44.0664 14.8754 44.6446 15.4867 45.0583 16.2062C45.472 16.9257 45.7095 17.7328 45.7513 18.5617C45.7513 20.0795 44.6888 20.6935 43.3711 19.9415C42.6758 19.4884 42.0977 18.8771 41.684 18.1576C41.2703 17.4382 41.0328 16.631 40.991 15.8021C40.9841 14.2774 42.0534 13.6634 43.3711 14.4223Z" fill="white"/>
</svg>
