<svg width="768" height="710" viewBox="0 0 768 710" fill="none" xmlns="http://www.w3.org/2000/svg">
<path d="M673.884 585.051C725.372 585.051 767.111 560.953 767.111 531.227C767.111 501.501 725.372 477.403 673.884 477.403C622.396 477.403 580.656 501.501 580.656 531.227C580.656 560.953 622.396 585.051 673.884 585.051Z" fill="#E0E0E0"/>
<path d="M88.1588 709.471C136.745 709.471 176.132 686.73 176.132 658.678C176.132 630.626 136.745 607.885 88.1588 607.885C39.5724 607.885 0.185303 630.626 0.185303 658.678C0.185303 686.73 39.5724 709.471 88.1588 709.471Z" fill="#E0E0E0"/>
<path d="M375.042 631.105C416.557 631.105 450.211 611.678 450.211 587.715C450.211 563.751 416.557 544.325 375.042 544.325C333.527 544.325 299.872 563.751 299.872 587.715C299.872 611.678 333.527 631.105 375.042 631.105Z" fill="#E0E0E0"/>
<path d="M253.01 592.637L262.195 587.678C262.195 587.678 267.118 563.797 264.363 543.204C260.487 514.161 241.033 503.727 233.814 506.464C226.594 509.201 224.629 517.688 237.23 534.717C244.597 544.729 253.892 565.799 253.01 592.637Z" fill="#4B4E6D"/>
<g opacity="0.15">
<path d="M253.01 592.637L262.195 587.678C262.195 587.678 267.118 563.797 264.363 543.204C260.487 514.161 241.033 503.727 233.814 506.464C226.594 509.201 224.629 517.688 237.23 534.717C244.597 544.729 253.892 565.799 253.01 592.637Z" fill="black"/>
</g>
<path d="M256.556 581.23H256.464C256.296 581.203 256.145 581.11 256.046 580.973C255.946 580.835 255.905 580.663 255.931 580.495C260.321 553.51 250.144 523.548 238.204 511.332C238.145 511.272 238.098 511.201 238.067 511.122C238.035 511.044 238.019 510.96 238.02 510.876C238.021 510.791 238.039 510.708 238.072 510.63C238.105 510.553 238.153 510.482 238.213 510.423C238.274 510.364 238.345 510.317 238.423 510.286C238.502 510.254 238.585 510.238 238.67 510.239C238.754 510.24 238.838 510.258 238.915 510.291C238.993 510.324 239.063 510.372 239.123 510.432C251.302 522.905 261.662 553.326 257.217 580.697C257.187 580.849 257.104 580.986 256.983 581.084C256.862 581.181 256.711 581.233 256.556 581.23Z" fill="white"/>
<path d="M228.082 606.25C226.631 607.04 223.729 605.166 222.571 604.413C220.674 603.047 219.157 601.22 218.163 599.104C217.056 596.692 216.722 593.997 217.207 591.389C217.463 590.011 217.819 588.654 218.273 587.329C218.695 586.006 219.099 584.702 219.504 583.379C220.01 582.114 220.242 580.755 220.183 579.393C219.908 576.674 217.538 574.727 215.389 573.037C213.239 571.347 210.557 568.702 210.649 565.432C210.892 562.907 211.957 560.532 213.68 558.672C215.297 556.725 217.189 554.998 218.659 552.977C219.82 551.554 220.468 549.781 220.496 547.944C220.375 546.819 220.025 545.731 219.467 544.747C218.196 542.686 217.085 540.53 216.142 538.3C215.695 537.171 215.577 535.939 215.801 534.746C216.026 533.553 216.583 532.447 217.409 531.558C218.221 530.983 219.14 530.576 220.112 530.361C221.084 530.147 222.089 530.129 223.067 530.309C224.916 530.58 226.684 531.251 228.248 532.274C233.354 535.269 236.165 541.459 241.621 543.847C243.787 544.591 245.995 545.204 248.234 545.684C249.356 545.92 250.417 546.389 251.347 547.06C252.277 547.73 253.057 548.588 253.635 549.579C255.564 553.657 251.688 558.543 253.01 562.86C254.186 566.681 257.823 568.206 259.807 571.678C260.626 573.2 260.923 574.949 260.652 576.656C260.407 579.551 259.635 582.378 258.374 584.996C256.955 587.557 255.353 590.013 253.58 592.344C253.58 592.344 228.34 606.121 228.082 606.25Z" fill="#4B4E6D"/>
<path d="M243.036 598.773C242.95 598.768 242.865 598.746 242.788 598.709C242.71 598.671 242.641 598.618 242.585 598.552C242.528 598.487 242.485 598.411 242.458 598.329C242.432 598.247 242.422 598.161 242.429 598.075C244.101 572.486 232.712 543.884 224.06 535.452C223.942 535.332 223.876 535.17 223.876 535.002C223.876 534.833 223.942 534.672 224.06 534.552C224.183 534.433 224.347 534.366 224.519 534.366C224.69 534.366 224.855 534.433 224.978 534.552C233.74 543.167 245.369 572.228 243.66 598.185C243.647 598.343 243.576 598.49 243.46 598.598C243.345 598.707 243.194 598.769 243.036 598.773Z" fill="white"/>
<path d="M239.858 568.389H239.655C233.629 566.562 227.419 565.404 221.139 564.936C221.054 564.931 220.971 564.91 220.895 564.873C220.819 564.836 220.751 564.785 220.694 564.722C220.638 564.659 220.595 564.585 220.567 564.505C220.539 564.425 220.527 564.341 220.532 564.256C220.532 564.17 220.549 564.085 220.584 564.006C220.619 563.927 220.671 563.857 220.735 563.799C220.799 563.742 220.875 563.699 220.957 563.673C221.04 563.647 221.126 563.64 221.212 563.65C227.61 564.129 233.936 565.305 240.078 567.159C240.239 567.217 240.372 567.336 240.447 567.49C240.523 567.644 240.535 567.822 240.482 567.985C240.438 568.112 240.352 568.221 240.239 568.294C240.126 568.368 239.992 568.401 239.858 568.389Z" fill="white"/>
<path d="M487.355 551.709L477.472 545.996C477.472 545.996 475.048 524.798 476.664 508.393C478.924 485.339 493.822 457.582 511.567 464.103C529.312 470.625 503.411 494.101 497.643 513.702C491.874 533.303 487.355 551.709 487.355 551.709Z" fill="#4B4E6D"/>
<path opacity="0.15" d="M487.355 551.709L477.472 545.996C477.472 545.996 475.048 524.798 476.664 508.393C478.924 485.339 493.822 457.582 511.567 464.103C529.312 470.625 503.411 494.101 497.643 513.702C491.874 533.303 487.355 551.709 487.355 551.709Z" fill="black"/>
<path d="M482.157 549.303C482.316 549.293 482.465 549.223 482.575 549.107C482.684 548.991 482.745 548.838 482.744 548.678C480.999 497.444 506.515 471.671 506.772 471.414C506.882 471.301 506.944 471.15 506.944 470.992C506.944 470.834 506.882 470.682 506.772 470.569C506.717 470.513 506.652 470.468 506.579 470.437C506.507 470.406 506.429 470.39 506.35 470.39C506.271 470.39 506.193 470.406 506.12 470.437C506.048 470.468 505.982 470.513 505.927 470.569C505.67 470.826 479.787 496.967 481.532 548.715C481.541 548.874 481.611 549.024 481.727 549.133C481.844 549.242 481.997 549.303 482.157 549.303Z" fill="white"/>
<path d="M492.646 555.788L485.61 551.728C485.266 540.695 487.282 529.716 491.525 519.525C497.734 504.15 513.128 491.383 520.917 494.065C528.706 496.747 528.467 502.239 524.701 508.007C520.936 513.776 497.918 527.498 492.646 555.788Z" fill="#4B4E6D"/>
<path d="M488.935 554.245C489.014 554.245 489.092 554.229 489.164 554.198C489.237 554.168 489.303 554.123 489.357 554.066C489.412 554.01 489.455 553.943 489.484 553.869C489.512 553.796 489.526 553.717 489.523 553.639C489.394 521.253 519.797 499.356 520.109 499.135C520.174 499.091 520.229 499.035 520.271 498.969C520.314 498.903 520.342 498.83 520.356 498.753C520.37 498.676 520.368 498.597 520.351 498.521C520.334 498.444 520.301 498.372 520.256 498.309C520.214 498.242 520.158 498.185 520.092 498.141C520.027 498.097 519.953 498.067 519.875 498.053C519.797 498.039 519.717 498.042 519.641 498.061C519.564 498.079 519.492 498.114 519.429 498.162C519.117 498.382 488.2 520.646 488.329 553.657C488.329 553.736 488.345 553.814 488.375 553.886C488.406 553.959 488.451 554.025 488.508 554.079C488.564 554.134 488.631 554.177 488.705 554.206C488.778 554.234 488.856 554.247 488.935 554.245Z" fill="white"/>
<path d="M595.536 251.674C626.25 248.9 655.403 243.885 664.882 231.688C656.524 225.111 654.43 223.825 645.686 223.899C637.915 223.899 604.39 233.58 594.103 232.845C586.975 229.281 565.115 212.362 557.088 206.576C555.655 205.565 544.725 218.296 551.246 223.972C560.431 231.945 575.641 243.481 584.312 248.386C588.114 250.572 591.127 252.078 595.536 251.674Z" fill="#FFC1A7"/>
<path d="M630.733 127.162C630.222 127.044 629.687 127.096 629.208 127.309L612.271 134.933C612.006 135.066 611.714 135.137 611.418 135.142C611.121 135.147 610.828 135.086 610.558 134.963C610.288 134.839 610.05 134.657 609.86 134.429C609.67 134.202 609.533 133.934 609.46 133.647C608.799 131.498 597.208 129.054 596.252 127.217L602.755 111.07L630.733 127.162Z" fill="#455A64"/>
<path d="M602.792 111.126C602.565 111.006 602.313 110.944 602.057 110.944C601.801 110.944 601.549 111.006 601.322 111.126L588.831 82.2297C589.105 81.6488 589.153 80.987 588.966 80.3726C588.779 79.7583 588.371 79.2351 587.821 78.9047L575.531 71.7956C574.975 71.4781 574.319 71.3831 573.695 71.5296C573.071 71.6762 572.526 72.0534 572.169 72.5855L558.098 93.7109C557.668 94.2792 557.113 94.7406 556.476 95.0592C555.839 95.3778 555.137 95.5451 554.424 95.5479C552.786 95.5037 551.147 95.5774 549.519 95.7683V80.3192L540.132 74.8082C539.884 74.6981 539.612 74.6537 539.341 74.6795C539.071 74.7052 538.812 74.8002 538.589 74.9552L519.576 85.9772C518.969 86.373 518.453 86.8941 518.063 87.5056C517.674 88.1171 517.419 88.8047 517.317 89.5226L515.48 110.685C515.265 112.182 514.569 113.568 513.496 114.634C509.737 118.119 506.214 121.85 502.952 125.803C502.496 126.301 501.912 126.664 501.264 126.852C500.616 127.04 499.929 127.046 499.278 126.869L487.08 122.607C486.451 122.403 485.771 122.417 485.151 122.647C484.531 122.877 484.007 123.309 483.663 123.874L469.592 148.086C469.256 148.675 469.134 149.361 469.244 150.03C469.354 150.699 469.691 151.31 470.198 151.76L479.989 160.192C480.484 160.667 480.836 161.272 481.005 161.938C481.174 162.604 481.153 163.303 480.944 163.957C479.147 168.752 477.674 173.662 476.536 178.653C476.141 180.106 475.291 181.394 474.111 182.327L456.733 194.562C456.173 195.006 455.712 195.562 455.38 196.195C455.048 196.827 454.852 197.523 454.804 198.236V220.188C454.78 220.463 454.831 220.739 454.951 220.988C455.07 221.237 455.254 221.449 455.484 221.602L477.528 234.314L469.5 250.498C469.217 251.073 469.162 251.733 469.346 252.346C469.53 252.96 469.939 253.481 470.492 253.805L500.38 271.164C500.938 271.473 501.592 271.563 502.213 271.417C502.834 271.271 503.379 270.9 503.741 270.374L517.335 256.468C517.346 256.726 517.419 256.977 517.547 257.2C517.674 257.424 517.854 257.614 518.07 257.754L545.937 273.846L546.69 252.023C546.69 252.023 540.794 244.418 540.904 243.113L571.288 210.048C571.92 210.249 572.601 210.234 573.223 210.005C573.846 209.775 574.373 209.344 574.723 208.78L588.684 184.569C589.016 183.978 589.137 183.293 589.026 182.625C588.916 181.957 588.582 181.347 588.078 180.895L601.543 138.056C602.086 137.603 602.529 137.043 602.846 136.411C603.162 135.779 603.344 135.088 603.38 134.382L602.792 111.126ZM529.147 203.453C520.972 208.155 514.249 209.166 509.344 206.888C503.594 204.206 550.254 124.223 555.14 128.595C559.108 132.122 561.258 138.662 561.258 147.829C561.258 168.293 546.874 193.202 529.147 203.453Z" fill="#263238"/>
<path d="M607.44 92.9761L603.655 100.618L591.513 114.634L577.203 106.349L557.161 94.6845C557.566 94.4388 557.911 94.1062 558.171 93.7109L572.224 72.5854C572.581 72.0584 573.121 71.6834 573.74 71.5339C574.358 71.3844 575.01 71.4712 575.568 71.7772L587.839 78.868L606.448 89.596C607.019 89.9209 607.442 90.455 607.627 91.0856C607.812 91.7162 607.745 92.394 607.44 92.9761Z" fill="#455A64"/>
<path d="M475.397 180.987C475.04 181.503 474.606 181.961 474.111 182.346L456.733 194.581C456.248 194.957 455.842 195.425 455.539 195.958L484.747 212.859L507.801 199.742L475.397 180.987Z" fill="#455A64"/>
<path d="M485.849 122.515C485.388 122.557 484.942 122.705 484.547 122.947C484.152 123.189 483.818 123.519 483.571 123.911L469.592 148.086C469.274 148.642 469.164 149.293 469.279 149.923L499.865 167.632L519.007 141.767L485.849 122.515Z" fill="#455A64"/>
<path d="M568.183 91.0288V97.991L551.265 107.764L517.666 88.4019C518.054 87.4241 518.742 86.5945 519.632 86.0321L538.644 75.0102C538.929 74.8424 539.251 74.7478 539.581 74.7346C539.785 74.7274 539.987 74.7717 540.169 74.8632L549.354 80.1354L549.593 80.2824L562.231 87.6303L568.183 91.0288Z" fill="#455A64"/>
<path d="M631.413 150.547V128.503C631.45 128.237 631.41 127.965 631.299 127.72C631.187 127.476 631.008 127.268 630.782 127.121C630.557 126.975 630.294 126.895 630.025 126.893C629.756 126.89 629.492 126.965 629.263 127.107L612.271 134.822C612.003 134.951 611.709 135.019 611.412 135.022C611.114 135.024 610.82 134.961 610.549 134.836C610.279 134.712 610.04 134.529 609.848 134.301C609.657 134.073 609.518 133.806 609.442 133.518C608.538 130.581 607.273 127.767 605.676 125.141C605.324 124.523 605.118 123.833 605.073 123.123C605.028 122.413 605.147 121.702 605.419 121.045L616.698 98.303C616.976 97.7229 617.027 97.0596 616.84 96.4441C616.653 95.8286 616.242 95.3055 615.688 94.978L603.454 87.924C602.897 87.6065 602.241 87.5115 601.617 87.658C600.994 87.8046 600.449 88.1818 600.092 88.7139L586.039 109.839C585.607 110.406 585.052 110.865 584.415 111.184C583.778 111.502 583.077 111.671 582.365 111.676C579.277 111.611 576.193 111.919 573.18 112.595C572.89 112.679 572.585 112.696 572.287 112.644C571.99 112.592 571.708 112.473 571.463 112.296C571.219 112.119 571.018 111.888 570.876 111.621C570.734 111.355 570.655 111.06 570.645 110.758L568.808 92.3879C568.822 92.1158 568.756 91.8455 568.62 91.6095C568.484 91.3735 568.282 91.1819 568.04 91.0578C567.797 90.9336 567.524 90.8821 567.253 90.9095C566.982 90.9369 566.724 91.042 566.512 91.2122L547.499 102.234C546.894 102.633 546.38 103.154 545.99 103.765C545.601 104.376 545.345 105.063 545.239 105.78L543.402 126.942C543.187 128.435 542.498 129.819 541.437 130.891C537.667 134.371 534.138 138.102 530.874 142.06C530.418 142.558 529.835 142.921 529.187 143.109C528.539 143.297 527.851 143.303 527.2 143.126L514.91 138.772C514.281 138.568 513.602 138.582 512.982 138.812C512.362 139.042 511.838 139.475 511.494 140.039L497.514 164.251C497.179 164.84 497.056 165.527 497.166 166.195C497.277 166.864 497.614 167.475 498.12 167.925L507.912 176.357C508.407 176.832 508.759 177.437 508.928 178.103C509.097 178.769 509.075 179.468 508.867 180.123C507.07 184.917 505.597 189.827 504.458 194.819C504.064 196.271 503.214 197.559 502.033 198.493L484.674 210.727C484.109 211.168 483.643 211.723 483.308 212.356C482.972 212.989 482.774 213.686 482.726 214.401V236.353C482.686 236.622 482.725 236.897 482.837 237.145C482.949 237.393 483.131 237.603 483.36 237.751C483.588 237.898 483.855 237.976 484.127 237.976C484.399 237.976 484.666 237.897 484.894 237.749L501.813 230.126C502.08 229.997 502.372 229.928 502.668 229.926C502.965 229.924 503.258 229.987 503.527 230.112C503.796 230.237 504.034 230.42 504.223 230.648C504.413 230.876 504.55 231.143 504.623 231.43C505.542 234.371 506.812 237.189 508.408 239.825C508.756 240.444 508.96 241.134 509.005 241.844C509.049 242.553 508.933 243.263 508.665 243.921L497.386 266.663C497.103 267.238 497.048 267.898 497.232 268.512C497.416 269.125 497.825 269.646 498.378 269.97L510.612 277.042C511.173 277.352 511.829 277.443 512.454 277.297C513.078 277.151 513.626 276.779 513.992 276.252L528.045 255.109C528.477 254.542 529.032 254.082 529.669 253.764C530.306 253.446 531.007 253.277 531.719 253.272C534.807 253.33 537.891 253.016 540.904 252.335C541.194 252.254 541.498 252.24 541.794 252.294C542.09 252.347 542.37 252.466 542.614 252.643C542.857 252.819 543.058 253.049 543.201 253.313C543.344 253.578 543.425 253.871 543.439 254.172L545.276 272.652C545.265 272.921 545.332 273.187 545.467 273.42C545.602 273.652 545.801 273.841 546.041 273.965C546.28 274.088 546.549 274.141 546.817 274.117C547.085 274.092 547.341 273.992 547.554 273.828L566.567 262.806C567.174 262.408 567.691 261.887 568.084 261.276C568.476 260.665 568.736 259.978 568.845 259.26L570.682 238.098C570.908 236.605 571.602 235.222 572.666 234.149C576.435 230.669 579.964 226.937 583.228 222.98C583.684 222.482 584.268 222.119 584.916 221.931C585.564 221.743 586.251 221.737 586.902 221.914L599.1 226.176C599.732 226.378 600.413 226.363 601.035 226.133C601.658 225.903 602.186 225.472 602.535 224.908L616.515 200.697C616.841 200.104 616.957 199.418 616.843 198.751C616.73 198.084 616.394 197.475 615.89 197.023L606.099 188.591C605.607 188.113 605.258 187.508 605.093 186.842C604.927 186.176 604.951 185.478 605.162 184.825C606.945 180.028 608.412 175.119 609.552 170.129C609.952 168.674 610.808 167.386 611.996 166.455L629.355 154.239C629.941 153.806 630.427 153.252 630.782 152.615C631.137 151.978 631.352 151.273 631.413 150.547ZM557.161 219.581C539.416 229.813 525.032 221.51 525.032 201.046C525.032 180.582 539.416 155.654 557.161 145.403C574.907 135.153 589.272 143.475 589.272 163.957C589.272 184.44 574.815 209.331 557.161 219.581Z" fill="#37474F"/>
<path d="M665.268 215.779H666.517C674.897 215.779 682.934 212.45 688.859 206.525C694.785 200.599 698.114 192.562 698.114 184.183C698.114 180.184 697.326 176.224 695.795 172.53C694.264 168.836 692.02 165.479 689.192 162.653C686.363 159.826 683.006 157.584 679.31 156.055C675.615 154.527 671.655 153.741 667.656 153.744H664.111C656.038 153.744 648.296 156.951 642.587 162.659C636.879 168.367 633.672 176.11 633.672 184.183C633.672 192.562 637.001 200.599 642.926 206.525C648.852 212.45 656.888 215.779 665.268 215.779Z" fill="#37474F"/>
<path d="M714.114 233.561C709.242 233.561 704.569 231.625 701.124 228.18C697.679 224.735 695.744 220.063 695.744 215.191V174.575C700.616 174.575 705.288 176.51 708.733 179.955C712.178 183.4 714.114 188.073 714.114 192.945V233.561Z" fill="#37474F"/>
<path d="M727.836 502.056C726.679 504.389 727.212 507.328 727.01 513.666C727.004 517.852 726.759 522.035 726.275 526.194C726.054 527.682 725.54 529.023 725.191 530.474C724.965 531.621 724.356 532.657 723.464 533.413C723.084 533.762 722.624 534.013 722.124 534.144C721.625 534.276 721.101 534.283 720.598 534.167C720.198 534.048 719.827 533.846 719.511 533.573C719.194 533.301 718.939 532.965 718.761 532.587C718.089 531.175 717.566 529.698 717.2 528.178C715.804 538.796 705.002 545.684 711.983 548.385C718.045 550.773 722.362 548.844 726.128 547.227C728.069 546.319 729.746 544.928 730.996 543.186C733.788 538.52 733.421 534.24 733.531 530.18C733.715 524.599 734.509 519.055 735.901 513.647C736.874 508.136 729.563 501.284 727.836 502.056Z" fill="#263238"/>
<path d="M714.959 507.346L706.27 485.505L720.727 479.994C722.454 483.41 726.936 500.807 727.836 502.038C729.234 503.797 730.021 505.964 730.077 508.21C729.951 515.456 729.046 522.668 727.377 529.721C727.042 531.264 726.335 532.702 725.316 533.909C724.298 535.116 723 536.056 721.535 536.646C720.406 537.241 719.135 537.514 717.861 537.436C717.44 537.419 717.038 537.256 716.722 536.977C716.116 536.334 716.723 534.883 716.833 534.148C717.042 532.964 717.177 531.767 717.237 530.566C717.347 528.215 717.329 525.349 717.237 522.998C717.022 517.716 716.259 512.47 714.959 507.346Z" fill="#FFC1A7"/>
<path d="M650.039 513.959C650.239 514.013 650.416 514.13 650.545 514.292C650.674 514.454 650.748 514.652 650.756 514.859C650.94 516.072 651.123 518.294 651.491 520.37C652.141 523.262 652.314 526.24 652.005 529.188C651.527 531.374 646.402 534.441 642.967 534.901C638.519 535.972 634.376 538.052 630.861 540.981C626.374 544.261 621.02 546.146 615.467 546.4C609.809 546.4 605.364 545.133 604.078 541.036C603.545 539.309 604.96 537.215 612.253 533.89C612.253 533.89 615.927 532.053 618.039 530.767C628.602 524.393 632.239 520.719 635.399 514.069L650.039 513.959Z" fill="#263238"/>
<path d="M631.376 519.507C633.149 516.72 634.15 513.512 634.278 510.212L634.517 501.192H650.095V513.959V515.906C649.213 522.097 643.371 522.813 638.503 526.248C636.078 527.938 626.581 535.25 620.133 536.425C614.953 537.362 613.006 535.323 612.326 533.854C619.207 529.82 625.599 525.006 631.376 519.507Z" fill="#FFC1A7"/>
<path d="M700.447 420.089C707.369 426.235 712.787 433.891 716.282 442.463C721.076 454.679 726.991 496.471 726.991 496.471C726.991 496.471 719.643 503.103 711.524 500.494C711.524 500.494 681.764 444.594 677.301 431.221C672.763 424.406 667.087 390.807 662.99 367.533L662.843 367.79L655.845 417.131C657.653 422.919 658.968 428.849 659.776 434.858C660.933 446.964 650.738 505.582 650.738 505.582C645.48 507.81 639.574 507.967 634.205 506.023C634.205 506.023 630.77 432.544 629.686 417.995C627.849 393.489 628.859 321.479 633.36 306.985L697.526 310.567C702.835 325.943 703.257 335.771 702.578 352.635C701.769 370.031 700.447 420.089 700.447 420.089Z" fill="#455A64"/>
<path d="M662.788 367.79L659.114 344.993C659.114 344.993 643.702 341.797 636.703 335.22C641.532 340.886 647.851 345.086 654.944 347.344L659.041 364.888L656.359 413.311L662.788 367.79Z" fill="#37474F"/>
<path d="M677.594 225.35C681.309 225.381 684.978 226.169 688.378 227.664C693.282 230.401 693.705 235.325 693.778 241.166C693.778 247.577 692.235 252.519 690.288 263.063L686.614 283.27C686.614 283.27 692.033 295.559 697.397 310.476C672.212 324.529 640.763 317.144 633.102 306.894C632.79 304.708 634.737 287.716 635.931 276.602C631.486 265.47 630.329 258.415 632.257 251.068C635.729 237.419 649.213 224.119 655.165 224.596L677.594 225.35Z" fill="#4B4E6D"/>
<path opacity="0.15" d="M681.617 316.611C687.14 315.344 692.457 313.31 697.415 310.568C692.051 295.651 686.632 283.362 686.632 283.362L690.306 263.155C692.143 253.235 693.668 248.275 693.797 242.397L684.134 245.097C684.134 245.097 642.618 267.362 642.453 267.49C642.287 267.619 638.356 269.75 634.296 271.936C634.811 273.424 635.38 274.967 636.042 276.638C635.766 279.1 635.472 281.874 635.16 284.685C643.013 283.415 650.753 281.523 658.306 279.027C671.018 274.581 684.446 264.937 684.924 265.488C685.401 266.039 683.197 282.021 683.197 282.021L677.392 280.919C677.392 280.919 686.449 292.216 689.02 297.121C691.592 302.026 694.09 312.221 681.617 316.611Z" fill="black"/>
<path d="M697.36 166.033L695.285 174.005C695.801 174.167 696.344 174.223 696.883 174.169C697.421 174.116 697.943 173.953 698.416 173.692C698.89 173.431 699.306 173.077 699.639 172.651C699.972 172.225 700.216 171.736 700.355 171.213C700.617 170.13 700.452 168.988 699.895 168.024C699.337 167.059 698.43 166.346 697.36 166.033Z" fill="#37474F"/>
<path d="M702.927 169.726L696.02 174.263C696.296 174.73 696.664 175.137 697.102 175.458C697.539 175.779 698.038 176.008 698.566 176.132C699.095 176.255 699.643 176.271 700.178 176.177C700.712 176.083 701.223 175.882 701.677 175.586C702.596 174.954 703.238 173.995 703.47 172.905C703.703 171.814 703.508 170.677 702.927 169.726Z" fill="#37474F"/>
<path d="M644.915 167.429C641.498 169.45 637.291 178.01 637.714 195.958C638.063 211.168 643.004 214.915 645.466 215.999C647.927 217.083 652.722 216.422 657.369 215.65V224.835C657.369 224.835 650.94 232.293 651.344 236.482C651.748 240.67 660.621 241.644 666.609 237.566C670.504 234.76 673.849 231.26 676.474 227.242V203.526C676.474 203.526 679.487 206.943 684.612 203.526C685.657 202.833 686.54 201.923 687.203 200.859C687.866 199.795 688.293 198.601 688.455 197.357C688.617 196.114 688.51 194.85 688.142 193.652C687.774 192.453 687.152 191.348 686.32 190.41C685.561 189.734 684.644 189.26 683.653 189.031C682.663 188.801 681.631 188.823 680.651 189.096C679.672 189.368 678.776 189.881 678.047 190.589C677.317 191.297 676.776 192.176 676.474 193.147C676.474 193.147 669.126 193.423 659.206 188.003C655.375 185.938 652.085 182.999 649.602 179.424C647.119 175.85 645.513 171.74 644.915 167.429Z" fill="#FFC1A7"/>
<path d="M656.358 192.173C656.341 192.43 656.375 192.689 656.458 192.933C656.541 193.177 656.672 193.402 656.843 193.595C657.014 193.788 657.221 193.945 657.454 194.058C657.686 194.17 657.938 194.235 658.195 194.249C658.702 194.259 659.192 194.074 659.565 193.732C659.938 193.39 660.165 192.917 660.198 192.412C660.215 192.155 660.181 191.896 660.098 191.652C660.015 191.408 659.884 191.183 659.713 190.99C659.542 190.797 659.335 190.64 659.103 190.527C658.87 190.415 658.618 190.35 658.361 190.336C657.856 190.33 657.368 190.517 656.996 190.858C656.624 191.199 656.396 191.67 656.358 192.173Z" fill="#263238"/>
<path d="M654.191 205.033L649.746 206.466C649.826 206.762 649.965 207.04 650.155 207.281C650.344 207.522 650.581 207.723 650.851 207.871C651.12 208.018 651.417 208.11 651.722 208.14C652.028 208.17 652.337 208.138 652.63 208.045C653.23 207.843 653.728 207.416 654.019 206.854C654.31 206.292 654.372 205.639 654.191 205.033Z" fill="#F59F7B"/>
<path d="M640.726 186.258L644.584 183.576C644.422 183.315 644.208 183.09 643.957 182.914C643.705 182.738 643.42 182.616 643.119 182.554C642.818 182.492 642.507 182.492 642.207 182.554C641.906 182.616 641.621 182.739 641.369 182.915C640.852 183.282 640.496 183.835 640.376 184.457C640.257 185.08 640.382 185.725 640.726 186.258Z" fill="#263238"/>
<path d="M641.663 190.741C641.651 190.992 641.688 191.243 641.773 191.479C641.858 191.716 641.989 191.933 642.157 192.119C642.326 192.305 642.53 192.456 642.757 192.563C642.985 192.67 643.231 192.731 643.481 192.744C643.732 192.756 643.983 192.718 644.22 192.633C644.456 192.548 644.673 192.418 644.859 192.249C645.045 192.08 645.196 191.876 645.303 191.649C645.41 191.422 645.472 191.176 645.484 190.925C645.501 190.668 645.467 190.409 645.384 190.165C645.301 189.921 645.17 189.696 644.999 189.503C644.828 189.31 644.621 189.153 644.389 189.04C644.156 188.928 643.904 188.863 643.647 188.849C643.136 188.849 642.645 189.045 642.275 189.397C641.906 189.75 641.686 190.231 641.663 190.741Z" fill="#263238"/>
<path d="M650.958 189.657L650.646 201.175L644.584 199.283L650.958 189.657Z" fill="#F59F7B"/>
<path d="M657.369 215.65C662.256 215.007 672.322 212.123 673.902 208.137C673.277 210.155 672.045 211.931 670.375 213.225C667.362 215.797 657.388 218.736 657.388 218.736L657.369 215.65Z" fill="#F59F7B"/>
<path d="M634.315 282.37C681.471 264.57 696.865 256.248 696.222 238.154C695.983 231.798 692.805 228.84 688.378 227.665C682.279 227.922 677.705 235.729 670.008 245.061C670.008 245.061 642.214 259.279 632.019 264.57C619.986 264.955 594.544 261.061 584.973 258.599C583.283 258.159 582.236 255.587 581.299 254.136C578.673 250.241 575.972 249.58 572.721 246.677C571.806 245.843 570.969 244.927 570.222 243.94L569.506 251.803C569.506 251.803 566.64 251.803 560.321 247.008C553.267 241.681 549.097 241.497 549.299 252.813C549.483 259.885 554.02 265.378 569.745 270.173C574.282 271.55 581.538 273.204 587.398 274.563C596.179 276.602 599.118 277.043 607.697 279.082C616.919 281.25 630.182 284.023 634.315 282.37Z" fill="#FFC1A7"/>
<path d="M422.271 191.714C421.76 189.971 420.63 188.475 419.093 187.508C414.978 184.881 413.343 182.217 410.257 178.929C407.85 176.357 405.774 175.714 406.105 174.906C406.574 174.004 407.367 173.314 408.325 172.973C409.283 172.632 410.334 172.666 411.267 173.069C413.326 173.919 415.28 175.003 417.09 176.302C415.689 172.556 413.699 169.059 411.193 165.941C405.462 158.777 405.242 154.423 416.943 154.423C424.291 154.423 430.28 157.197 435.644 173.399C437.238 179.555 438.465 185.799 439.318 192.1C441.724 206.08 444.094 224.1 443.378 233.873C443.01 238.833 441.283 241.754 438.895 247.155C436.507 252.555 410.404 300.979 403.643 309.998C386.027 301.475 398.996 280.9 398.996 280.9C398.996 280.9 419.074 240.064 422.362 234.975C423.154 233.689 423.685 232.26 423.924 230.769C424.438 228.197 423.428 201.891 422.271 191.714Z" fill="#B16668"/>
<path d="M382.536 283.583C387.058 282.787 391.212 280.582 394.403 277.282C401.439 270.852 409.448 256.542 409.448 256.542C415.823 255.036 429.067 260.014 429.655 271.936L404.139 317.622L382.536 283.583Z" fill="#455A64"/>
<path d="M429.894 103.263L468.985 94.5009C468.048 93.9682 460.076 89.3206 452.287 84.8383L436.783 75.8738C436.463 75.6586 436.084 75.5494 435.699 75.5615L421.995 74.7716C421.696 74.784 421.397 74.7357 421.116 74.6295C420.836 74.5234 420.58 74.3616 420.364 74.154C420.147 73.9463 419.975 73.6971 419.858 73.4212C419.741 73.1454 419.68 72.8486 419.68 72.5489C420.066 68.1485 420.066 63.7229 419.68 59.3225C419.713 57.8441 420.243 56.4199 421.187 55.2811L443.121 53.4441C444.039 52.3052 462.005 35.0742 462.005 35.0742H461.895L429.582 16.2818C429.389 16.1831 429.173 16.1387 428.957 16.1532L403.019 1.12662C402.539 0.857306 401.986 0.747925 401.439 0.814334L385.457 2.41252C384.719 2.49313 384.013 2.75726 383.404 3.18082C382.794 3.60438 382.3 4.17388 381.967 4.83734L373.296 28.0937C372.528 29.5676 371.304 30.7534 369.806 31.4737C368.116 32.2636 366.408 33.1638 364.699 34.1374L347.928 24.438C347.266 23.9972 346.201 24.2727 345.337 25.1912L327.776 43.7265C327.272 44.2248 326.888 44.8309 326.653 45.4991C326.417 46.1673 326.337 46.8802 326.416 47.5841L331.303 64.1171C331.525 65.5121 331.203 66.939 330.403 68.1033C327.431 72.6063 324.738 77.2872 322.338 82.1196C321.486 83.5202 320.122 84.5346 318.536 84.9485L303.509 88.6225C302.759 88.7983 302.061 89.1475 301.471 89.642C300.881 90.1365 300.415 90.7626 300.111 91.4699L292.634 116.857C292.523 117.184 292.518 117.538 292.62 117.868C292.722 118.198 292.927 118.487 293.204 118.694C293.534 118.97 310.214 128.577 310.214 128.577C310.214 130.892 310.214 133.17 310.508 135.392C310.487 136.87 309.962 138.295 309.02 139.434L293.7 157.969C293.246 158.482 292.925 159.099 292.764 159.765C292.604 160.431 292.61 161.126 292.781 161.79L300.129 177.864C300.231 178.079 300.39 178.263 300.588 178.396L332.864 197.06C332.914 197.023 332.952 196.972 332.974 196.913L333.434 197.207L359.39 212.215C359.831 211.021 373.003 156.444 373.572 157.308L381.765 169.818C381.83 169.932 381.918 170.032 382.022 170.111L397.618 179.168L414.463 188.922L402.284 150.897C412.994 154.662 437.518 108.407 429.894 103.263ZM335.326 128.669L394.679 66.0275C396.416 70.1442 397.249 74.5856 397.122 79.0518C398.423 78.2791 399.773 77.5919 401.164 76.9944C401.292 78.3721 401.347 79.8417 401.347 81.3664C401.347 101.867 386.982 126.758 369.237 137.009C367.932 137.744 366.647 138.405 365.434 138.974C365.245 137.433 365.159 135.88 365.177 134.327C352.52 141.73 340.488 140.04 335.326 128.669Z" fill="#4B4E6D"/>
<g opacity="0.15">
<path d="M429.894 103.263L468.985 94.5009C468.048 93.9682 460.076 89.3206 452.287 84.8383L436.783 75.8738C436.463 75.6586 436.084 75.5494 435.699 75.5615L421.995 74.7716C421.696 74.784 421.397 74.7357 421.116 74.6295C420.836 74.5234 420.58 74.3616 420.364 74.154C420.147 73.9463 419.975 73.6971 419.858 73.4212C419.741 73.1454 419.68 72.8486 419.68 72.5489C420.066 68.1485 420.066 63.7229 419.68 59.3225C419.713 57.8441 420.243 56.4199 421.187 55.2811L443.121 53.4441C444.039 52.3052 462.005 35.0742 462.005 35.0742H461.895L429.582 16.2818C429.389 16.1831 429.173 16.1387 428.957 16.1532L403.019 1.12662C402.539 0.857306 401.986 0.747925 401.439 0.814334L385.457 2.41252C384.719 2.49313 384.013 2.75726 383.404 3.18082C382.794 3.60438 382.3 4.17388 381.967 4.83734L373.296 28.0937C372.528 29.5676 371.304 30.7534 369.806 31.4737C368.116 32.2636 366.408 33.1638 364.699 34.1374L347.928 24.438C347.266 23.9972 346.201 24.2727 345.337 25.1912L327.776 43.7265C327.272 44.2248 326.888 44.8309 326.653 45.4991C326.417 46.1673 326.337 46.8802 326.416 47.5841L331.303 64.1171C331.525 65.5121 331.203 66.939 330.403 68.1033C327.431 72.6063 324.738 77.2872 322.338 82.1196C321.486 83.5202 320.122 84.5346 318.536 84.9485L303.509 88.6225C302.759 88.7983 302.061 89.1475 301.471 89.642C300.881 90.1365 300.415 90.7626 300.111 91.4699L292.634 116.857C292.523 117.184 292.518 117.538 292.62 117.868C292.722 118.198 292.927 118.487 293.204 118.694C293.534 118.97 310.214 128.577 310.214 128.577C310.214 130.892 310.214 133.17 310.508 135.392C310.487 136.87 309.962 138.295 309.02 139.434L293.7 157.969C293.246 158.482 292.925 159.099 292.764 159.765C292.604 160.431 292.61 161.126 292.781 161.79L300.129 177.864C300.231 178.079 300.39 178.263 300.588 178.396L332.864 197.06C332.914 197.023 332.952 196.972 332.974 196.913L333.434 197.207L359.39 212.215C359.831 211.021 373.003 156.444 373.572 157.308L381.765 169.818C381.83 169.932 381.918 170.032 382.022 170.111L397.618 179.168L414.463 188.922L402.284 150.897C412.994 154.662 437.518 108.407 429.894 103.263ZM335.326 128.669L394.679 66.0275C396.416 70.1442 397.249 74.5856 397.122 79.0518C398.423 78.2791 399.773 77.5919 401.164 76.9944C401.292 78.3721 401.347 79.8417 401.347 81.3664C401.347 101.867 386.982 126.758 369.237 137.009C367.932 137.744 366.647 138.405 365.434 138.974C365.245 137.433 365.159 135.88 365.177 134.327C352.52 141.73 340.488 140.04 335.326 128.669Z" fill="black"/>
</g>
<path opacity="0.15" d="M439.336 94.4277L429.968 75.1944L421.885 74.7351C421.585 74.7475 421.286 74.6992 421.006 74.593C420.726 74.4869 420.47 74.3251 420.253 74.1175C420.037 73.9098 419.865 73.6606 419.748 73.3847C419.63 73.1089 419.57 72.8121 419.57 72.5124C419.772 70.1059 419.864 67.7362 419.864 65.4399L397.343 68.471L396.057 69.9773C396.828 72.9393 397.199 75.9915 397.159 79.052C398.46 78.2793 399.81 77.5921 401.2 76.9946C401.329 78.3724 401.384 79.842 401.384 81.3667C401.384 101.867 387.019 126.759 369.273 137.009C367.969 137.744 366.683 138.405 365.471 138.975C365.281 137.433 365.196 135.88 365.214 134.327C361.685 136.478 357.774 137.925 353.696 138.589L353.402 139.434L369.935 169.873H370.082C370.994 165.617 372.185 161.426 373.646 157.326L381.838 169.836C381.904 169.95 381.991 170.05 382.096 170.13L397.692 179.186L414.537 188.941L402.358 150.915C413.122 154.589 437.646 108.37 430.023 103.153L437.573 101.463L439.336 94.4277Z" fill="black"/>
<path opacity="0.15" d="M353.365 168.127C353.365 168.127 340.506 183.356 330.715 195.939L332.699 197.078C332.749 197.041 332.787 196.99 332.809 196.931L333.269 197.225L359.225 212.234C359.482 211.536 364.185 192.192 368.116 176.651L353.365 168.127Z" fill="black"/>
<path opacity="0.15" d="M309.902 137.78C309.655 138.379 309.327 138.942 308.928 139.452L293.608 157.987C293.154 158.5 292.833 159.117 292.673 159.783C292.513 160.449 292.518 161.145 292.689 161.808L300.037 177.882C300.14 178.098 300.298 178.282 300.497 178.415L309.902 183.925L326.435 189.675L347.744 159.659L309.902 137.78Z" fill="black"/>
<path opacity="0.05" d="M335.326 128.669L338.118 125.712C324.781 122.534 306.411 118.217 306.411 118.217L304.721 125.565L310.122 128.688C310.122 131.002 310.122 133.28 310.416 135.503C310.438 136.323 310.262 137.136 309.902 137.873L347.744 159.659C347.744 159.659 358.545 140.628 358.013 139.728C357.902 139.526 357.461 138.828 356.855 137.891C347.523 140.481 339.33 137.524 335.326 128.669Z" fill="black"/>
<path opacity="0.15" d="M357.443 105.321L320.556 84.0303C319.94 84.4533 319.257 84.77 318.536 84.9671L303.509 88.6411C302.759 88.8169 302.061 89.1661 301.471 89.6606C300.881 90.1551 300.415 90.7812 300.111 91.4885L294.6 110.042L329.833 124.885L350.72 112.485L357.443 105.321Z" fill="black"/>
<path opacity="0.15" d="M367.051 87.0061L376.952 68.4709L370.266 44.3512L332.883 38.3442L327.776 43.7266C327.272 44.225 326.888 44.8311 326.653 45.4993C326.418 46.1675 326.337 46.8804 326.417 47.5843L331.303 64.1172C331.455 64.8371 331.417 65.5841 331.193 66.2849L367.051 87.0061Z" fill="black"/>
<path opacity="0.15" d="M371.625 30.2797L412.039 53.6278L423.061 12.7731C414.041 7.57446 403.258 1.31032 402.854 1.12662C402.374 0.857306 401.82 0.747925 401.274 0.814334L385.292 2.41252C384.554 2.49313 383.848 2.75726 383.239 3.18082C382.629 3.60438 382.135 4.17388 381.802 4.83734L373.131 28.0937C372.791 28.9216 372.278 29.667 371.625 30.2797Z" fill="black"/>
<path d="M332.736 197.115L331.174 182.162L292.597 159.916C292.405 160.513 292.405 161.156 292.597 161.753L299.945 177.827C300.036 178.05 300.198 178.237 300.405 178.359L332.736 197.115Z" fill="#4B4E6D"/>
<path d="M337.604 111.677L300.644 90.4414C300.407 90.7299 300.226 91.0601 300.111 91.415L292.634 116.857C292.526 117.185 292.522 117.538 292.624 117.867C292.727 118.197 292.929 118.486 293.204 118.694L293.479 118.86L310.141 128.504L325.627 137.468L337.604 111.677Z" fill="#4B4E6D"/>
<path d="M326.545 45.9306L358.858 64.4842L380.185 43.1016L347.928 24.4378C347.472 24.254 346.968 24.2303 346.498 24.3705C346.027 24.5106 345.618 24.8064 345.338 25.2093L327.776 43.7446C327.203 44.3689 326.782 45.117 326.545 45.9306Z" fill="#4B4E6D"/>
<path d="M403.019 1.12646C402.54 0.855859 401.984 0.752456 401.439 0.832538L385.457 2.41235C384.454 2.53045 383.518 2.97595 382.794 3.67987L424.898 27.9465L435.644 21.7375L435.332 19.7903C435.332 19.7903 403.552 1.45712 403.019 1.12646Z" fill="#4B4E6D"/>
<path opacity="0.3" d="M332.736 197.115L331.174 182.162L292.597 159.916C292.405 160.513 292.405 161.156 292.597 161.753L299.945 177.827C300.036 178.05 300.198 178.237 300.405 178.359L332.736 197.115Z" fill="white"/>
<path opacity="0.3" d="M337.604 111.677L300.644 90.4414C300.407 90.7299 300.226 91.0601 300.111 91.415L292.634 116.857C292.526 117.185 292.522 117.538 292.624 117.867C292.727 118.197 292.929 118.486 293.204 118.694L293.479 118.86L310.141 128.504L325.627 137.468L337.604 111.677Z" fill="white"/>
<path opacity="0.4" d="M326.545 45.9306L358.858 64.4842L380.185 43.1016L347.928 24.4378C347.472 24.254 346.968 24.2303 346.498 24.3705C346.027 24.5106 345.618 24.8064 345.338 25.2093L327.776 43.7446C327.203 44.3689 326.782 45.117 326.545 45.9306Z" fill="white"/>
<path opacity="0.4" d="M403.019 1.12646C402.54 0.855859 401.984 0.752456 401.439 0.832538L385.457 2.41235C384.454 2.53045 383.518 2.97595 382.794 3.67987L424.898 27.9465L435.644 21.7375L435.332 19.7903C435.332 19.7903 403.552 1.45712 403.019 1.12646Z" fill="white"/>
<path d="M468.986 94.5009C468.679 94.3403 468.34 94.2523 467.994 94.2437L454.29 93.4721C453.972 93.5016 453.651 93.4623 453.35 93.3568C453.048 93.2513 452.773 93.082 452.543 92.8607C452.313 92.6393 452.133 92.3709 452.016 92.0739C451.899 91.7768 451.848 91.458 451.865 91.1392C452.048 88.9715 452.159 86.8039 452.177 84.7281C452.201 82.4527 452.103 80.1777 451.883 77.9128C451.919 76.4327 452.442 75.0056 453.371 73.8531L468.692 55.3178C469.144 54.8075 469.466 54.1947 469.63 53.5322C469.793 52.8698 469.792 52.1775 469.628 51.5153L462.281 35.4232C462.184 35.219 462.031 35.0468 461.84 34.9272H461.729C461.311 34.8105 460.868 34.8178 460.454 34.9483C460.04 35.0787 459.672 35.3267 459.396 35.662L443.047 50.5968C442.606 51.0874 442.011 51.4129 441.359 51.5198C440.708 51.6266 440.04 51.5084 439.465 51.1846C437.368 49.4707 435.011 48.1004 432.484 47.1248C431.922 46.9091 431.451 46.5067 431.15 45.985C430.849 45.4632 430.736 44.854 430.831 44.2591L435.92 21.3335C436 21.0248 435.975 20.6981 435.848 20.4053C435.722 20.1125 435.501 19.8703 435.222 19.7169C434.752 19.475 434.221 19.379 433.697 19.4414L417.715 21.0396C416.973 21.1153 416.263 21.3796 415.652 21.8072C415.041 22.2349 414.55 22.8117 414.225 23.4828L405.554 46.7207C404.804 48.2037 403.574 49.3888 402.064 50.0824C398.615 51.7318 395.304 53.6545 392.163 55.8322C390.822 56.7323 389.315 56.8058 388.727 55.8322L380.553 43.3406C379.965 42.4589 378.716 42.6426 377.595 43.7448L360.034 62.2984C359.531 62.794 359.148 63.3969 358.913 64.0619C358.677 64.7269 358.596 65.4366 358.674 66.1377L363.561 82.6706C363.777 84.0629 363.462 85.4856 362.679 86.6569C359.701 91.1597 357.002 95.8405 354.596 100.673C353.734 102.069 352.376 103.087 350.793 103.52L335.767 107.194C335.022 107.369 334.328 107.714 333.738 108.201C333.149 108.689 332.68 109.306 332.368 110.005L324.8 135.466C324.729 135.742 324.722 136.031 324.782 136.31C324.842 136.589 324.966 136.851 325.144 137.074C325.322 137.296 325.55 137.475 325.809 137.594C326.068 137.714 326.352 137.771 326.637 137.762L340.359 138.534C340.659 138.526 340.957 138.579 341.237 138.688C341.516 138.797 341.771 138.961 341.986 139.169C342.202 139.378 342.373 139.627 342.492 139.903C342.61 140.178 342.672 140.475 342.674 140.775C342.261 145.168 342.261 149.59 342.674 153.983C342.662 155.467 342.136 156.902 341.186 158.042L325.884 176.596C325.427 177.104 325.102 177.717 324.939 178.38C324.775 179.043 324.778 179.737 324.947 180.399L332.295 196.472C332.379 196.684 332.535 196.86 332.736 196.968C332.911 197.062 333.106 197.112 333.305 197.115C334 197.066 334.653 196.766 335.142 196.27L351.473 181.335C351.909 180.843 352.5 180.515 353.148 180.405C353.796 180.294 354.463 180.409 355.037 180.729C357.141 182.443 359.503 183.814 362.036 184.789C362.601 184.999 363.075 185.401 363.373 185.925C363.672 186.449 363.778 187.061 363.671 187.655L358.637 210.544C358.563 210.843 358.587 211.159 358.706 211.443C358.825 211.728 359.033 211.966 359.299 212.123C359.754 212.367 360.274 212.463 360.787 212.399L376.787 210.819C377.526 210.735 378.233 210.468 378.842 210.041C379.452 209.614 379.945 209.042 380.277 208.376L388.966 185.138C389.713 183.648 390.943 182.456 392.456 181.758C394.128 180.968 395.837 180.05 397.527 179.076C399.217 178.102 400.741 177.11 402.358 176.027C403.68 175.108 405.205 175.053 405.775 175.935L413.968 188.445C414.073 188.59 414.203 188.714 414.353 188.812C415.015 189.216 416.043 188.922 416.907 188.022L434.468 169.487C434.972 168.989 435.355 168.383 435.587 167.714C435.82 167.045 435.896 166.332 435.809 165.629L430.923 149.096C430.718 147.699 431.046 146.276 431.842 145.11C434.807 140.597 437.5 135.91 439.906 131.075C440.764 129.672 442.134 128.658 443.727 128.246L458.735 124.572C459.482 124.397 460.178 124.05 460.768 123.559C461.358 123.068 461.826 122.447 462.134 121.743L469.702 96.3011C469.779 95.9638 469.752 95.6111 469.624 95.2896C469.496 94.9681 469.273 94.6931 468.986 94.5009ZM388.838 156.683L387.937 156.922L387.313 157.05C386.835 157.142 386.358 157.234 385.88 157.289C385.402 157.344 384.778 157.418 384.245 157.455H383.216H382.647C379.408 157.486 376.235 156.536 373.546 154.729C370.857 152.923 368.778 150.344 367.584 147.333C366.41 144.668 365.666 141.835 365.379 138.938C365.19 137.396 365.104 135.843 365.122 134.29C365.122 119.796 372.672 101.83 384.962 88.8429C388.516 85.0155 392.591 81.7071 397.067 79.015C398.368 78.2423 399.718 77.5551 401.109 76.9576C404.654 75.3032 408.532 74.4861 412.443 74.5695H412.572H413.141H413.729C413.93 74.5425 414.134 74.5425 414.335 74.5695C417.119 74.9779 419.748 76.111 421.956 77.8552C424.165 79.5995 425.876 81.8936 426.918 84.5076C433.697 99.5158 425.926 125.693 409.54 142.979C402.725 150.437 395.506 154.993 388.801 156.683H388.838Z" fill="#4B4E6D"/>
<path d="M338.88 587.59L352.835 587.989L353.519 564.118L339.563 563.719L338.88 587.59Z" fill="#B16668"/>
<path d="M353.016 581.102V579.118C354.32 579.724 357.094 591.646 362.476 596.863C366.757 600.996 372.635 605.791 374.031 610.31C375.427 614.829 365.471 617.291 361.374 616.446C356.616 615.472 348.515 611.871 346.458 608.693C344.4 605.515 343.629 600.886 341.994 598.553C340.359 596.22 336.483 593.557 335.73 590.893C335.514 588.4 335.852 585.891 336.722 583.545C337.438 581.102 338.228 578.401 339.055 578.659C339.055 578.953 339.055 580.183 339.055 580.183C341.001 581.793 343.436 582.694 345.962 582.737C348.038 582.92 352.998 582.663 353.016 581.102Z" fill="#263238"/>
<path d="M377.981 570.833L391.905 571.715L393.32 546.474L378.697 545.574L377.981 570.833Z" fill="#B16668"/>
<path d="M392.181 567.416C392.897 567.416 393.467 568.5 395.01 570.282C397.331 572.753 400.043 574.826 403.038 576.417C408.199 579.173 418.229 583.49 422.767 585.694C425.596 587.072 425.375 590.525 422.344 592.417C419.313 594.31 412.112 595.522 403.57 593.354C398.904 592.16 392.934 587.66 389.058 587.843C385.182 588.027 378.036 587.696 375.189 585.657C372.341 583.618 373.646 579.448 374.564 575.866C375.556 571.953 376.824 565.855 378.128 566.167V567.508C379.744 570.098 388.36 571.384 392.107 569.62L392.181 567.416Z" fill="#263238"/>
<path d="M338.724 385.278C338.339 398.596 338.486 476.117 338.486 476.117C338.045 479.938 334.169 486.643 333.489 500.439C332.497 520.444 338.632 575.627 338.632 575.627C341.005 576.876 343.623 577.591 346.301 577.722C348.98 577.852 351.654 577.394 354.137 576.38C354.137 576.38 362.605 502.055 365.673 482.326C368.337 465.095 373.388 418.215 373.388 418.215L378.348 474.868C376.531 482.069 375.733 489.489 375.978 496.912C376.364 506.097 377.32 562.933 377.32 562.933C379.713 564.371 382.392 565.268 385.169 565.56C387.946 565.852 390.753 565.532 393.393 564.623C393.393 564.623 405.536 483.998 405.94 475.603C406.399 466.014 405.37 368.047 405.37 368.047L338.724 385.278Z" fill="#4B4E6D"/>
<path opacity="0.3" d="M338.724 385.278C338.339 398.596 338.486 476.117 338.486 476.117C338.045 479.938 334.169 486.643 333.489 500.439C332.497 520.444 338.632 575.627 338.632 575.627C341.005 576.876 343.623 577.591 346.301 577.722C348.98 577.852 351.654 577.394 354.137 576.38C354.137 576.38 362.605 502.055 365.673 482.326C368.337 465.095 373.388 418.215 373.388 418.215L378.348 474.868C376.531 482.069 375.733 489.489 375.978 496.912C376.364 506.097 377.32 562.933 377.32 562.933C379.713 564.371 382.392 565.268 385.169 565.56C387.946 565.852 390.753 565.532 393.393 564.623C393.393 564.623 405.536 483.998 405.94 475.603C406.399 466.014 405.37 368.047 405.37 368.047L338.724 385.278Z" fill="black"/>
<path opacity="0.35" d="M373.462 418.216C380.742 416.183 387.484 412.57 393.209 407.635C393.209 407.635 389.26 414.542 377.926 420.769V470.092L373.462 418.216Z" fill="black"/>
<path d="M331.946 261.245C330.623 260.4 323.9 262.898 319.436 267.986C314.972 273.075 313.925 280.735 314.935 282.462C315.946 284.189 332.387 278.788 332.387 278.788L331.946 261.245Z" fill="#37474F"/>
<path d="M347.744 291.371C344.675 292.736 342.261 295.248 341.021 298.37C339.937 301.162 336.63 305.718 336.63 310.99L338.981 337.774L337.953 385.682C348.66 391.243 360.71 393.695 372.739 392.76C384.768 391.825 396.294 387.541 406.013 380.392C406.013 380.392 404.176 318.614 404.176 307.739C404.176 307.243 404.176 306.747 404.176 306.251C403.862 300.91 401.805 295.819 398.322 291.758C394.838 287.697 390.119 284.889 384.888 283.766C381.104 282.903 360.419 287.201 360.419 287.201L347.744 291.371Z" fill="#FAFAFA"/>
<path d="M303.95 256.817C307.11 266.278 334.61 312.827 341.37 321.847C358.987 313.323 346.017 292.749 346.017 292.749C346.017 292.749 323.643 249.947 321.2 244.454C319.675 241.074 319.712 219.839 319.877 209.735C319.818 207.011 320.133 204.291 320.814 201.653C321.622 198.621 322.798 196.656 322.982 193.46C322.796 190.81 322.176 188.21 321.145 185.763C319.73 182.089 318.224 177.404 319.106 173.381C319.303 172.749 319.42 172.095 319.455 171.434C319.26 170.136 318.608 168.951 317.618 168.091C316.126 166.489 314.55 164.968 312.896 163.535C311.935 162.64 310.837 161.902 309.645 161.349C309.048 161.076 308.4 160.935 307.744 160.935C307.088 160.935 306.439 161.076 305.842 161.349C304.794 161.983 303.977 162.935 303.509 164.068C301.994 167.343 301.288 170.934 301.452 174.539C301.531 176.886 301.776 179.225 302.187 181.537C302.536 183.687 302.022 198.217 301.966 203.453C301.819 217.634 300.607 232.716 301.342 242.489C301.533 247.364 302.412 252.188 303.95 256.817Z" fill="#B16668"/>
<path d="M350.922 290.49L331.946 261.245C331.946 261.245 331.946 279.119 314.935 282.462L337.714 322.6C340.047 327.652 347.615 323.941 350.573 313.415C354.504 298.719 350.922 290.49 350.922 290.49Z" fill="#455A64"/>
<path d="M383.639 257.442C394.231 257.442 402.817 248.855 402.817 238.264C402.817 227.672 394.231 219.085 383.639 219.085C373.047 219.085 364.461 227.672 364.461 238.264C364.461 248.855 373.047 257.442 383.639 257.442Z" fill="#263238"/>
<path d="M350.481 251.894C350.481 251.894 353.586 266.48 354.835 268.886C355.671 270.362 357.037 271.466 358.656 271.972L358.435 261.704L350.481 251.894Z" fill="#263238"/>
<path d="M354.394 230.971C353.305 230.845 352.202 230.968 351.168 231.331C350.134 231.694 349.195 232.287 348.424 233.065C345.87 235.692 347.303 243.866 350.481 251.894L356.341 252.555L354.394 230.971Z" fill="#263238"/>
<path d="M358.086 252.574C356.929 253.272 355.239 251.013 353.806 249.488C352.373 247.963 347.634 245.906 345.264 250.884C342.894 255.863 347.358 262.623 351.069 263.743C357.48 265.746 358.417 261.649 358.417 261.649L358.895 287.569C366.867 297.783 388.984 297.011 379.763 286.338V277.153C382.623 277.61 385.524 277.758 388.415 277.594C393.118 276.859 396.094 273.149 397.6 268.042C399.896 259.849 400.76 253.236 398.812 237.107C396.681 219.435 376.126 219.251 365.03 226.25C353.935 233.249 358.086 252.574 358.086 252.574Z" fill="#B16668"/>
<path d="M358.105 254.631C357.498 254.631 355.257 250.957 353.806 249.58C351.767 247.743 354.394 231.063 354.394 231.063C353.863 229.62 353.764 228.054 354.11 226.557C354.456 225.059 355.231 223.695 356.341 222.631C359.115 219.582 362.128 217.653 370.118 217.23C375.59 217.201 381.06 217.459 386.504 218.002C394.404 218.535 397.306 216.587 401.843 215.32C405.315 214.346 405.719 226.875 396.939 231.008C396.939 231.008 394.091 232.845 386.578 233.763C379.65 234.288 372.687 234.159 365.783 233.377C363.597 233.084 363.138 235.214 361.962 240.946C360.934 245.924 360.07 254.503 358.105 254.631Z" fill="#263238"/>
<path d="M354.394 232.275L347.303 228.473C347.524 227.991 347.841 227.559 348.235 227.203C348.628 226.848 349.089 226.576 349.591 226.404C350.093 226.232 350.624 226.164 351.153 226.204C351.682 226.244 352.197 226.391 352.667 226.636C353.633 227.165 354.355 228.051 354.677 229.104C355 230.158 354.898 231.296 354.394 232.275Z" fill="#263238"/>
<path d="M379.763 277.172C379.763 277.172 369.255 275.041 365.563 273.093C363.402 271.962 361.629 270.209 360.474 268.06C361.036 270.212 362.023 272.229 363.377 273.994C366.059 277.429 379.763 279.964 379.763 279.964V277.172Z" fill="#9A4A4D"/>
<path d="M379.248 249.929C379.234 250.344 379.097 250.746 378.856 251.084C378.614 251.422 378.278 251.681 377.89 251.829C377.502 251.977 377.079 252.007 376.674 251.916C376.268 251.825 375.899 251.617 375.611 251.317C375.324 251.017 375.132 250.639 375.058 250.23C374.984 249.821 375.033 249.399 375.197 249.018C375.362 248.637 375.635 248.312 375.983 248.085C376.331 247.859 376.739 247.739 377.154 247.743C377.435 247.748 377.713 247.808 377.971 247.921C378.229 248.033 378.462 248.196 378.657 248.399C378.852 248.602 379.004 248.842 379.106 249.105C379.207 249.367 379.256 249.647 379.248 249.929Z" fill="#263238"/>
<path d="M377.026 241.975L372.507 244.454C372.163 243.827 372.08 243.09 372.276 242.403C372.472 241.715 372.931 241.132 373.554 240.78C373.858 240.62 374.192 240.523 374.535 240.496C374.878 240.47 375.223 240.514 375.548 240.626C375.874 240.738 376.173 240.915 376.427 241.147C376.681 241.379 376.885 241.661 377.026 241.975Z" fill="#263238"/>
<path d="M378.826 264.496L383.639 266.333C383.534 266.655 383.364 266.953 383.141 267.209C382.918 267.464 382.646 267.672 382.34 267.819C382.035 267.967 381.703 268.051 381.364 268.067C381.025 268.083 380.687 268.031 380.369 267.912C379.716 267.657 379.189 267.157 378.901 266.518C378.613 265.88 378.586 265.154 378.826 264.496Z" fill="#9A4A4D"/>
<path d="M397.453 243.72L393.338 240.56C393.531 240.281 393.779 240.045 394.067 239.865C394.355 239.686 394.676 239.566 395.011 239.515C395.346 239.463 395.688 239.481 396.016 239.565C396.345 239.65 396.652 239.801 396.92 240.009C397.464 240.443 397.823 241.069 397.922 241.759C398.021 242.448 397.853 243.149 397.453 243.72Z" fill="#263238"/>
<path d="M396.186 249.341C396.19 249.623 396.14 249.904 396.036 250.166C395.933 250.429 395.778 250.668 395.582 250.871C395.386 251.074 395.152 251.237 394.893 251.349C394.634 251.462 394.355 251.522 394.073 251.527C393.503 251.508 392.963 251.266 392.568 250.855C392.173 250.443 391.955 249.893 391.961 249.322C391.961 248.762 392.183 248.225 392.579 247.829C392.975 247.433 393.513 247.21 394.073 247.21C394.633 247.21 395.171 247.433 395.567 247.829C395.963 248.225 396.186 248.762 396.186 249.322V249.341Z" fill="#263238"/>
<path d="M385.439 247.339L386.137 260.014L392.75 257.755L385.439 247.339Z" fill="#9A4A4D"/>
<path d="M302.131 192.174C300.607 187.14 298.457 184.33 296.4 180.086C293.351 173.491 295.959 169.064 296.602 170.46C297.98 173.51 302.756 180.215 304.17 180.215C305.585 180.215 306.007 187.563 306.007 187.563L302.131 192.174Z" fill="#B16668"/>
<path d="M81.2703 352.764C81.7295 339.188 88.0304 332.263 94.4231 323.849C106.18 308.437 117.716 292.896 117.716 292.896C117.716 292.896 148.725 228.436 151.407 222.503C154.585 215.449 169.152 223.329 166.378 228.014C166.378 228.014 163.255 234.535 160.867 240.726C151.829 263.504 143.563 285.695 134.139 307.923L96.8296 355.133L81.2703 352.764Z" fill="#FFA8A7"/>
<path d="M279.151 127.879C278.643 127.743 278.104 127.789 277.626 128.008L260.708 135.631C260.442 135.764 260.151 135.835 259.854 135.84C259.558 135.846 259.264 135.784 258.994 135.661C258.725 135.538 258.486 135.355 258.296 135.128C258.106 134.9 257.97 134.633 257.897 134.345C257.236 132.214 245.644 129.753 244.689 127.916L251.21 111.769L279.151 127.879Z" fill="#455A64"/>
<path d="M251.211 111.75C250.984 111.631 250.732 111.569 250.476 111.569C250.22 111.569 249.968 111.631 249.741 111.75L237.249 82.8543C237.531 82.2776 237.583 81.6157 237.395 81.002C237.208 80.3884 236.795 79.8687 236.239 79.5477L224.005 72.4753C223.448 72.1578 222.792 72.0628 222.169 72.2093C221.545 72.3559 221 72.7331 220.643 73.2652L206.59 94.3906C206.158 94.9568 205.603 95.4167 204.966 95.7351C204.329 96.0535 203.628 96.222 202.916 96.2276C201.278 96.193 199.64 96.2667 198.011 96.448V80.9438L188.624 75.4328C188.376 75.3227 188.104 75.2783 187.833 75.304C187.563 75.3298 187.304 75.4248 187.081 75.5798L168.068 86.6017C167.471 87.0136 166.967 87.5474 166.59 88.168C166.213 88.7885 165.972 89.4818 165.882 90.2022L164.045 111.346C163.831 112.839 163.141 114.224 162.08 115.296C158.31 118.781 154.781 122.519 151.517 126.483C151.06 126.977 150.475 127.337 149.827 127.521C149.179 127.706 148.493 127.709 147.843 127.53L135.645 123.268C135.016 123.074 134.34 123.093 133.722 123.322C133.104 123.551 132.579 123.978 132.229 124.536L118.249 148.747C117.914 149.336 117.791 150.023 117.901 150.692C118.012 151.36 118.349 151.971 118.855 152.421L128.647 160.871C129.125 161.339 129.467 161.928 129.635 162.575C129.804 163.223 129.792 163.904 129.602 164.545C127.804 169.339 126.331 174.249 125.193 179.241C124.798 180.694 123.949 181.981 122.768 182.915L105.262 195.205C104.697 195.645 104.231 196.201 103.896 196.834C103.56 197.467 103.362 198.164 103.314 198.879V220.831C103.289 221.106 103.339 221.383 103.458 221.632C103.578 221.881 103.763 222.093 103.994 222.245L126.038 234.957L118.01 251.141C117.727 251.716 117.673 252.376 117.857 252.989C118.041 253.603 118.45 254.124 119.002 254.448L148.927 271.789C149.485 272.098 150.139 272.188 150.76 272.042C151.381 271.896 151.926 271.524 152.289 270.999L165.901 257.093C165.905 257.352 165.973 257.606 166.098 257.834C166.223 258.061 166.401 258.254 166.617 258.397L194.503 274.471L195.237 252.647C195.237 252.647 189.341 245.042 189.469 243.738L219.835 210.672C220.467 210.874 221.148 210.859 221.77 210.629C222.393 210.4 222.921 209.969 223.27 209.405L237.249 185.211C237.569 184.617 237.682 183.933 237.569 183.267C237.455 182.602 237.123 181.993 236.625 181.537L250.09 138.699C250.633 138.246 251.077 137.686 251.393 137.054C251.709 136.422 251.891 135.731 251.927 135.025L251.211 111.75ZM177.566 204.077C169.409 208.78 162.668 209.79 157.763 207.513C152.013 204.849 198.673 124.848 203.577 129.22C207.527 132.747 209.676 139.305 209.676 148.453C209.676 168.936 195.274 193.845 177.566 204.077Z" fill="#263238"/>
<path d="M255.895 93.5276L252.111 101.169L239.968 115.186L225.658 106.919L205.561 95.3095C205.97 95.069 206.316 94.7354 206.572 94.3359L220.643 73.2105C220.999 72.6881 221.536 72.3163 222.15 72.167C222.764 72.0177 223.412 72.1015 223.968 72.4022L236.239 79.493L254.866 90.221C255.422 90.5421 255.836 91.0606 256.027 91.6733C256.217 92.286 256.17 92.948 255.895 93.5276Z" fill="#455A64"/>
<path d="M123.815 181.611C123.469 182.136 123.034 182.596 122.529 182.971L105.261 195.205C104.772 195.576 104.365 196.045 104.067 196.583L133.257 213.483L156.311 200.367L123.815 181.611Z" fill="#455A64"/>
<path d="M134.267 123.14C133.806 123.182 133.36 123.329 132.965 123.571C132.57 123.814 132.236 124.144 131.989 124.536L118.01 148.747C117.696 149.305 117.585 149.954 117.698 150.584L148.302 168.293L167.425 142.41L134.267 123.14Z" fill="#455A64"/>
<path d="M216.546 91.6717V98.6155L199.628 108.388L166.084 89.0264C166.478 88.0518 167.165 87.2237 168.05 86.6567L187.063 75.6347C187.353 75.464 187.681 75.3693 188.018 75.3592C188.216 75.3518 188.412 75.3962 188.587 75.4878L197.772 80.7599L198.011 80.9069L210.65 88.2549L216.546 91.6717Z" fill="#455A64"/>
<path d="M279.776 151.19V129.146C279.816 128.877 279.777 128.602 279.665 128.354C279.553 128.106 279.371 127.896 279.143 127.748C278.914 127.601 278.647 127.523 278.375 127.523C278.103 127.523 277.837 127.602 277.608 127.75L260.689 135.392C260.421 135.521 260.128 135.589 259.83 135.592C259.533 135.594 259.238 135.531 258.968 135.406C258.698 135.281 258.458 135.099 258.267 134.871C258.075 134.643 257.936 134.375 257.86 134.088C256.96 131.144 255.695 128.323 254.095 125.693C253.742 125.075 253.536 124.384 253.491 123.674C253.447 122.964 253.565 122.253 253.837 121.596L265.116 98.8543C265.395 98.279 265.448 97.6202 265.264 97.008C265.08 96.3958 264.674 95.8747 264.124 95.5477L251.872 88.4753C251.315 88.1721 250.664 88.0888 250.048 88.2419C249.433 88.3949 248.897 88.7732 248.547 89.3019L234.494 110.427C234.063 110.995 233.508 111.455 232.871 111.774C232.234 112.092 231.532 112.26 230.82 112.264C227.732 112.199 224.648 112.508 221.635 113.183C221.345 113.263 221.041 113.277 220.745 113.224C220.449 113.17 220.169 113.051 219.925 112.875C219.682 112.698 219.481 112.469 219.338 112.204C219.195 111.94 219.114 111.646 219.1 111.346L217.263 92.9759C217.277 92.7038 217.211 92.4335 217.075 92.1975C216.939 91.9616 216.737 91.77 216.495 91.6458C216.252 91.5216 215.979 91.4701 215.708 91.4975C215.437 91.5249 215.179 91.63 214.967 91.8002L195.972 102.822C195.364 103.223 194.847 103.748 194.454 104.362C194.062 104.976 193.803 105.665 193.694 106.386L191.857 127.53C191.627 129.022 190.933 130.404 189.873 131.479C186.105 134.94 182.57 138.646 179.292 142.575C178.835 143.069 178.25 143.429 177.602 143.613C176.954 143.798 176.268 143.801 175.618 143.622L163.402 139.36C162.773 139.166 162.097 139.185 161.479 139.414C160.861 139.643 160.336 140.07 159.985 140.627L146.006 164.839C145.671 165.428 145.548 166.115 145.658 166.783C145.769 167.452 146.105 168.063 146.612 168.513L156.403 176.963C156.899 177.439 157.251 178.044 157.419 178.709C157.588 179.375 157.567 180.075 157.359 180.729C155.566 185.523 154.1 190.433 152.968 195.425C152.568 196.879 151.711 198.167 150.525 199.099L133.165 211.333C132.603 211.776 132.139 212.332 131.804 212.965C131.469 213.597 131.269 214.293 131.218 215.007V236.959C131.178 237.229 131.216 237.504 131.329 237.752C131.441 238 131.622 238.21 131.851 238.357C132.08 238.505 132.347 238.583 132.619 238.583C132.891 238.582 133.157 238.503 133.386 238.355L150.304 230.732C150.573 230.603 150.866 230.535 151.164 230.532C151.461 230.53 151.756 230.593 152.026 230.718C152.296 230.843 152.536 231.025 152.727 231.253C152.919 231.481 153.057 231.748 153.133 232.036C154.038 234.979 155.303 237.799 156.899 240.431C157.252 241.049 157.458 241.74 157.503 242.45C157.547 243.16 157.429 243.87 157.156 244.528L145.877 267.27C145.599 267.845 145.546 268.504 145.73 269.116C145.914 269.728 146.32 270.249 146.869 270.576L159.122 277.649C159.681 277.958 160.334 278.048 160.955 277.902C161.576 277.756 162.121 277.384 162.484 276.859L176.537 255.715C176.97 255.151 177.526 254.692 178.163 254.374C178.799 254.056 179.499 253.886 180.211 253.878C183.299 253.937 186.383 253.622 189.396 252.941C189.685 252.864 189.988 252.853 190.283 252.908C190.578 252.963 190.856 253.082 191.099 253.258C191.342 253.434 191.542 253.662 191.686 253.924C191.83 254.187 191.913 254.479 191.931 254.778L193.768 273.24C193.754 273.512 193.819 273.782 193.955 274.018C194.092 274.254 194.293 274.446 194.536 274.57C194.778 274.694 195.052 274.746 195.323 274.718C195.594 274.691 195.851 274.586 196.064 274.416L215.058 263.394C215.668 262.998 216.186 262.477 216.579 261.866C216.971 261.255 217.23 260.567 217.336 259.848L219.173 238.704C219.388 237.211 220.077 235.827 221.139 234.755C224.909 231.269 228.438 227.532 231.702 223.568C232.159 223.073 232.744 222.714 233.392 222.529C234.04 222.344 234.726 222.341 235.376 222.521L247.592 226.782C248.223 226.978 248.902 226.958 249.52 226.725C250.139 226.492 250.663 226.06 251.008 225.497L265.08 201.358C265.408 200.768 265.527 200.083 265.417 199.416C265.307 198.749 264.975 198.138 264.474 197.684L254.682 189.253C254.204 188.785 253.862 188.196 253.693 187.549C253.525 186.901 253.537 186.22 253.727 185.579C255.519 180.784 256.986 175.874 258.118 170.883C258.517 169.428 259.373 168.14 260.561 167.209L277.92 154.993C278.482 154.527 278.937 153.947 279.257 153.291C279.577 152.635 279.754 151.919 279.776 151.19ZM205.433 220.206C187.687 230.456 173.322 222.153 173.322 201.671C173.322 181.188 187.687 156.279 205.433 146.047C223.178 135.815 237.543 144.099 237.543 164.582C237.543 185.064 223.251 209.974 205.506 220.206H205.433Z" fill="#37474F"/>
<path d="M142.589 633.97L141.321 615.729L125.964 614.645L126.662 630.259C126.313 633.933 123.87 635.385 123.429 637.497C122.988 639.61 136.013 659.321 142.644 663.307C149.276 667.293 158.626 660.368 159.361 658.053C160.371 654.379 149.588 654.379 149.22 654.159C148.977 654.05 148.744 653.921 148.522 653.773C146.178 647.288 144.197 640.676 142.589 633.97Z" fill="#FFA8A7"/>
<path d="M125.652 633.42C127.801 634.871 129.748 638.931 133 644.313C136.251 649.696 140.348 657.374 145.859 658.679C150.911 659.891 157.377 656.088 153.593 655.207C152.27 654.894 149.459 654.582 149.092 654.38C148.854 654.225 148.648 654.025 148.486 653.792C148.486 653.792 151.296 654.27 155.687 654.564C157.064 654.56 158.413 654.955 159.57 655.702C160.727 656.448 161.644 657.514 162.208 658.77C163.035 660.442 161.914 665.108 151.186 666.927C143.416 668.231 137.978 668.176 134.506 662.959C130.3 656.621 123.319 650.1 120.417 646.646C116.834 642.237 121.06 635.11 125.652 633.42Z" fill="#263238"/>
<path d="M41.2241 619.385L50.0416 599.711L36.7602 592.804L29.2653 608.29C26.9323 611.431 23.5155 610.402 21.9173 612.074C20.3191 613.745 21.3478 638.692 25.1504 645.893C27.3548 650.081 32.3881 651.404 36.6316 651.551C39.681 651.551 38.4686 646.922 36.3009 644.203C35.8351 643.701 35.5618 643.05 35.5294 642.366C35.6029 637.277 41.2241 619.385 41.2241 619.385Z" fill="#FFA8A7"/>
<path d="M26.2705 609.594C28.0348 614.487 29.3566 619.528 30.22 624.657C31.6712 631.895 33.4348 641.612 34.6839 643.945C35.9331 646.278 35.6943 643.725 35.6575 642.311C35.6575 643.119 37.3108 644.846 37.7517 645.433C39.4693 647.36 41.0587 649.397 42.5095 651.532C43.2627 652.855 44.5669 655.206 43.7954 656.566C43.0239 657.925 41.0583 658.145 39.7724 658.256C38.4865 658.366 32.7918 659.45 24.1028 654.141C22.8327 653.187 21.7067 652.054 20.7595 650.779C17.4713 645.966 18.0959 641.594 17.5448 636.083C16.7916 628.735 14.4035 626.898 13.1544 621.938C12.7398 619.957 12.6715 617.918 12.9523 615.913C14.2749 610.88 21.1269 608.602 26.2705 609.594Z" fill="#263238"/>
<path d="M17.4898 636.12C18.0409 641.539 17.4898 645.966 20.7046 650.816C21.6461 652.09 22.7659 653.222 24.0295 654.177C32.7185 659.486 38.2846 658.402 39.6991 658.292C40.2588 658.24 40.8124 658.136 41.3524 657.98C31.2122 657.631 28.3465 648.464 27.1157 642.88C25.8849 637.295 23.4417 621.405 20.6862 617.529C17.9307 613.653 12.8974 615.986 12.8974 615.986C12.6165 617.991 12.6849 620.03 13.0994 622.011C14.3486 626.953 16.7367 628.808 17.4898 636.12Z" fill="#37474F"/>
<path d="M129.454 429.146C129.454 429.146 98.2255 509.882 95.617 518.497C93.5398 525.944 90.2437 532.995 85.8626 539.365C82.5192 544.417 44.8425 611.265 44.8425 611.265C34.5554 608.161 32.1489 601.529 32.1489 601.529C32.1489 601.529 44.1261 547.76 48.3328 539.476C52.1259 532.717 57.2727 526.813 63.4513 522.134L73.7384 456.921C74.8406 446.138 69.0541 425.858 86.4688 410.445L86.1932 415.038L129.454 429.146Z" fill="#455A64"/>
<path d="M114.208 423.635C107.76 435.024 101.588 445.073 100.834 457.491C99.2729 483.723 113.693 511.498 116.853 530.658C116.853 530.658 111.911 543.737 112.481 553.914C112.94 561.887 125.707 623.72 125.707 623.72C125.707 623.72 134.892 628.092 142.24 623.591C142.24 623.591 146.869 533.579 146.355 499.007C145.841 464.434 141.248 415.828 141.248 415.828L114.208 423.635Z" fill="#455A64"/>
<path d="M140.164 415.809L86.5608 410.482C83.4195 417.003 75.2266 433.003 78.1657 442.905C81.7295 454.9 89.1877 462.818 109.909 466.786" fill="#455A64"/>
<path d="M105.537 491.603L98.1889 461.66C98.1889 461.66 85.0177 458.115 78.7168 451.189C81.8352 457.436 86.851 462.536 93.0453 465.757C94.0373 466.767 103.149 498.106 103.149 498.106L105.537 491.603Z" fill="#37474F"/>
<path d="M128.922 333.2L126.699 352.635L107.558 354.839L110.313 329.066L128.922 333.2Z" fill="#FFA8A7"/>
<path d="M81.7662 358.128C82.0969 359.781 82.9235 363.455 84.4666 368.985C87.2772 379.162 92.1085 392.994 93.9271 397.844C94.0373 398.046 94.0924 398.23 94.1659 398.376L86.5975 410.776C86.5975 410.776 91.6859 417.04 106.804 421.431C121.923 425.821 140.164 416.82 140.164 416.82L146.392 381.164C148.467 375.855 152.252 368.691 156.403 366.192C158.479 364.962 186.089 345.122 193.143 340.879C198.819 337.443 201.042 334.982 201.997 332.282C202.953 329.581 212.78 288.984 214.36 284.52C215.94 280.056 217.41 278.752 220.918 275.022C224.427 271.293 225.639 270.43 226.705 267.068C227.77 263.707 226.429 262.898 225.897 261.227C225.143 258.93 225.988 257.314 225.474 255.569C224.849 253.401 223.508 252.832 223.178 251.895C222.663 250.352 223.178 249.507 222.278 246.714C221.685 245.003 220.482 243.57 218.898 242.691L218.328 249.103C216.491 256.965 208.188 259.775 207.086 259.224C205.984 258.673 204.367 254.173 201.961 252.207C199.554 250.241 196.229 250.48 197.46 252.868C198.14 254.246 199.738 259.408 200.546 261.686C201.354 263.964 203.798 268.758 203.265 272.414C202.567 277.3 185.317 321.572 185.317 321.572C175.346 327.591 165.056 333.067 154.493 337.976C148.252 341.124 141.772 343.772 135.112 345.894C133.771 345.655 128.242 345.581 125.652 345.122C124.936 344.975 124.164 344.847 123.374 344.718C113.252 342.881 97.9501 340.015 93.7985 339.207L92.733 339.005C91.7596 338.907 90.7776 338.938 89.8122 339.097C88.4544 339.499 87.1958 340.181 86.117 341.098C85.0383 342.016 84.1632 343.148 83.5481 344.424C81.362 348.641 80.7312 353.493 81.7662 358.128Z" fill="#FFA8A7"/>
<path d="M134.984 345.912C133.643 345.673 128.114 345.599 125.523 345.14L123.246 344.736C114.41 343.174 104.141 341.301 96.15 339.739C91.5047 342.016 87.654 345.641 85.1011 350.141C82.5481 354.641 81.4116 359.806 81.8398 364.961C82.5563 375.359 89.7573 391.542 91.484 396.19C84.4481 404.822 79.056 414.673 75.5757 425.251C75.5757 425.251 81.0867 439.102 108.146 441.784C135.792 444.521 143.453 431.773 143.453 431.773L142.093 406.293C143.306 399.827 145.767 388.824 146.355 381.2C131.163 375.028 134.984 345.912 134.984 345.912Z" fill="#4B4E6D"/>
<path opacity="0.15" d="M89.4082 390.918C89.4082 390.918 95.0294 399.332 108.146 402.418C101.128 402.069 95.0478 400.875 91.484 396.136L89.4082 390.918Z" fill="black"/>
<path d="M127.544 286.044C132.192 288.065 140.844 286.613 143.875 308.216C146.263 325.227 143.195 331.05 141.009 333.438C139.558 335.055 130.079 336.543 125.781 335.514C120.398 334.228 108.586 329.342 102.653 320.91C95.654 311.009 93.468 297.323 100.338 291.426C110.074 283.142 123.631 284.336 127.544 286.044Z" fill="#FFA8A7"/>
<path d="M143.563 307.39C143.563 307.39 148.651 314.077 148.1 314.867C147.071 315.675 145.908 316.297 144.665 316.704L143.563 307.39Z" fill="#F28F8F"/>
<path d="M139.007 279.009C132.412 273.149 118.8 270.705 106.933 278.292C104.747 278.862 102.488 279.578 100.191 280.423C97.8519 281.315 95.7064 282.65 93.872 284.354C94.0545 283.543 93.9774 282.695 93.6516 281.929C93.4354 281.422 93.1211 280.962 92.7269 280.577C92.3326 280.191 91.866 279.887 91.354 279.683C90.8419 279.478 90.2945 279.376 89.7431 279.383C89.1916 279.391 88.6471 279.507 88.1406 279.725L90.2715 284.758C89.8862 284.471 89.4499 284.259 88.9856 284.134C87.9211 283.834 86.7812 283.97 85.8166 284.511C84.852 285.052 84.1417 285.953 83.842 287.018L90.0695 288.855C86.9466 293.704 85.2356 299.327 85.1279 305.094C84.9994 306.38 84.9442 307.666 84.9442 308.97V336.947C84.9428 341.525 86.5155 345.964 89.3987 349.519C92.2818 353.075 96.3 355.53 100.779 356.475L128.903 362.445L128.279 323.152C126.842 323.285 125.392 323.16 123.999 322.784C122.452 322.401 121.053 321.57 119.976 320.396C116.302 316.355 117.514 309.282 121.133 308.309C122.15 307.989 123.239 307.972 124.266 308.259C125.293 308.546 126.215 309.125 126.92 309.925L128.114 311.762L128.959 315.693L129.271 317.181C129.806 317.068 130.313 316.85 130.764 316.54C131.214 316.23 131.599 315.834 131.896 315.375C132.193 314.916 132.396 314.402 132.494 313.864C132.592 313.326 132.583 312.774 132.467 312.24C132.395 311.881 132.271 311.535 132.1 311.211L132.577 310.531C147.824 302.816 145.822 285.071 139.007 279.009Z" fill="#37474F"/>
</svg>
