<svg width="507" height="489" viewBox="0 0 507 489" fill="none" xmlns="http://www.w3.org/2000/svg">
<path d="M75.5322 454.596C174.223 500.417 334.286 500.417 432.949 454.596C531.613 408.775 531.653 334.37 432.949 288.495C334.246 242.62 174.196 242.674 75.5322 288.495C-23.1311 334.316 -23.1716 408.735 75.5322 454.596Z" fill="#F5F5F5"/>
<path d="M300.985 387.55C274.665 400.083 231.998 400.083 205.691 387.55C179.384 375.016 179.371 354.666 205.691 342.119C232.011 329.573 274.665 329.586 300.985 342.119C327.305 354.653 327.305 375.003 300.985 387.55Z" fill="#E6E6E6"/>
<path d="M376.064 405.918C411.262 405.918 439.796 392.318 439.796 375.542C439.796 358.765 411.262 345.165 376.064 345.165C340.866 345.165 312.333 358.765 312.333 375.542C312.333 392.318 340.866 405.918 376.064 405.918Z" fill="#E6E6E6"/>
<path d="M176.083 397.549C150.652 409.678 109.426 409.678 83.9823 397.549C58.5382 385.42 58.5517 365.784 83.9823 353.655C109.413 341.526 150.652 341.526 176.083 353.655C201.513 365.784 201.486 385.434 176.083 397.549Z" fill="#E6E6E6"/>
<path d="M87.3379 317.134C86.3002 304.196 74.8045 278.159 59.9801 262.418C45.1557 246.677 23.1212 236.138 8.55279 242.459C-4.97788 248.389 -2.01299 266.582 15.9111 277.35C33.8352 288.118 60.5057 301.325 69.6429 321.702L87.3379 346.176V317.134Z" fill="#4B4E6D"/>
<path opacity="0.1" d="M87.3379 317.134C86.3002 304.196 74.8045 278.159 59.9801 262.418C45.1557 246.677 23.1212 236.138 8.55279 242.459C-4.97788 248.389 -2.01299 266.582 15.9111 277.35C33.8352 288.118 60.5057 301.325 69.6429 321.702L87.3379 346.176V317.134Z" fill="black"/>
<path d="M89.7098 334.748C89.5046 334.749 89.3047 334.682 89.1414 334.558C88.978 334.434 88.8604 334.259 88.8069 334.06C76.5969 290.611 37.9995 257.593 16.0324 251.394C15.8128 251.307 15.6332 251.141 15.5282 250.93C15.4233 250.718 15.4004 250.475 15.464 250.247C15.5276 250.02 15.6732 249.824 15.8727 249.697C16.0722 249.57 16.3115 249.522 16.5445 249.561C38.9698 255.895 78.2681 289.439 90.6667 333.548C90.7036 333.689 90.7079 333.837 90.6793 333.979C90.6506 334.122 90.5898 334.256 90.5014 334.372C90.4131 334.488 90.2995 334.582 90.1693 334.647C90.0391 334.712 89.8958 334.746 89.7503 334.748H89.7098Z" fill="white"/>
<path d="M85.3973 363.494C82.702 356.391 72.9043 345.111 57.743 336.351C40.9779 326.675 20.4663 323.252 15.1429 315.085C8.75496 305.287 16.6119 294.87 33.094 295.625C49.5761 296.379 80.0605 316.325 87.338 349.478L85.3973 363.494Z" fill="#4B4E6D"/>
<path d="M87.9445 355.65C87.7631 355.649 87.5857 355.597 87.433 355.499C87.2803 355.401 87.1586 355.262 87.082 355.098C70.5055 318.36 40.5871 307.417 27.0834 306.743C26.9595 306.737 26.8381 306.706 26.726 306.653C26.6139 306.6 26.5134 306.525 26.4302 306.433C26.3469 306.341 26.2827 306.234 26.241 306.117C26.1993 306 26.181 305.876 26.1872 305.752C26.1934 305.628 26.2239 305.507 26.2771 305.395C26.3302 305.283 26.4049 305.182 26.4969 305.099C26.5889 305.016 26.6963 304.952 26.8131 304.91C26.93 304.868 27.0539 304.85 27.1778 304.856C42.11 305.584 71.8936 316.824 88.807 354.316C88.8588 354.429 88.8877 354.551 88.892 354.676C88.8963 354.8 88.8759 354.924 88.8321 355.041C88.7883 355.157 88.7218 355.264 88.6365 355.355C88.5512 355.445 88.4489 355.518 88.3353 355.569C88.212 355.623 88.0789 355.651 87.9445 355.65Z" fill="white"/>
<path d="M421.481 318.845C422.384 307.619 427.519 289.196 440.578 271.676C454.539 252.89 471.574 241.138 484.215 246.636C495.994 251.758 491.533 268.024 471.251 284.061C457.033 295.314 442.276 309.964 434.338 327.645L421.481 350.151V318.845Z" fill="#4B4E6D"/>
<g opacity="0.1">
<path d="M421.481 318.845C422.384 307.619 427.519 289.196 440.578 271.676C454.539 252.89 471.574 241.138 484.215 246.636C495.994 251.758 491.533 268.024 471.251 284.061C457.033 295.314 442.276 309.964 434.338 327.645L421.481 350.151V318.845Z" fill="black"/>
</g>
<path d="M422.613 327.403C422.777 327.403 422.937 327.352 423.072 327.258C423.207 327.164 423.31 327.031 423.367 326.877C434.674 295.76 458.205 264.278 478.11 253.631C478.203 253.583 478.286 253.517 478.353 253.436C478.42 253.355 478.471 253.262 478.501 253.161C478.531 253.06 478.54 252.955 478.529 252.85C478.517 252.746 478.485 252.645 478.433 252.553C478.384 252.461 478.317 252.38 478.236 252.313C478.155 252.247 478.061 252.198 477.961 252.168C477.861 252.138 477.756 252.128 477.652 252.138C477.548 252.149 477.447 252.18 477.355 252.23C457.14 263.011 433.286 294.884 421.871 326.352C421.835 326.45 421.818 326.555 421.822 326.659C421.826 326.764 421.85 326.867 421.894 326.962C421.938 327.057 422 327.143 422.077 327.214C422.154 327.285 422.245 327.34 422.343 327.376L422.613 327.403Z" fill="white"/>
<path d="M422.613 357.2C429.145 362.332 436.911 365.659 445.133 366.849C459.324 369.1 465.59 362.307 465.59 362.307C465.59 362.307 459.998 349.006 451.938 345.273C451.938 345.273 465.604 348.049 476.56 355.367C476.56 355.367 485.226 355.502 488.69 342.281C488.69 342.281 483.555 334.316 466.332 330.017C466.332 330.017 476.817 327.322 491.937 331.244C493.069 331.688 497.894 314.586 499.363 306.702C500.832 298.818 497.652 298.899 491.506 297.269C485.361 295.638 464.418 294.573 460.51 297.983C456.601 301.393 454.701 312.929 454.701 312.929C454.701 312.929 451.022 306.379 451.898 300.544C447.611 299.313 443.05 299.421 438.826 300.853C431.912 303.266 432.357 306.622 432.357 311.635C432.329 316.698 433.023 321.74 434.419 326.608C434.419 326.608 429.648 322.484 429.486 307.268C429.486 307.268 420.147 315.26 416.4 322.093C412.654 328.926 413.611 346.957 422.613 357.2Z" fill="#4B4E6D"/>
<path d="M422.613 358.009C422.764 358.006 422.912 357.961 423.04 357.881C423.169 357.8 423.272 357.686 423.341 357.551C434.783 333.764 477.356 306.123 492.598 303.158C492.806 303.116 492.99 302.993 493.108 302.817C493.227 302.64 493.271 302.424 493.231 302.215C493.189 302.01 493.068 301.83 492.894 301.714C492.72 301.598 492.507 301.555 492.301 301.595C476.79 304.6 433.529 332.686 421.899 356.85C421.853 356.944 421.827 357.047 421.821 357.152C421.815 357.257 421.83 357.362 421.865 357.461C421.901 357.56 421.955 357.651 422.025 357.729C422.096 357.807 422.181 357.87 422.276 357.914C422.38 357.971 422.495 358.004 422.613 358.009Z" fill="white"/>
<path d="M225.286 91.4653L211.796 137.367L226.539 144.955L238.035 106.681L225.286 91.4653Z" fill="#FFA8A7"/>
<path d="M240.326 73.3931C233.17 74.1612 226.917 80.6031 224.046 90.6972C221.176 100.791 217.308 116.492 217.308 116.492C217.308 116.492 225.151 125.076 235.798 122.475L240.326 73.3931Z" fill="#E6E6E6"/>
<path d="M221.93 339.465V337.524C221.135 339.788 217.429 349.505 211.984 354.316C207.645 358.143 201.756 362.55 200.206 366.876C198.656 371.202 208.211 373.035 212.214 372.388C216.863 371.647 222.901 369.113 226.229 365.151C228.574 362.362 230.084 359.046 231.768 356.85C233.453 354.653 237.253 352.241 238.183 349.693C238.695 348.346 238.183 345.192 237.523 342.578C236.863 339.963 236.297 337.524 235.474 337.74C235.474 338.036 235.474 339.209 235.474 339.209C234.477 340.287 231.741 341.324 228.669 341.392C226.688 341.446 221.89 340.974 221.93 339.465Z" fill="#263238"/>
<path d="M208.09 357.685C209.437 356.526 210.785 355.394 212.011 354.303C215.812 350.947 218.75 345.179 220.475 341.244C221.447 339 221.969 336.587 222.011 334.141L222.132 326.419L236.337 325.759L235.474 339.236V339.559H235.394C234.706 342.362 228.372 349.747 224.76 354.572C222.348 357.807 217.779 361.89 212.402 362.523C207.295 363.143 204.72 361.499 208.09 357.685Z" fill="#FFA8A7"/>
<path d="M291.201 341.931L290.689 340.071C290.554 342.456 289.745 352.833 285.878 358.938C282.791 363.831 278.385 369.72 278.102 374.302C277.819 378.884 287.535 377.954 291.187 376.216C295.446 374.181 300.527 370.043 302.602 365.313C304.058 361.984 304.583 358.372 305.567 355.798C306.551 353.224 309.543 349.828 309.718 347.119C309.812 345.623 308.37 342.807 307.023 340.475C305.675 338.144 304.422 335.974 303.694 336.432C303.761 336.715 304.085 337.861 304.085 337.861C303.424 339.208 301.093 340.934 298.168 341.904C296.336 342.497 291.592 343.4 291.201 341.931Z" fill="#263238"/>
<path d="M283.061 363.319C284.018 361.823 285.002 360.354 285.878 358.979C288.573 354.666 289.786 348.319 290.325 344.06C290.626 341.631 290.442 339.167 289.786 336.81L287.737 329.371L300.783 325.759L304.139 337.888L304.219 338.211C304.341 341.095 300.352 349.963 298.236 355.61C296.888 359.397 293.613 364.599 288.613 366.728C283.843 368.777 280.905 367.928 283.061 363.319Z" fill="#FFA8A7"/>
<path d="M283.896 144.132C291.416 153.782 292.778 163.754 291.133 191.961C289.489 220.168 288.977 243.779 289.395 245.37C289.813 246.96 295.918 259.911 298.155 270.383C300.783 282.633 301.43 328.09 301.43 328.09C299.745 329.767 297.65 330.972 295.353 331.584C293.057 332.197 290.64 332.196 288.344 331.581C288.344 331.581 266.565 258.375 264.449 252.068C262.334 245.761 248.951 178.862 248.951 178.862L250.986 141.127L283.896 144.132Z" fill="#37474F"/>
<path d="M226.445 176.598C227.59 163.566 230.38 140.992 230.38 140.992L263.695 139.038C269.085 147.448 266.74 161.436 265.271 174.078L246.215 248.672C246.606 252.243 249.894 259.817 246.215 279.021C242.172 300.463 236.445 328.71 236.445 328.71C236.445 328.71 229.275 332.012 222.092 328.993C222.092 328.993 219.397 261.057 221.095 242.499C223.049 222.432 225.663 185.506 226.445 176.598Z" fill="#37474F"/>
<path d="M254.787 208.228L249.396 180.87C244.581 179.157 240.01 176.824 235.798 173.93C238.49 177.335 241.701 180.295 245.312 182.703L254.787 208.228Z" fill="#263238"/>
<path d="M226.539 69.2419H253.372C262.078 69.2419 270.429 65.7831 276.585 59.6264C282.742 53.4697 286.201 45.1194 286.201 36.4125C286.203 32.4948 285.433 28.6152 283.935 24.9952C282.437 21.3752 280.24 18.0858 277.47 15.315C274.701 12.5441 271.412 10.3461 267.793 8.84646C264.174 7.34682 260.295 6.57495 256.377 6.57495C248.463 6.57495 240.874 9.71853 235.279 15.3142C229.683 20.9098 226.539 28.4991 226.539 36.4125V69.2419Z" fill="#263238"/>
<path d="M281.201 74.3364C286.376 74.5925 290.19 75.5628 293.707 85.7378C297.225 95.9127 304.556 134.968 302.103 139.038L285.743 132.138L281.7 110.697C272.387 102.759 272.913 77.1935 281.201 74.3364Z" fill="#FFA8A7"/>
<path d="M232.483 119.821C231.66 127.435 228.601 155.547 228.601 155.547C253.708 168.943 284.853 160.076 289.624 154.55C285.311 140.332 280.662 132.246 277.104 128.459L281.632 110.697C281.632 110.697 270.42 94.6594 281.201 74.3095L267.886 73.2179L248.331 72.6519C243.655 72.9079 240.326 73.3661 240.326 73.3661C237.321 76.1693 232.604 83.8645 229.545 91.708C227.563 96.7887 225.434 104.861 232.483 119.821Z" fill="#F5F5F5"/>
<path d="M281.201 74.3363C287.09 73.9994 290.635 75.4548 294.88 84.9155C299.125 94.3762 302.562 117.475 302.562 117.475C302.562 117.475 298.963 124.793 281.174 122.718L278.479 106.68C278.479 106.68 270.635 90.0097 281.201 74.3363Z" fill="#E6E6E6"/>
<path d="M279.355 119.632C279.139 120.508 273.25 128.284 270.366 130.117C267.482 131.95 275.487 134.483 276.605 139.038C278.883 148.23 272.266 158.148 249.8 158.755C244.49 158.89 244.261 160.022 247.011 161.639C266.97 164.927 285.985 158.768 289.624 154.55C285.311 140.332 280.662 132.246 277.104 128.459L279.355 119.632Z" fill="#E6E6E6"/>
<path d="M237.199 19.5667C234.046 21.4265 230.151 29.3508 230.528 45.9677C230.865 60.0509 235.42 63.4875 237.711 64.5386C240.003 65.5898 244.45 64.9295 248.722 64.2152V72.6651C248.853 73.5504 249.158 74.4008 249.621 75.1667C250.084 75.9326 250.694 76.5986 251.417 77.1259C254.908 79.3226 259.059 78.4736 261.39 77.6515C266.525 75.8052 267.549 73.2716 267.549 73.2716L267.455 53.8381C267.455 53.8381 269.975 56.3043 274.26 52.4904C277.805 49.4042 279.004 44.1887 276.242 41.3856C275.527 40.7184 274.664 40.2309 273.724 39.9633C272.784 39.6957 271.794 39.6557 270.835 39.8466C269.876 40.0376 268.977 40.4539 268.211 41.0613C267.445 41.6687 266.835 42.4497 266.43 43.3397C266.43 43.3397 263.91 43.5419 261.39 38.8654C261.39 38.8654 261.471 26.1433 258.695 24.4857C249.638 19.2837 243.264 19.5667 237.199 19.5667Z" fill="#FFA8A7"/>
<path d="M246.256 41.5337C246.254 41.8793 246.353 42.218 246.542 42.5076C246.73 42.7973 247 43.0253 247.316 43.1633C247.633 43.3013 247.984 43.3432 248.324 43.2839C248.665 43.2246 248.98 43.0667 249.232 42.8297C249.483 42.5927 249.66 42.2871 249.739 41.9507C249.819 41.6144 249.798 41.2621 249.679 40.9376C249.56 40.613 249.349 40.3305 249.071 40.125C248.793 39.9196 248.461 39.8002 248.116 39.7817C247.638 39.7708 247.175 39.9484 246.827 40.2763C246.478 40.6042 246.273 41.0559 246.256 41.5337Z" fill="#263238"/>
<g style="mix-blend-mode:multiply" opacity="0.5">
<path d="M245.784 54.3638L241.674 55.7114C241.748 55.989 241.877 56.2486 242.055 56.4744C242.232 56.7002 242.454 56.8875 242.706 57.025C242.958 57.1624 243.236 57.2471 243.522 57.2738C243.808 57.3005 244.096 57.2688 244.369 57.1804C244.925 56.9868 245.383 56.5845 245.647 56.0588C245.911 55.533 245.961 54.9251 245.784 54.3638Z" fill="#F28F8F"/>
</g>
<path d="M232.712 36.0083L236.296 33.5286C236.149 33.2861 235.953 33.0764 235.721 32.9126C235.489 32.7488 235.226 32.6343 234.948 32.5762C234.67 32.518 234.383 32.5176 234.105 32.5748C233.827 32.632 233.564 32.7456 233.332 32.9087C232.853 33.249 232.522 33.7593 232.406 34.3355C232.291 34.9116 232.4 35.51 232.712 36.0083Z" fill="#263238"/>
<path d="M248.722 35.3208L252.765 36.8841C252.883 36.6244 252.946 36.3433 252.95 36.0582C252.954 35.7732 252.899 35.4903 252.789 35.2273C252.679 34.9643 252.516 34.7268 252.31 34.5296C252.104 34.3323 251.86 34.1796 251.593 34.081C251.046 33.8856 250.446 33.9049 249.913 34.1351C249.38 34.3652 248.955 34.789 248.722 35.3208Z" fill="#263238"/>
<path d="M231.917 41.1566C231.912 41.5054 232.01 41.8479 232.198 42.1416C232.386 42.4352 232.657 42.667 232.976 42.808C233.295 42.9491 233.649 42.9932 233.993 42.935C234.337 42.8767 234.656 42.7186 234.911 42.4803C235.165 42.242 235.344 41.934 235.426 41.5948C235.507 41.2555 235.486 40.8998 235.367 40.572C235.247 40.2443 235.034 39.9588 234.754 39.7513C234.474 39.5437 234.138 39.4231 233.79 39.4046C233.552 39.3956 233.314 39.4339 233.091 39.5173C232.867 39.6006 232.662 39.7274 232.488 39.8903C232.314 40.0532 232.174 40.2489 232.076 40.4663C231.978 40.6836 231.924 40.9182 231.917 41.1566Z" fill="#263238"/>
<g style="mix-blend-mode:multiply" opacity="0.5">
<path d="M240.919 40.1323L240.636 50.7924L235.03 49.0674L240.919 40.1323Z" fill="#F28F8F"/>
</g>
<g style="mix-blend-mode:multiply" opacity="0.5">
<path d="M248.722 64.2152C253.25 63.6222 262.576 60.9404 264.018 57.2612C263.435 59.1205 262.297 60.757 260.757 61.9511C257.967 64.3365 248.722 67.0319 248.722 67.0319V64.2152Z" fill="#F28F8F"/>
</g>
<path d="M260.689 8.1653L261.377 0.348786C260.867 0.277329 260.348 0.310238 259.851 0.445519C259.354 0.5808 258.89 0.815633 258.487 1.13576C258.083 1.45588 257.749 1.85462 257.505 2.30778C257.26 2.76093 257.11 3.25904 257.064 3.77189C256.966 4.83437 257.293 5.89242 257.972 6.71539C258.651 7.53837 259.628 8.05953 260.689 8.1653Z" fill="#263238"/>
<path d="M261.107 8.96033L267.441 4.32432C267.158 3.89816 266.793 3.53325 266.366 3.25129C265.939 2.96932 265.46 2.77607 264.957 2.68302C264.454 2.58998 263.938 2.59905 263.439 2.70968C262.939 2.82032 262.467 3.03027 262.051 3.32704C261.202 3.96682 260.631 4.90761 260.456 5.95562C260.28 7.00364 260.514 8.07905 261.107 8.96033Z" fill="#263238"/>
<path d="M266.417 43.3938V50.833C265.755 50.8348 265.098 50.7056 264.486 50.4529C263.874 50.2003 263.317 49.8291 262.849 49.3607C262.381 48.8923 262.009 48.3359 261.757 47.7236C261.504 47.1113 261.375 46.4551 261.377 45.7927V38.96L266.417 43.3938Z" fill="#263238"/>
<path d="M246.256 8.34058C242.967 8.33881 239.709 8.98518 236.669 10.2428C233.63 11.5003 230.868 13.3445 228.541 15.6698C226.215 17.9951 224.369 20.7561 223.11 23.795C221.851 26.8338 221.203 30.091 221.203 33.3804V36.6283H233.466C236.224 36.6274 238.887 35.6275 240.963 33.8137C243.04 31.9999 244.388 29.4952 244.76 26.7633L245.218 36.6283C247.486 36.63 249.672 35.7809 251.344 34.2487C253.016 32.7165 254.052 30.6129 254.248 28.3536L254.396 26.7364C254.618 29.425 255.841 31.9325 257.822 33.7638C259.803 35.5952 262.399 36.6173 265.096 36.6283H266.175L267.428 18.9333L246.256 8.34058Z" fill="#263238"/>
<path d="M270.339 40.0511H256.336C256.056 38.7327 255.331 37.5505 254.284 36.7018C253.237 35.8532 251.93 35.3895 250.582 35.3882H249.679C248.523 35.4001 247.396 35.7513 246.437 36.3981C245.479 37.045 244.732 37.9591 244.288 39.0269C243.381 38.1082 242.156 37.5728 240.865 37.531C239.777 37.4423 238.695 37.7645 237.833 38.4339C237.33 37.5139 236.59 36.7459 235.689 36.2101C234.788 35.6742 233.76 35.3904 232.712 35.3882H231.809C230.25 35.3882 228.756 36.0072 227.654 37.1092C226.552 38.2111 225.933 39.7057 225.933 41.264C225.933 42.8224 226.552 44.317 227.654 45.4189C228.756 46.5209 230.25 47.1399 231.809 47.1399H232.712C233.483 47.1399 234.247 46.9879 234.96 46.6926C235.673 46.3974 236.321 45.9645 236.867 45.4189C237.412 44.8733 237.845 44.2255 238.14 43.5126C238.436 42.7998 238.588 42.0357 238.588 41.264C238.581 40.6295 238.467 40.0007 238.251 39.4043C238.589 39.082 238.993 38.8368 239.435 38.6856C239.877 38.5344 240.346 38.4807 240.811 38.5283C241.417 38.5319 242.013 38.6763 242.554 38.9499C243.094 39.2235 243.563 39.619 243.924 40.105C243.843 40.495 243.802 40.8925 243.803 41.291C243.807 42.8483 244.427 44.3408 245.528 45.4419C246.629 46.5431 248.122 47.1633 249.679 47.1669H250.582C251.353 47.1669 252.118 47.0149 252.83 46.7196C253.543 46.4243 254.191 45.9915 254.737 45.4459C255.282 44.9003 255.715 44.2525 256.01 43.5396C256.306 42.8267 256.458 42.0626 256.458 41.291C256.458 41.2101 256.458 41.1428 256.458 41.0754H268.371C268.966 40.6276 269.631 40.2815 270.339 40.0511ZM232.671 46.1426H231.768C230.474 46.1426 229.234 45.6287 228.319 44.7137C227.404 43.7988 226.89 42.5579 226.89 41.264C226.89 39.9702 227.404 38.7293 228.319 37.8144C229.234 36.8995 230.474 36.3855 231.768 36.3855H232.671C233.965 36.3855 235.206 36.8995 236.121 37.8144C237.036 38.7293 237.55 39.9702 237.55 41.264C237.55 42.5579 237.036 43.7988 236.121 44.7137C235.206 45.6287 233.965 46.1426 232.671 46.1426ZM250.582 46.1426H249.679C248.385 46.1426 247.144 45.6287 246.229 44.7137C245.314 43.7988 244.8 42.5579 244.8 41.264C244.8 39.9702 245.314 38.7293 246.229 37.8144C247.144 36.8995 248.385 36.3855 249.679 36.3855H250.582C251.876 36.3855 253.117 36.8995 254.032 37.8144C254.946 38.7293 255.46 39.9702 255.46 41.264C255.46 42.5579 254.946 43.7988 254.032 44.7137C253.117 45.6287 251.876 46.1426 250.582 46.1426Z" fill="#455A64"/>
<path d="M302.103 139.038C298.451 143.297 265.271 174.078 265.271 174.078L266.417 155.493L285.743 132.151L302.103 139.038Z" fill="#FFA8A7"/>
<path d="M238.008 188.296L249.248 180.317C260.029 172.703 272.792 160.736 272.792 146.976C272.658 142.148 270.829 137.521 267.626 133.906C264.422 130.291 260.049 127.919 255.272 127.206C246.404 126.02 239.1 134.753 237.968 143.162C236.863 134.456 229.531 123.769 220.663 122.596C218.486 122.223 216.254 122.337 214.126 122.93C211.999 123.524 210.029 124.582 208.36 126.028C206.691 127.474 205.363 129.273 204.472 131.294C203.582 133.316 203.151 135.509 203.211 137.717C203.211 151.504 215.987 166.854 226.688 177.312L238.008 188.296Z" fill="#4B4E6D"/>
<path d="M268.587 160.911C264.072 163.606 256.363 163.701 251.175 163.93C245.986 164.159 239.571 172.097 243.789 175.304C247.032 177.421 250.868 178.443 254.735 178.22C258.601 177.997 262.294 176.541 265.271 174.064L268.587 160.911Z" fill="#FFA8A7"/>
<path d="M203.804 142.758C202.564 143.755 202.2 147.003 202.955 150.453C203.71 153.903 206.634 159.28 210.785 160.911C212.685 161.666 220.946 161.908 224.922 157.636C229.127 153.108 228.79 145.359 222.739 146.733C216.966 147.818 211.072 148.118 205.219 147.623C204.631 146.037 204.158 144.411 203.804 142.758Z" fill="#FFA8A7"/>
<path d="M422.963 350.718H409.675V370.057H422.963V350.718Z" fill="#FFA8A7"/>
<path d="M409.675 363.494V361.607C408.408 362.16 405.443 373.426 400.174 378.224C395.996 382.051 390.282 386.458 388.826 390.717C387.371 394.975 396.778 397.603 400.699 396.903C405.241 396.094 413.125 392.86 415.106 389.935C417.087 387.011 418.004 382.577 419.621 380.407C421.238 378.237 424.931 375.798 425.793 373.291C426.278 371.944 425.712 368.871 425.038 366.31C424.419 363.965 423.758 361.378 422.95 361.607V363.049C421.993 364.114 419.324 365.178 416.319 365.3C414.419 365.367 409.661 364.99 409.675 363.494Z" fill="#263238"/>
<path d="M364.38 355.259L351.105 355.718L352.237 336.149L365.512 335.705L364.38 355.259Z" fill="#FFA8A7"/>
<path d="M351.348 351.621C350.647 351.621 350.121 352.618 348.652 354.316C346.385 356.614 343.747 358.514 340.849 359.936C335.876 362.429 326.2 366.257 321.833 368.224C319.138 369.464 319.219 372.766 322.049 374.639C324.879 376.512 331.698 377.873 339.892 375.987C344.353 374.989 350.162 370.866 353.841 371.095C357.52 371.324 364.393 371.256 367.102 369.383C369.811 367.51 368.733 363.521 367.964 360.084C367.129 356.338 365.929 350.475 364.69 350.731L364.609 352.295C363.005 354.72 354.798 355.206 351.294 353.427L351.348 351.621Z" fill="#263238"/>
<path d="M366.482 103.028C360.485 108.783 325.149 127.286 323.208 126.949C320.297 126.545 309.731 116.168 300.702 106.573C299.287 99.2682 297.211 90.0635 294.893 84.9154C293.703 81.9037 291.931 79.1561 289.678 76.8293L290.284 74.3496L324.488 106.694C324.488 106.694 362.021 78.3926 367.614 76.7754C373.207 75.1582 372.479 97.2736 366.482 103.028Z" fill="#F28F8F"/>
<path d="M276.956 70.0909C272.374 71.2365 268.87 74.3361 269.638 79.2956C270.137 82.557 275.527 84.9424 278.425 82.4626C280.756 80.4546 287.737 75.6434 290.931 78.1096C291.654 79.5741 291.904 81.2273 291.646 82.84C291.43 85.4275 292.751 87.2738 293.532 87.1525C294.314 87.0312 295.527 82.9074 295.648 81.2902C295.823 78.7835 294.395 71.4251 283.196 69.9427C281.124 69.6058 279.009 69.6561 276.956 70.0909Z" fill="#FFA8A7"/>
<path d="M449.566 152.623C449.27 148.58 442.437 130.278 439.041 122.718L421.831 130.804L428.421 145.898L446.251 159.671C450.873 158.943 449.701 154.321 449.566 152.623Z" fill="#FFA8A7"/>
<path d="M415.874 163.593C415.874 176.274 417.518 258.321 417.518 258.321C417.828 261.959 422.478 273.967 422.909 290.935C423.448 309.991 424.014 352.928 424.014 352.928C424.014 352.928 417.788 359.1 409.001 352.928C409.001 352.928 394.514 290.207 390.053 266.38C387.977 249.911 382.789 202.675 382.789 202.675L372.007 256.447C372.956 262.768 373.406 269.153 373.355 275.544C373.355 284.304 365.714 341.122 365.714 341.122C365.714 341.122 358.207 345.677 351.011 341.365C351.011 341.365 346.685 264.453 346.563 256.461C346.415 246.677 353.666 163.579 353.666 163.579L415.874 163.593Z" fill="#37474F"/>
<path d="M382.829 202.702L381.279 191.22C381.279 191.22 371.266 186.625 367.803 183.363C367.803 183.363 374.096 191.678 378.059 193.996L373.207 250.882L382.829 202.702Z" fill="#263238"/>
<path d="M372.641 75.0908C365.727 75.0908 356.469 81.1823 348.652 87.2199C340.836 93.2575 334.34 98.2304 334.34 98.2304C335.688 105.535 340.337 112.219 345.35 117.691L367.601 105.629C367.601 105.629 377.304 85.8722 372.641 75.0908Z" fill="#E6E6E6"/>
<path d="M395.875 75.7513C407.788 78.6218 422.896 83.433 428.219 94.4031C433.542 105.373 441.696 123.163 441.696 123.163C436.155 128.576 429.392 132.574 421.979 134.82L415.928 124.281V163.593C406.616 173.714 374.15 178.417 353.814 163.593V98.9044C353.814 88.5542 359.555 76.1286 375.377 75.1987L395.875 75.7513Z" fill="#F5F5F5"/>
<path d="M415.874 124.281C415.874 124.281 409.904 113.931 408.61 111.438L415.874 136.437V124.281Z" fill="#E6E6E6"/>
<path d="M400.349 22.8011C401.419 22.676 402.503 22.7967 403.519 23.154C404.535 23.5113 405.456 24.0959 406.211 24.8631C408.718 27.4371 408.206 32.1944 406.211 43.1375L398.449 44.027L400.349 22.8011Z" fill="#263238"/>
<path d="M355.027 19.6339C353.354 19.6484 351.697 19.3133 350.162 18.6501C347.776 17.3024 347.156 19.9978 348.463 22.3562C349.331 24.0414 350.614 25.477 352.192 26.5266C353.77 27.5762 355.59 28.205 357.479 28.3534C357.547 28.0165 359.717 22.2888 359.717 22.2888L355.027 19.6339Z" fill="#263238"/>
<path d="M396.71 44.0944C397.856 44.7817 399.5 42.558 400.929 41.0756C402.357 39.5931 406.993 37.5447 409.311 42.4233C411.629 47.3019 406.319 54.0133 403.166 56.1965C399.433 58.7975 396.71 56.7625 396.71 56.7625L395.875 75.7917C395.875 75.7917 391.751 85.8858 380.579 87.4087C369.407 88.9316 371.698 79.6596 375.336 75.0909V68.1774C375.336 68.1774 369.568 69.3094 366.832 68.6086C364.858 67.9805 363.07 66.8743 361.626 65.3884C360.183 63.9024 359.129 62.0828 358.558 60.0913C355.482 49.9526 354.84 39.2315 356.684 28.7983C359.515 11.5345 378.988 11.2785 389.905 18.1112C400.821 24.9439 396.71 44.0944 396.71 44.0944Z" fill="#FFA8A7"/>
<path d="M396.71 45.9811C397.29 45.9811 399.487 42.3289 400.929 41.0216C402.923 39.2023 400.349 22.801 400.349 22.801C400.349 22.801 402.371 16.5882 398.436 12.4644C394.5 8.34047 386.872 9.02779 381.293 8.82564C374.447 8.85745 367.667 7.48129 361.374 4.78261C353.45 1.33256 352.857 0.928255 351.941 4.40526C351.024 7.88226 350.593 15.847 355.31 21.1838L359.232 22.6258C359.232 22.6258 361.361 24.5126 368.746 25.4155C376.131 26.3185 387.614 25.2403 389.204 25.0247C391.347 24.7282 391.805 26.8036 392.95 32.4773C393.907 37.5042 394.756 45.9406 396.71 45.9811Z" fill="#263238"/>
<path d="M400.336 24.0812L407.317 20.3347C407.093 19.8651 406.777 19.4455 406.387 19.1012C405.998 18.757 405.542 18.4951 405.049 18.3314C404.555 18.1677 404.034 18.1056 403.516 18.1488C402.997 18.192 402.493 18.3396 402.034 18.5827C401.1 19.1069 400.403 19.9697 400.087 20.993C399.771 22.0162 399.86 23.1217 400.336 24.0812Z" fill="#263238"/>
<path d="M375.336 68.2312C375.336 68.2312 385.686 66.1423 389.298 64.1882C391.428 63.085 393.172 61.36 394.298 59.2422C393.756 61.3575 392.793 63.342 391.468 65.0776C388.773 68.4603 375.296 70.9535 375.296 70.9535L375.336 68.2312Z" fill="#F28F8F"/>
<path d="M377.883 41.3991C377.878 41.6752 377.927 41.9497 378.028 42.2068C378.128 42.464 378.279 42.6987 378.47 42.8977C378.662 43.0967 378.891 43.256 379.144 43.3666C379.397 43.4771 379.669 43.5367 379.945 43.5419C380.376 43.5608 380.802 43.4502 381.169 43.2244C381.536 42.9986 381.827 42.668 382.005 42.2752C382.182 41.8824 382.238 41.4455 382.164 41.0208C382.091 40.5961 381.892 40.2032 381.593 39.8926C381.294 39.5821 380.909 39.3682 380.488 39.2786C380.066 39.189 379.627 39.2277 379.228 39.3899C378.829 39.552 378.487 39.8301 378.248 40.1883C378.008 40.5464 377.881 40.9682 377.883 41.3991Z" fill="#263238"/>
<path d="M380.458 32.8681L384.891 35.3074C385.198 34.6969 385.262 33.9927 385.069 33.3372C384.876 32.6818 384.442 32.1239 383.854 31.7765C383.561 31.6173 383.238 31.5193 382.906 31.4882C382.574 31.4572 382.24 31.4938 381.922 31.5958C381.605 31.6979 381.311 31.8632 381.059 32.0819C380.808 32.3006 380.603 32.568 380.458 32.8681Z" fill="#263238"/>
<path d="M378.032 55.5093L373.301 57.2882C373.404 57.6049 373.57 57.8976 373.788 58.1489C374.007 58.4002 374.274 58.6049 374.573 58.7508C374.872 58.8967 375.198 58.9808 375.531 58.9981C375.863 59.0154 376.196 58.9655 376.509 58.8515C377.138 58.5901 377.645 58.1001 377.928 57.4799C378.21 56.8598 378.247 56.1557 378.032 55.5093Z" fill="#F28F8F"/>
<path d="M358.666 35.4829L362.709 32.3563C362.517 32.0844 362.273 31.8539 361.991 31.6788C361.708 31.5036 361.393 31.3874 361.065 31.3371C360.736 31.2867 360.401 31.3033 360.079 31.3858C359.757 31.4683 359.455 31.615 359.191 31.8172C358.652 32.2454 358.297 32.8638 358.199 33.5455C358.101 34.2272 358.268 34.9204 358.666 35.4829Z" fill="#263238"/>
<path d="M360.633 40.8597C360.651 41.2657 360.789 41.6572 361.028 41.9859C361.267 42.3146 361.597 42.5659 361.977 42.7086C362.358 42.8513 362.772 42.8792 363.168 42.7887C363.564 42.6983 363.925 42.4936 364.206 42.1999C364.487 41.9063 364.675 41.5366 364.748 41.1368C364.821 40.737 364.775 40.3246 364.615 39.9509C364.456 39.5771 364.19 39.2584 363.851 39.0342C363.512 38.8101 363.115 38.6904 362.708 38.6899C362.147 38.7076 361.615 38.9448 361.227 39.3505C360.839 39.7563 360.626 40.2982 360.633 40.8597Z" fill="#263238"/>
<path d="M371.199 38.8921L370.512 51.3581L364.002 49.1479L371.199 38.8921Z" fill="#F28F8F"/>
<path d="M347.668 173.539L356.576 168.795C365.08 164.267 375.228 156.585 375.228 145.682C375.228 138.041 369.043 129.941 361.401 127.583C354.38 125.413 348.585 131.303 347.695 137.812C346.819 130.75 341.024 121.276 333.989 119.106C326.362 116.734 320.176 121.02 320.176 128.648C320.176 139.564 330.283 153.512 338.774 163.283L347.668 173.539Z" fill="#4B4E6D"/>
<path d="M446.251 159.644L428.421 145.871C428.421 145.871 392.479 151.72 388.26 152.043C384.042 152.367 380.323 149.186 378.719 145.049C377.115 140.911 374.595 141.356 374.595 141.356C375.268 143.671 375.406 146.109 374.999 148.485C373.544 150.049 365.229 151.612 359.622 149.712C354.016 147.812 345.889 150.574 350.916 158.202C355.943 165.83 365.741 166.733 372.479 166.733C375.318 166.715 378.153 166.526 380.969 166.167C383.166 165.884 385.363 165.655 387.573 165.507C401.535 164.509 439.93 161.639 446.251 159.644Z" fill="#FFA8A7"/>
<path d="M127.552 74.8484C139.816 72.6112 140.355 74.2958 178.953 95.8856C178.953 95.8856 224.41 77.4494 229.801 74.3228C235.191 71.1962 242.914 69.1342 248.668 72.6517C247.272 72.6904 245.888 72.9264 244.558 73.3525C243.897 73.6759 241.687 74.8079 241.97 75.8187C242.078 76.2499 242.604 76.3847 243.048 76.4117C243.989 76.4816 244.935 76.4363 245.865 76.2769C246.943 76.0882 248.223 75.8187 248.965 76.6138C249.23 76.9734 249.364 77.413 249.344 77.8593C249.324 78.3056 249.152 78.7317 248.857 79.0666C248.255 79.7281 247.508 80.2403 246.674 80.5625L242.631 82.4358C241.646 82.8478 240.711 83.3676 239.841 83.9856C239.046 84.5786 238.372 85.3333 237.55 85.9128C234.989 87.6782 231.984 86.7618 229.302 87.9073C228.844 88.096 228.386 88.3386 227.954 88.5408C225.973 89.4841 224.087 90.5892 222.2 91.7078C216.701 94.9692 211.324 98.4462 205.933 101.869C200.543 105.292 195.435 108.608 190.017 111.667C188.047 112.955 185.912 113.97 183.67 114.686C176.931 116.316 138.213 99.4839 138.213 99.4839L127.552 74.8484Z" fill="#9E6767"/>
<path d="M112.378 9.1355H121.569C128.339 9.1355 134.831 11.8247 139.618 16.6116C144.405 21.3985 147.094 27.8908 147.094 34.6605V38.9192C147.096 42.2528 146.441 45.5541 145.166 48.6346C143.892 51.715 142.023 54.5141 139.666 56.8719C137.309 59.2298 134.511 61.1002 131.432 62.3764C128.352 63.6525 125.051 64.3094 121.717 64.3094H112.283C105.553 64.3094 99.0985 61.6358 94.3394 56.8767C89.5803 52.1176 86.9067 45.663 86.9067 38.9326V34.6605C86.9067 27.9002 89.5885 21.4159 94.3638 16.6306C99.139 11.8453 105.618 9.14978 112.378 9.1355Z" fill="#4B4E6D"/>
<path d="M98.9683 365.596V363.655C99.7364 365.933 103.281 375.704 108.645 380.609C112.917 384.504 118.752 389.005 120.235 393.345C121.717 397.684 112.149 399.382 108.106 398.735C103.47 397.913 97.4723 395.272 94.1975 391.269C91.9064 388.439 90.4509 385.097 88.8068 382.887C87.1626 380.676 83.4161 378.183 82.4997 375.623C82.0145 374.275 82.594 371.121 83.2813 368.507C83.9012 366.122 84.629 363.48 85.3972 363.709V365.178C86.381 366.27 89.1033 367.361 92.1355 367.469C94.184 367.537 98.9817 367.105 98.9683 365.596Z" fill="#263238"/>
<path d="M112.54 384.032C111.192 382.846 109.844 381.701 108.672 380.595C104.925 377.172 102.068 371.364 100.424 367.402C99.481 365.143 98.9954 362.72 98.9954 360.272V352.55H85.4243V365.124V365.448H85.4917C86.1521 368.264 92.3649 375.744 95.8958 380.622C98.2542 383.897 102.755 388.062 108.133 388.776C113.227 389.504 115.828 387.9 112.54 384.032Z" fill="#9E6767"/>
<path d="M151.797 352.241V350.3C152.552 352.578 156.096 362.429 161.474 367.254C165.746 371.149 171.568 375.65 173.05 380.003C174.533 384.356 164.964 386.027 160.921 385.326C156.272 384.504 150.274 381.876 147.013 377.86C144.722 375.043 143.253 371.701 141.622 369.477C139.992 367.254 136.232 364.788 135.329 362.213C134.83 360.866 135.41 357.712 136.097 355.111C136.73 352.712 137.445 350.084 138.226 350.3V351.782C139.21 352.874 141.932 353.952 144.965 354.074C147 354.141 151.811 353.75 151.797 352.241Z" fill="#263238"/>
<path d="M165.341 370.69C163.994 369.504 162.646 368.345 161.474 367.24C157.714 363.817 154.857 358.008 153.212 354.046C152.28 351.785 151.799 349.363 151.797 346.917V339.235H138.321V351.796V352.133C138.967 354.949 145.18 362.442 148.711 367.321C151.083 370.596 155.584 374.76 160.961 375.474C166.042 376.148 168.657 374.544 165.341 370.69Z" fill="#9E6767"/>
<path d="M88.1195 155.129C77.6211 178.04 88.4969 258.833 88.4969 258.833C88.1869 262.553 83.9283 269.884 82.3515 286.258C80.4782 305.611 85.2894 354.195 85.2894 354.195C87.3528 355.393 89.6778 356.068 92.062 356.162C94.4461 356.256 96.817 355.766 98.9683 354.734C98.9683 354.734 111.879 281.555 114.305 262.323C116.421 245.531 120.491 208.605 120.491 208.605L132.04 262.229C130.352 267.64 129.131 273.186 128.388 278.806C127.283 290.113 138.253 342.807 138.253 342.807C138.253 342.807 142.93 344.532 151.73 343.225C151.73 343.225 155.611 273.294 156.622 259.669C158.347 236.758 152.269 165.331 148.064 151.854L88.1195 155.129Z" fill="#37474F"/>
<path d="M120.491 208.605L123.9 187.312C123.9 187.312 138.32 184.32 144.857 178.175C144.857 178.175 137.997 186.706 127.809 189.509L123.981 205.896L130.72 255.558L120.491 208.605Z" fill="#263238"/>
<path d="M106.637 75.4681C93.1598 76.3846 92.2434 82.8938 88.8742 89.9961C86.4008 95.471 86.1686 101.697 88.2273 107.341L97.6611 134.483C97.6611 134.483 93.2811 145.103 88.2273 155.129C111.771 168.269 141.164 161.356 148.239 151.774C148.536 149.739 146.716 133.836 145.544 123.472C149.695 113.068 150.786 106.478 149.034 99.605C145.787 86.8425 133.186 74.417 127.606 74.8617L106.637 75.4681Z" fill="#F5F5F5"/>
<path d="M98.537 153.027C98.537 153.027 101.313 141.99 102.31 139.55C102.634 138.565 103.278 137.718 104.141 137.143C105.004 136.569 106.035 136.301 107.068 136.383C105.559 135.382 104.264 134.093 103.255 132.59C102.247 131.087 101.546 129.399 101.192 127.623L98.3348 113.271C98.3348 113.271 103.645 96.4111 103.106 90.6431L89.6288 91.4247L87.8903 92.6376C86.4574 97.4369 86.5896 102.568 88.2677 107.287L97.7014 134.429C97.7014 134.429 93.3215 145.049 88.2677 155.075C105.612 164.752 126.137 163.552 138.563 158.404L98.537 153.027Z" fill="#E6E6E6"/>
<path d="M71.0041 145.17C71.0849 144.105 75.7344 115.521 79.4271 96.2762C81.9068 83.2846 87.0819 78.5273 97.2164 76.964L100.815 76.3979C105.626 92.2062 102.311 99.3084 95.963 110.184L89.9794 139.051L75.4918 153.701C70.5054 152.703 70.8963 146.666 71.0041 145.17Z" fill="#9E6767"/>
<path d="M137.202 21.3186C140.383 23.2054 144.318 31.1971 143.94 47.9756C143.604 62.1936 138.994 65.7111 136.69 66.7218C134.385 67.7326 129.952 67.1126 125.572 66.3984V74.9292C125.572 74.9292 131.569 81.8966 131.191 85.8049C130.814 89.7132 122.526 90.6431 116.92 86.8157C113.282 84.2003 110.161 80.9331 107.715 77.1798V56.5603C107.715 56.5603 104.777 60.4686 99.9927 57.2881C95.2085 54.1076 95.0198 46.2237 97.796 43.3935C100.572 40.5634 106.596 41.4664 107.715 45.3746C107.715 45.3746 114.628 45.6307 123.887 40.5634C127.46 38.6248 130.527 35.8727 132.84 32.5295C135.153 29.1864 136.648 25.3459 137.202 21.3186Z" fill="#9E6767"/>
<path d="M128.051 44.4044C128.056 44.7559 127.957 45.1011 127.767 45.3969C127.578 45.6927 127.305 45.9262 126.983 46.0683C126.662 46.2104 126.306 46.2548 125.959 46.1961C125.613 46.1373 125.291 45.9779 125.034 45.7377C124.778 45.4975 124.597 45.1872 124.516 44.8453C124.434 44.5033 124.455 44.145 124.575 43.8147C124.695 43.4845 124.91 43.197 125.193 42.9879C125.476 42.7788 125.813 42.6575 126.164 42.639C126.405 42.63 126.644 42.6686 126.869 42.7526C127.094 42.8367 127.3 42.9644 127.476 43.1286C127.651 43.2927 127.792 43.49 127.891 43.709C127.99 43.9279 128.044 44.1643 128.051 44.4044Z" fill="#263238"/>
<path d="M128.523 56.4658L132.674 57.8135C132.6 58.0912 132.47 58.351 132.293 58.5773C132.116 58.8036 131.894 58.9917 131.643 59.1302C131.391 59.2687 131.113 59.3548 130.827 59.3833C130.541 59.4118 130.253 59.3821 129.978 59.2959C129.414 59.1076 128.946 58.7061 128.674 58.1773C128.402 57.6484 128.348 57.0342 128.523 56.4658Z" fill="#874C4C"/>
<path d="M142.714 38.9191L139.089 36.4125C139.24 36.1687 139.44 35.9582 139.675 35.794C139.911 35.6298 140.177 35.5152 140.458 35.4572C140.739 35.3992 141.029 35.399 141.311 35.4567C141.592 35.5143 141.858 35.6286 142.094 35.7925C142.578 36.1355 142.911 36.6508 143.027 37.2324C143.142 37.8139 143.03 38.4176 142.714 38.9191Z" fill="#263238"/>
<path d="M141.878 43.1105C141.883 43.462 141.784 43.8071 141.595 44.103C141.405 44.3988 141.132 44.6323 140.811 44.7744C140.489 44.9165 140.133 44.9609 139.786 44.9021C139.44 44.8433 139.118 44.6839 138.861 44.4437C138.605 44.2035 138.424 43.8932 138.343 43.5513C138.261 43.2094 138.282 42.851 138.402 42.5208C138.523 42.1905 138.738 41.903 139.02 41.694C139.303 41.4849 139.641 41.3636 139.992 41.345C140.232 41.336 140.471 41.3746 140.696 41.4587C140.921 41.5427 141.127 41.6705 141.303 41.8346C141.478 41.9988 141.619 42.196 141.718 42.415C141.817 42.634 141.871 42.8704 141.878 43.1105Z" fill="#263238"/>
<path d="M133.442 42.0864L133.725 52.8544L139.385 51.1024L133.442 42.0864Z" fill="#874C4C"/>
<path d="M125.558 66.3984C120.989 65.7919 111.569 63.0965 110.114 59.377C110.699 61.2571 111.847 62.9127 113.402 64.1208C116.219 66.5331 125.531 69.242 125.531 69.242L125.558 66.3984Z" fill="#874C4C"/>
<path d="M169.789 170.318L161.218 165.749C153.037 161.396 143.28 153.997 143.28 143.512C143.28 136.168 149.223 128.365 156.568 126.1C163.306 124.012 168.913 129.672 169.762 135.938C170.611 129.2 176.19 120.022 182.942 117.933C190.287 115.669 196.244 119.78 196.244 127.125C196.244 137.623 186.513 151.032 178.347 160.439L169.789 170.318Z" fill="#4B4E6D"/>
<path d="M75.4919 153.687L89.9795 139.038C89.9795 139.038 126.542 147.124 130.666 147.515C134.79 147.906 138.065 144.119 140.962 140.857C141.314 140.434 141.755 140.094 142.253 139.861C142.752 139.628 143.296 139.508 143.846 139.51C143.438 140.816 143.314 142.195 143.482 143.553C144.102 145.278 153.199 147.124 158.697 145.264C164.196 143.405 172.174 146.1 167.201 153.58C162.228 161.059 152.714 161.908 146.056 161.922C143.276 161.902 140.499 161.718 137.741 161.369C135.598 161.086 133.455 160.87 131.286 160.709C117.688 159.698 81.6778 155.628 75.4919 153.687Z" fill="#9E6767"/>
<path d="M90.5993 12.3565C96.4752 14.8227 95.1544 19.863 92.7017 25.7254C90.2489 31.5878 87.5805 36.089 81.7046 33.6228C78.8846 32.4433 76.6485 30.1918 75.4885 27.3637C74.3284 24.5355 74.3393 21.3624 75.5188 18.5423C76.6983 15.7222 78.9498 13.4862 81.7779 12.3261C84.6061 11.166 87.7792 11.1769 90.5993 12.3565Z" fill="#4B4E6D"/>
<path d="M95.7743 17.6125L97.8362 7.8014C97.1994 7.63377 96.5352 7.59715 95.8839 7.69376C95.2325 7.79038 94.6076 8.0182 94.0469 8.36345C93.4862 8.70869 93.0014 9.16418 92.6219 9.70229C92.2424 10.2404 91.976 10.85 91.8391 11.494C91.5828 12.8242 91.8487 14.202 92.5814 15.3413C93.3142 16.4806 94.4576 17.2939 95.7743 17.6125Z" fill="#4B4E6D"/>
</svg>
